<svg id="圖層_1" data-name="圖層 1" xmlns="http://www.w3.org/2000/svg" viewBox="0 0 1090.87 256.65"><defs><style>.cls-1{fill:#e1002c;}.cls-2{fill:none;stroke:#000;stroke-miterlimit:10;stroke-width:4px;}</style></defs><title>logo</title><path d="M621,101.37h-20.1a13,13,0,0,1-1.56,3.58h19.19V110h-9.72a18.91,18.91,0,0,1-.3,4.33h11.13v5.14H609.4q8.18,4,10.18,5.14l-3.78,5.49h3.78v6.2H586q-8.47,0-8.47-9.28V101.37h-3.12V95.88H621Zm43.33,44.44H633.44v4.43h23.83V184.7H648.2v-2.47H590.51v2.47h-8.77V150.24h24.44a13,13,0,0,0,.5-4.43H574.59v-5.95h89.78ZM601.24,110h-5.19a36,36,0,0,1-3.27,3.27l-5.49-4q4.68-4.64,6.19-7.91h-7v26.4c0,1.58.86,2.37,2.57,2.37h2.47l-3.68-5.8a20.86,20.86,0,0,0,9.77-4.83h-9v-5.14h12.09A16.39,16.39,0,0,0,601.24,110Zm47,66.2V164.4H632q-6.81,0-6.81-5.9v-2.57h-12a21.12,21.12,0,0,1-9.09,8.85q-5.57,2.68-8.94,2.69l-3.83-7a19.18,19.18,0,0,0,11.79-4.54h-12.6v20.31Zm-33.66-46.1a94.69,94.69,0,0,0-10.53-6.2q-3.37,3.78-10,6.2ZM641,172.76H598.22v-5.09H641Zm-15.87-22.52v-4.43h-9.92a23.75,23.75,0,0,1-.51,4.43Zm38.5-40H652.83c-2.15,0-3.65-.36-4.51-1.09s-1.28-2-1.28-3.9v-3.58H635.4a14.16,14.16,0,0,1-7.76,11.24l-6.5-4.94q7.67-3.18,7-12.09H655v7.66c0,.67.4,1,1.21,1h7.46Zm.4,21.66-5,5.9a126.57,126.57,0,0,0-14.56-7.06,77.94,77.94,0,0,1-19.4,6.6l-3.42-6.9a59.7,59.7,0,0,0,13.45-3.38q-8-2.57-10-3.12l4.13-4.33h-5.89v-5.8h35.92v5.8a45,45,0,0,1-7.15,6.4A133.54,133.54,0,0,1,664.07,131.9ZM648.2,159.46v-3.53H633.44v1.67c0,1.24.68,1.86,2.06,1.86Zm1-39.85H634.75l9.52,3.22A48.53,48.53,0,0,0,649.21,119.61Z"/><path d="M767.25,169.24h-39.6v6.39a8.73,8.73,0,0,1-1.58,5.5,8,8,0,0,1-4,2.74c-1.62.49-4.69.73-9.19.73q-3.12,0-7.1-.2l-3-8.36q3.53.09,13.61.1c1.24,0,1.86-.57,1.86-1.72v-5.18H677.37v-7.31h40.86V157.5a95.08,95.08,0,0,0,14.26-4H694.2v-6.6h54.92v6.6a154.59,154.59,0,0,1-21.47,7.86v.6h39.6Zm-1.56-15.17H757V142.33H688V154h-9.17V135.08h6.4l-1.86-37a71.15,71.15,0,0,0,20.1-3.93l4.23,7.16a80.52,80.52,0,0,1-15.27,3.17l.31,5.5h13.45v6.7h-13.1l.2,5.84h12.9v6.65h-12.5l.31,6h56.83l.2-6H737.12v-6.65h14.26l.3-5.84H737.12v-6.7h14.77l.3-5.5H736.42v-7.2h24.74l-1.67,37.84h6.2ZM734.35,97.14a32.33,32.33,0,0,1-6.7,6.4,58.75,58.75,0,0,1,4.64,4.53l-5.49,4.84a37.74,37.74,0,0,0-5.14-5.14A78.88,78.88,0,0,1,711.23,113l-4.34-5.8a46.53,46.53,0,0,0,8.77-4.13A58.22,58.22,0,0,0,710,98.85l5-5,6.9,4.94a29.81,29.81,0,0,0,5.34-4.84Zm.51,32.49-5.49,4.74a51.38,51.38,0,0,0-7-6.6,86.94,86.94,0,0,1-10.53,5.79l-4.23-5.69a75.19,75.19,0,0,0,8.87-4.73,38.79,38.79,0,0,0-6.8-4.64l5-5.09q2.73,1.62,8,5.49a47.51,47.51,0,0,0,5.8-5.49l6.3,3.73a62.53,62.53,0,0,1-6.4,6.1A74,74,0,0,1,734.86,129.63Z"/><path d="M867,185.06h-9.07v-5.4H793.35v5.14h-8.87V96.38H867Zm-9.07-13.46V104.34H793.35V171.6Zm-3.27-39h-58v-6.3h24.73v-3.48h-20.6V107.67h49.73v15.16H830.08v3.48h24.59Zm-2.92,35.62h-52.1V136h52.1Zm-8.67-6.1v-19.9H808.42v19.9Zm-1.51-44.79v-4.13H809.68v4.13Zm-3.93,41.57H813.81V145.4h23.83ZM829.88,154v-3.63h-8.36V154Z"/><path d="M973.62,149.64H883.74v-6.7H924V138.3H891.7v-6.4H924v-4.43H893.26v-6.1H924v-4.83H883.54V110H924V105.7H893.26V99.2H924V94.62h9.07V99.2H965V110h8.57v6.5H965v10.93H933.06v4.43h32.8v6.4h-32.8v4.64h40.56Zm-9.37,35.26h-9.32v-2.57h-52.3v2.57h-9.37V154h71Zm-9.32-20v-4.63h-52.3v4.63Zm0,10.94V171.1h-52.3v4.74Zm1-65.8V105.7H933.06V110Zm0,11.33v-4.83H933.06v4.83Z"/><path d="M1027.38,110.64l-4.84,7.31a43.23,43.23,0,0,0-5.29-5.55v6.7H998.16v-4a70,70,0,0,1-9.58,7L986,112.91q11.4-6.81,20.51-19.7l8.36,3a8.2,8.2,0,0,1-1.51,2.27A101,101,0,0,1,1027.38,110.64Zm-.71,67.66-8.16,4.24a45,45,0,0,0-2.37-6.5,156.61,156.61,0,0,1-23.83,8.46l-2.47-7.81a4.4,4.4,0,0,0,1.92-3.63V123.64h31.49v33.65h-22.78V173a85.74,85.74,0,0,0,11.84-4.73,25.59,25.59,0,0,0-3-5.59l7.91-3.73A96.61,96.61,0,0,1,1026.67,178.3Zm-11.89-41.66V131.4h-14.31v5.24Zm0,12.9v-6.3h-14.31v6.3Zm1.57-38a90.79,90.79,0,0,0-8.07-6.7,70.73,70.73,0,0,1-6.29,6.7Zm59.85,11.89h-5.79v22.92H1042v7h31.89v27H1042v4.43H1033V123.44h-4.43V105.15H1047a63.47,63.47,0,0,0-4.13-9.07l9.32-2.57a75.41,75.41,0,0,1,4.73,11.64h19.3Zm-9-2.47v-7.86h-29.52V121Zm-5.89,17.33V129H1042v9.32Zm3.73,34.06V161.63h-23v10.73Z"/><path class="cls-1" d="M51.11,152v42H35.32V152.1H16.08V137.66h19.2V115.39H51v22.13H69V152Z"/><path class="cls-1" d="M80.26,196.56l-.18-.53c.45-.32.89-.66,1.35-.95,5.4-3.36,11.09-6.32,16.15-10.13a73.72,73.72,0,0,0,26.23-36c3.86-11.52,4.51-23.33,3.07-35.34-2.15-18-9.66-33.24-23.13-45.49C96.3,61.35,87.81,56.07,79.14,51.06a3.7,3.7,0,0,1-2.09-3.74c.09-12.34,0-24.68,0-37,0-.78-.07-1.56-.12-2.49-5.9,1-10.14,4-12.39,9.14-4.11,9.43-3.67,18.59,3,26.86,2.18,2.71,4.75,5.09,6.93,7.39a27.33,27.33,0,0,0-.79,4.63q-.06,68.91,0,137.81v2.91l-4.35.28c0,4.33,0,8.44,0,12.55a2.9,2.9,0,0,0,3,3,3,3,0,0,0,3-3,21.3,21.3,0,0,0,0-2.26v-151c0-2.71.21-2.88,2.91-2.15v154.2c0,.41,0,.82,0,1.23-.24,4-2.56,6.59-5.92,6.55s-5.91-2.76-6-6.74c-.05-2.53,0-5.07,0-7.61v-4.9H0c.42,1.28.72,2.31,1.09,3.3,5.94,15.61,15.64,28.2,29.94,37,12.68,7.83,26.64,10.79,41.41,10.72,11.18-.05,22-1.85,32.18-6.54,18.25-8.4,30.14-22.56,37-41.23.37-1,.66-2.06,1.12-3.48Zm0-142.12A85.9,85.9,0,0,1,100.67,72c11.26,13.21,17.7,28.43,18.66,45.79,2,35.76-18.89,63.44-39.09,75.09ZM73.61,208.65c-.08.67-.76,1.27-1.16,1.9-.45-.58-1.27-1.14-1.29-1.74-.14-3.06-.11-6.13,0-9.2,0-.42.85-1.21,1.14-1.14.53.13,1.27.73,1.33,1.2a39.51,39.51,0,0,1,.06,4.49A37.29,37.29,0,0,1,73.61,208.65ZM75.17,47.76c-10.37-9.4-10.84-25.19,0-37.48Zm62.84,153a58.44,58.44,0,0,1-33.21,29.4c-23.4,8.53-46.95,8.22-70-1.3-13.1-5.4-23.12-14.51-29.26-27.53-.4-.83-.66-1.73-1.12-3H6.9c18.44,0,36.89,0,55.33,0,2,0,2.6.58,2.5,2.54-.16,2.88-.06,5.76,0,8.64,0,4.75,3.35,8.22,7.87,8.23s7.5-3.13,7.52-8.13c0-3.16,0-6.31,0-9.46,0-1.11.17-1.8,1.55-1.79q28.18,0,56.36,0a7.42,7.42,0,0,1,.92.18C138.59,199.36,138.36,200.1,138,200.78Z"/><path d="M460.42,120.82c-1.1,1.44-2.23,2.85-3.28,4.32-1.26,1.77-3.16,2-5.05,2.1-1.22,0-1.76-.95-1.24-2.07a17.83,17.83,0,0,1,2.23-3.77c2.4-2.94,5-5.74,7.39-8.68a5.73,5.73,0,0,0,1.29-2.86c.32-2.92.28-5.91,2.07-8.45A12.73,12.73,0,0,1,466,98.93c1.35-1.13,2.27-.88,2.63.82a32.64,32.64,0,0,1,.69,6c0,1.39.4,2,1.87,2,2.88,0,5.76.15,8.64.22a8.3,8.3,0,0,1,8.34,8.43,32.7,32.7,0,0,1-.51,6,5.67,5.67,0,0,1-9.42,3.19,15.32,15.32,0,0,1-3.18-4.21,4,4,0,0,1,0-2.89c.57-1.61,1.61-1.81,3-.78.69.51,1.21,1.26,1.93,1.69.55.33,1.58.67,1.87.41a2.92,2.92,0,0,0,.91-2.11,4.7,4.7,0,0,0-4.79-3.77,51.12,51.12,0,0,0-7.91,1.44c-.45.1-1,1.05-1,1.64-.36,5.51-.66,11-.85,16.54a2.18,2.18,0,0,0,1.13,1.71,8.73,8.73,0,0,0,3.41.42c2.31-.17,3.18.41,3.81,2.65,1.18,4.21-.22,7.84-2.4,11.31-2.54,4.08-6.05,7.19-9.77,10.15q-5.16,4.13-10,8.63c-1.39,1.29-2.51,1.66-4.35.95-4-1.53-4.34-2-1.31-5,3.24-3.26,6.86-6.12,10.25-9.22,2.85-2.61,5.74-5.19,8.35-8,3.24-3.51,2.84-5.34-1.71-6.9-3.6-1.23-4.83-3.48-4.7-7,.14-4,0-8.09,0-12.13Z"/><path d="M427.2,118.77h-4.41c-1.5,0-3.3,0-3.78-1.57a5.34,5.34,0,0,1,.81-3.69,8.74,8.74,0,0,1,7-4.45,33.55,33.55,0,0,1,12.71,1.37c3.77,1.13,5.46,3.71,5.83,7.56.61,6.26-2.09,11.19-6,15.66-3,3.46-4.06,3.56-8.13,1.39-.7-.38-2.18-.71-2.35-.45a4.82,4.82,0,0,0-.93,3.09,14.83,14.83,0,0,0,1.78,4.2,17.84,17.84,0,0,1,1.66,13c-1,4.31,0,8.33,2.05,12.2a27.61,27.61,0,0,1,2.38,5.9c.59,2.28,0,2.89-2.3,3.06-4.85.36-8.66-1.59-8.88-7.69-.29-8-.88-15.92-1.67-23.85-.26-2.62-1.58-5.12-2.36-7.69-.48-1.58-.93-3.18-1.25-4.79a7.23,7.23,0,0,1,1.42-6.58c1.38-1.56,2.51-1.74,4.4-.87a36.49,36.49,0,0,0,5.07,2.08,5.24,5.24,0,0,0,5.59-1.93,3.31,3.31,0,0,0-1.25-5.56,8.44,8.44,0,0,0-2.83-.62c-1.53-.1-3.07,0-4.6,0Z"/><path d="M500.44,160.31c.23-3.76.46-7.46.68-11.14,2.79,0,4.37,1.42,5,4.08a10.63,10.63,0,0,0,1.6,4c3.22,4.16,2.29,9.33-2.6,11.45a130.67,130.67,0,0,1-14.27,5.19,19.57,19.57,0,0,1-13-.2c-4.43-1.72-8.29-4.08-9.24-9.27a8.59,8.59,0,0,1,.09-2.72c.48-3.25,1.44-4.3,4.9-1.91,1.17.81,1.91,2.22,3,3.2a4.64,4.64,0,0,0,2.42,1.25c3.48.28,7,.4,10.46.48a3.32,3.32,0,0,0,1.83-.66C494.06,162.18,496.93,160.61,500.44,160.31Z"/><path d="M188.29,161.91c-2.3,3.19-4.27,6.07-6.39,8.82-4.73,6.14-4.76,6-12.47,6a7.63,7.63,0,0,1-5.87-2.29c-1.24-1.25-2.69-2.29-4.27-3.61,1.65-1.29,3.12-2.47,4.63-3.58a1.12,1.12,0,0,1,1-.05c1.77,1.13,3.33.3,4.53-.79a70.55,70.55,0,0,0,7.08-7.18c3.08-3.73,5.95-7.64,8.7-11.62.76-1.09.77-2.69,1.12-4a36.76,36.76,0,0,0-3.78.62c-3.47.93-6.81,2.45-10.57,1.88a14.37,14.37,0,0,1-7.94-3.9,1.43,1.43,0,0,1,.93-2.66c2.92-.3,5.87-.4,8.79-.74,2-.24,4-.81,6.1-1.12,4.1-.61,8.21-1.24,12.34-1.66,1.77-.18,3.14-.79,3.84-2.36,1.06-2.39,1.91-4.86,2.91-7.45-1.8-.46-3.62-.88-5.42-1.4A16.6,16.6,0,0,1,190,123.4a9.46,9.46,0,0,1-1.88-2,8.79,8.79,0,0,1,2.33-1.46,27.54,27.54,0,0,1,3.66-.26c4.68-.49,9.49-.5,14-1.65,5.12-1.29,7.72-4,7.91-9a31.26,31.26,0,0,1,1.57-7.33,3,3,0,0,1,1.88-1.66,10.43,10.43,0,0,1,3.82-.22,3.15,3.15,0,0,1,3,2.8,16.05,16.05,0,0,1-1.23,9.17,6.19,6.19,0,0,1-4.23,3.55c-1,.24-1.19.67-1,1.68.74,3.57-.87,6.34-4.32,7.73s-7.06,1.41-10.69,1.37H203c.19,2.5,4.11,3.94,1.52,6.92l.43.47c1.81-.44,3.81-.52,5.4-1.37,4.78-2.57,9.69-2.14,14.68-1.16a4.36,4.36,0,0,1,3.3,3.37c.39,1.25-.62,2.43-2.35,2.64-2.07.26-4.19.14-6.22.55a56.82,56.82,0,0,0-5.83,1.93,15.09,15.09,0,0,1-3.26.86c-1.82.17-3.68,0-5.51.18-3.22.32-5.6,1.84-8,4.28-3.15,3.25-3.95,7.37-5.75,11.12-.59,1.24,0,2,1.2,2A23.72,23.72,0,0,0,198,157c4.22-1.21,8.31-3,12.59-3.83s8.07,1,11.81,2.74a2.79,2.79,0,0,1,1.11,2.05c.23,3.28-1.59,5.69-3.73,7.89-.76.78-1.75,1.36-2.47,2.18a2.38,2.38,0,0,0-.5,1.78c.09.39.84.81,1.35.9a3.42,3.42,0,0,1,3.19,3.57c.07,2.06-.68,3.18-3,3.39a45.59,45.59,0,0,1-7.48-.13c-2.75-.22-5.48-.64-8.21-1a1.89,1.89,0,0,1-1.22-.64c-1.68-2.42-.83-6.24,1.67-8s5.16-3.53,7.6-5.46c.81-.64,1.18-1.83,1.75-2.76-1.16-.11-2.41-.54-3.47-.27-3.24.84-6.43,1.52-10,.4v6.61c0,1.11,0,2.21,0,3.32,0,2.32-1.07,3.28-3.45,3.16-4.13-.22-6.66-2.9-7-7.5C188.37,164.39,188.36,163.36,188.29,161.91Z"/><path d="M200.76,114c-1-.37-2.93-.63-4.32-1.6a63.71,63.71,0,0,1-7.67-6.43,8.34,8.34,0,0,1-1.71-3.79,3.84,3.84,0,0,1,1.53-4.22c1.43-1.1,2.8-.86,4.26,0a35.88,35.88,0,0,1,9.73,8,2.69,2.69,0,0,0,2.51,1,18.82,18.82,0,0,1,4.13.75,23.6,23.6,0,0,1-1.84,3.44C205.94,113,203.84,113.81,200.76,114Z"/><path d="M279.84,162.14c5,2.29,10.34,5.27,16.75,3.93,3.32-.7,4.23-1.85,4.42-5.16a2.87,2.87,0,0,1,2.79-3,3.29,3.29,0,0,1,3.87,2.33c2.12,6.32-2.42,13.73-9.11,14.58-8.83,1.12-17-.45-24.49-5.67a17.92,17.92,0,0,0-6.41-2.52c-4.42-.94-5.75-2.25-5.92-6.75a12.74,12.74,0,0,0-.13-2.56,3.19,3.19,0,0,0-1.12-1.76c-1.15-.78-1.22-1.6-.19-2.31,1.55-1.08,3.23-2,4.88-2.92a2.25,2.25,0,0,1,3.19.84c1.42,1.93,2.79,3.9,4.29,5.76,2.09,2.6,3.87,2.57,6,.08,3-3.51,4.64-7.52,4-12.18-.16-1.18-1-2.25-1.5-3.4a4.31,4.31,0,0,1-.6-2.33c.12-.44,1.28-.79,2-.84,3.12-.23,5.71,2.28,6,5.93A16.17,16.17,0,0,1,284.25,157C282.7,158.64,281.3,160.43,279.84,162.14Z"/><path d="M251.87,116.85c2.18-.71,4.35-1.5,6.57-2.11,1.6-.43,2.77-1,2.78-2.94,0-.6.55-1.67.92-1.7a9.65,9.65,0,0,1,2.91.52,12.88,12.88,0,0,0,2.15.71c2.06.13,4.16-.06,6.19.2a3.45,3.45,0,0,1,3.2,2.89,5.43,5.43,0,0,1-1.32,3.54c-.51.61-1.85.7-2.83.74-1.46,0-2.26.43-2.19,2.1s-.77,3.66,0,4.57,2.92.63,4.48.84c2.88.39,4,1.31,4.26,3.55a2.73,2.73,0,0,1-3,3.33c-4.42,0-8.83,0-13.24-.17a21.61,21.61,0,0,1-6-1.34c-.79-.28-1.89-1.56-1.76-2.16a4,4,0,0,1,2.12-2.22,33.43,33.43,0,0,1,5.05-1.63c1.05-.29,1.58-.68,1.23-1.92-.45-1.57-.2-3.72-1.17-4.64s-3-.36-4.6-.52c-1.89-.2-3.78-.47-5.66-.71Z"/><path d="M294.7,124.84c2.31.18,4.38.24,6.41.54a11.46,11.46,0,0,1,3.42,1.17c1.21.62,1.3,1.6.2,2.47-3.51,2.82-7.42,4.63-12,3.91a31.1,31.1,0,0,1-6-1.78,4.47,4.47,0,0,1-2.17-1.61,4.07,4.07,0,0,1-.76-2.91c.24-.68,1.58-1.27,2.49-1.36,2.91-.31,2.8-.23,3-3.22.11-1.86-.37-3-2.24-3.56a5.51,5.51,0,0,1-1.87-1.14c-2.54-2.06-2.07-4.71,1-5.93a5.8,5.8,0,0,0,1.73-1.24c1.59-1.51,3.19-1.82,4.72-.31s3.08,1.55,4.85,1.55c4.36,0,5.63,2.27,5.89,6.12.08,1.34-.43,2.11-1.91,2a24.36,24.36,0,0,1-2.57,0c-2.17-.37-3.16.58-3.41,2.65A22.79,22.79,0,0,1,294.7,124.84Z"/><path d="M255.07,175.1a4.25,4.25,0,0,1-4.52-3.23,8.47,8.47,0,0,0-1.08-2.68,5.24,5.24,0,0,0-2.38-1.66c-1.33-.41-2.61-1-2.65-2.39a5,5,0,0,1,1.11-3.41c1.64-1.59,4.08-2.81,6.63-1.14,1.88,1.23,4,2.26,5.53,3.83a11.43,11.43,0,0,1,2.66,4.88c.93,3.38-.39,5.08-3.84,5.62Z"/><path d="M253.09,106.42A25.55,25.55,0,0,1,264,100.35a45.36,45.36,0,0,1,6.5-1c2.68-.33,4.87,1,7,2.36a1.76,1.76,0,0,1,.42,1.47c-.16,1.15-.66,2.25-.74,3.39-.09,1.39-.83,1.8-1.93,1.46-5.39-1.67-10.93-.77-16.41-1.07-1.82-.1-3.65,0-5.47,0Z"/><path d="M314.51,144.33a18,18,0,0,1-1.13,3.24c-1.19,2.09-3,2.67-4.9,1.17a91.51,91.51,0,0,1-7.24-7,1.29,1.29,0,0,1,.08-1.24c1-1.1,1.9-2.47,3.15-3,1.06-.47,2.58-.09,3.85.15C312.09,138.36,314.27,140.84,314.51,144.33Z"/><path d="M290.07,99.89c1.64.2,3.3.29,4.91.62,2.06.42,2.61,1.29,2.64,3.69,0,2-.89,3.51-2.72,3.81a14.94,14.94,0,0,1-4.17,0c-.44-.06-1-.84-1.12-1.38-.29-1.27-1-1.53-2.13-1.34-1,.15-2,.12-2.92.27-1.62.27-2.31-.69-2.51-2a2.18,2.18,0,0,1,1.83-2.73C285.92,100.44,288,100.19,290.07,99.89Z"/><path d="M270.48,146.42c1.88,0,3.53,0,5.17,0a2.19,2.19,0,0,0,2.48-1.68c.12-.4.87-1,1.15-.87a1.75,1.75,0,0,1,1,1.19,21.54,21.54,0,0,1-.06,4.75,4.44,4.44,0,0,1-1.41,2.45c-1.33,1.17-5.59.95-7.15-.29C269.88,150.54,270.13,148.59,270.48,146.42Z"/><path d="M372.19,149.08c1.7.41,3.41.77,5.09,1.24,4.65,1.27,6.57,3.44,6.59,8.23,0,5.51-.34,11-.58,16.54-.07,1.72-.39,3.43-.39,5.14a1.9,1.9,0,0,1-2.11,2.18c-3,0-5.78-.56-7.83-2.91a2.25,2.25,0,0,0-2.63-.86,23.85,23.85,0,0,1-6.18.61c-2.44-.1-3.73-1.57-4.06-4.22a20.2,20.2,0,0,1,11.3.14c.64.2,1.27.49,1.92.63a2.85,2.85,0,0,0,3.5-1.65,9.14,9.14,0,0,0,.71-2.46c.6-4.63,1-9.28-.15-13.89-.6-2.51-2-3.49-4.57-3.45v6.37a4.6,4.6,0,0,1,0,1.82c-.45,1-1,2.4-1.79,2.6a3.1,3.1,0,0,1-2.76-1.37,42.56,42.56,0,0,1-1.05-6.42,18.63,18.63,0,0,0-.49-1.92l-1,.12a29.21,29.21,0,0,1-.05,3.86c-.1.73-.51,1.79-1.05,2a3.14,3.14,0,0,1-2.68-.16,9.77,9.77,0,0,1-2.11-3.11c-.56-1.09-4.13-2.3-5.08-1.56a1.26,1.26,0,0,0-.35.79c-.23,2.19-.76,4.43-.5,6.57.15,1.19,1.45,2.47,2.56,3.25a3.44,3.44,0,0,1,1.8,3.44c-.15,1.64.06,3.32-.09,5A2,2,0,0,1,357,177c-3.61.72-6.62-1.06-7.34-4.67-.81-4.07-1.16-8.24-1.78-12.36s3.39-6.22,6.46-6.79c1.55-.3,3.11-.57,4.63-1s1.18-1.45.9-2.54c-.32-1.28-1.19-1.09-2-.81-3.88,1.33-7.72,2.75-11.61,4-4.17,1.37-8.37,2.08-12.41-.4a10.57,10.57,0,0,1-1.85-1.87,10.4,10.4,0,0,1,2.54-1.14c5.64-.84,11.31-1.42,16.91-2.43a34.14,34.14,0,0,0,7.43-2.59c4.75-2.06,9.73-2.48,14.78-2.34,4,.11,8.07.49,12.11.71,2.08.12,4.26-.24,6.2.3a56.91,56.91,0,0,1,8.63,3.41c1.25.57,2.23,1.65,1.55,3.28a3,3,0,0,1-3.76,1.82,4.55,4.55,0,0,1-1.86-.74c-3-2.41-6.6-3-10.19-3.16-4.2-.16-8.42.28-12.64.51a6.37,6.37,0,0,0-1.52.48Zm-3.78-.67-.9-.85a8.15,8.15,0,0,0-1.52,1.53c-.1.18.53.81.83,1.23Z"/><path d="M379.94,118.63c2.33,0,4.23-.08,6.11,0,4.44.22,5.92,2.34,4.27,6.43a71.68,71.68,0,0,1-3.64,6.88l1.82.82v5.78a6.94,6.94,0,0,1-5.25-1.37c-1.53-1.16-2.84-1-4.26.24a10.29,10.29,0,0,1-10.72,2.42c-.06,0-.13,0-.17-.06-.79-.83-1.58-1.67-2.36-2.51a10.73,10.73,0,0,1,3-.84c2.35,0,4.68.27,6.52-2L372.13,131a25.09,25.09,0,0,1,3.54-.61c2.33-.07,4.66,0,7,0a2.77,2.77,0,0,0,1.08-.09c1.77-.77,4-5.79,3.14-7.54a3.51,3.51,0,0,0-2.37-1.82,28.18,28.18,0,0,0-5.59.73c-1.69.29-3.36.69-5,1l-.3-.66c2.07-2.22,4.16-4.42,6.21-6.65,1.06-1.14,2.43-2.07,2.35-4,0-.45.74-.9,1.08-1.4a29.64,29.64,0,0,0,2.82-4.23c.66-1.41-.21-2.22-1.75-1.88-2.78.61-4.88,2-5.32,5a8.23,8.23,0,0,1-.35,1.24c-.4,1.38-.47,3.09-2.35,3.34a5.15,5.15,0,0,1-5-2.16,10.77,10.77,0,0,1-1.59-8.47c.49-2.31,2.59-3.51,4.68-4.3.34-.13,1.44.8,1.62,1.4a17,17,0,0,1,.21,3.29c.13,1.43.89,1.82,2.12,1.08a16.49,16.49,0,0,0,1.92-1.43c3.22-2.69,9.37-3.12,12.92-.9,2.64,1.66,2.58,3.38.15,5.28-4.29,3.35-8.44,6.88-12.65,10.34A8.45,8.45,0,0,0,379.94,118.63Z"/><path d="M362.6,134.36c-2.42,2.44-4.49,4.58-6.63,6.65a2.63,2.63,0,0,1-1.39.33q-5.77.53-11.54,1c-4.19.35-9-3.67-9.11-7.85-.06-2.86.35-5.73.52-8.59a4.64,4.64,0,0,1,2.49-3.65c1.84-1.21,2.84-.76,3,1.44s.14,4.66.19,7c0,.9,0,1.8,0,2.7,2.64.06,7.1-3,8.65-6-1.51-.12-2.88-.21-4.24-.33-1.09-.09-2.43,0-2.51-1.5a2.49,2.49,0,0,1,2.27-2.86c1.95-.25,3.93-.25,5.86-.56,2.4-.39,4.76-1,7.15-1.45a17.71,17.71,0,0,1,4.35-.3c.69.06,1.31.87,2,1.35a7.39,7.39,0,0,1-1.5,1.64c-2.73,1.61-5.61,3-8.28,4.71a20.82,20.82,0,0,0-3.58,3.39c-.59.62-.69,1.64.37,1.61a18.6,18.6,0,0,0,5.29-.87c.9-.3,1.63-1.31,0-2.08-.42-.2-.94-.87-.87-1.2a1.79,1.79,0,0,1,1.19-.94,3.27,3.27,0,0,1,3.94,4C359.58,133.9,360.59,134.25,362.6,134.36Z"/><path d="M355.49,104.07c2.68.22,5.37.4,8,.69,1.18.13,2.35.49,2.27,2.09-.1,2.36-.47,2.78-2.57,2.92a3.67,3.67,0,0,1-1.1,0c-5.47-1.48-10.93-.29-16.4,0a37.81,37.81,0,0,1-4.76.06c-1.24-.1-2.44-.85-2.23-2.17a3,3,0,0,1,2-1.92c4.86-.81,9.76-1.39,14.65-2Z"/><path d="M358.12,116.65a35.82,35.82,0,0,0-3.86,1,15,15,0,0,1-10.25,0c-1.46-.49-2.63-1.44-2.3-3.06a3.44,3.44,0,0,1,1.82-2.15,2.56,2.56,0,0,1,3.38,1.42c.47.92,1,1,1.94.7,2.71-.75,5.43-1.5,8.19-2a7.28,7.28,0,0,1,3.59.19c.84.28,1.46,1.25,2.17,1.92a19.21,19.21,0,0,1-2.63,2.25c-.49.3-1.32,0-2,0Z"/><path d="M369,171.43a42.32,42.32,0,0,1-6.08-1c-2.12-.64-3.44-2.88-2.87-4.1.48-1,4-1.74,5.25-.69,1.9,1.58,4,1.56,6.19,1.53a2.11,2.11,0,0,1,1.4.32,4.12,4.12,0,0,1,1.29,2c0,.36-.9,1.13-1.5,1.28a23,23,0,0,1-3.63.37Z"/><path d="M368.41,148.41l-1.59,1.91c-.3-.42-.93-1-.83-1.23a8.15,8.15,0,0,1,1.52-1.53Z"/><path d="M232.18,66.92l-3.94,5.94q-12.45-7.17-18.9-14.06a64.61,64.61,0,0,1-11.29-17.44Q192,60.8,167.33,72.71l-3.91-6q24.29-11.36,29.17-31.21H165.11V28.72h28.95q.45-7.24.45-14.92H168.34V7h59.14V13.8H201.66q-.39,12.6-.61,14.92H230.3v6.77H203.12Q208.88,54.41,232.18,66.92Z"/><path d="M316.17,70.46H249.4V63.77h29.81V47.22H255.64V40.53h23.57V24.25H252V17.56H280.3a59.36,59.36,0,0,0-5.07-11.32l6.91-1.84a96.21,96.21,0,0,1,5.61,13.16h25.64v6.69H286.28V40.53h23.65v6.69H286.28V63.77h29.89Z"/><path d="M373.61,9.7a93.35,93.35,0,0,1-9.17,14.1h5.71v6H359.29a76.71,76.71,0,0,1-6.17,5.95h13.42v5.75q-3.87,3.57-9.7,8.08v1.09q7.41-1.12,13.69-2.55l.07,6.31q-3.53.72-13.76,2.26v8.53a7.64,7.64,0,0,1-1.67,5.38c-1.12,1.2-3.5,1.8-7.16,1.8-1.31,0-2.83,0-4.59-.11l-2-6.69c2.23.15,4,.22,5.34.22,2.35,0,3.53-.51,3.53-1.54V57.83q-10.79,1.45-15.49,1.76l-1.24-6.31q8.91-.49,16.73-1.62V47q4-2.74,7.14-5.27H345.19a71.21,71.21,0,0,1-8.69,5.08L333,41.58a70.15,70.15,0,0,0,17.78-11.77H333.8v-6h14V17.11H336.73V11.32h11.09V5.08h6.62v6.24h7.7v5.34A71.93,71.93,0,0,0,367.82,7Zm-11.77,7.41h-7.4V23.8h2.25C358,22.32,359.71,20.09,361.84,17.11Zm39.63,50.34-4.06,5.34a49,49,0,0,1-13.16-11.58,55.25,55.25,0,0,1-15.19,11.32l-4.7-5.08Q375,62.3,380.53,55.61q-2.89-4.89-5.23-15.49l5.94-2.75a47.57,47.57,0,0,0,3.39,11.85q4.55-10,5.07-26.81h-8.23a89.55,89.55,0,0,1-8.38,18.87l-4.33-5.15q7.82-13.46,9.78-31.51l6.24,1.25q-.72,5.15-1.69,10.22h17.63v6.32H396.1q-1,22.71-7.86,33.57A40.79,40.79,0,0,0,401.47,67.45Z"/><path d="M485.65,36.58H449.29a67.92,67.92,0,0,1-5.9,8.61H478.8V72.38h-7.1V68H442.45v4.37H435.3V52.6a67.36,67.36,0,0,1-13.08,8.16l-3.87-5.83q16.5-7.44,23.12-18.35H418.65V30.27h26.43a89.49,89.49,0,0,0,3.68-8.46l6.47,1.84a65.15,65.15,0,0,1-2.6,6.62h33ZM450.23,18.35h-8.61v7h-7v-7H418.72V12.26h15.87V5.41h7v6.85h8.61ZM471.7,61.62v-10H442.45v10Zm14-43.27h-16v7h-7v-7h-8.87V12.26h8.87V5.41h7v6.85h16Z"/><path d="M534.78,34.67a301.32,301.32,0,0,1-30.64,4.85l-1.32-6.1q4.47-.3,12.78-1.31V24.89H505V19H515.6V12.26H503.83V6.17h30.42v6.09h-12V19h10.26v5.87H522.3v6.24q3.75-.45,12-2.1ZM561,43.2a103.07,103.07,0,0,1-32.71,20.94,2.07,2.07,0,0,0,1.41,1.37,96.35,96.35,0,0,0,10.28.25,83.73,83.73,0,0,0,9.42-.28c.94-.19,1.58-1.18,1.93-3a27,27,0,0,0,.53-5.14L558.58,60q-.75,6.76-3,9a7.7,7.7,0,0,1-5.23,2.39c-2,.1-7.16.15-15.45.15q-6.76,0-8.27-.23a6.66,6.66,0,0,1-3-1.35,6.34,6.34,0,0,1-2.18-3.35A142.67,142.67,0,0,1,506,71.1l-3.16-6.17a125.49,125.49,0,0,0,18.38-5V43.84h6.89V57.3q13.23-5.19,27.18-17.63ZM517.6,44.44a89,89,0,0,1-7.86,16.09l-6.06-3A82.52,82.52,0,0,0,511.2,42.3Zm25.26,1.24L537.56,50a68,68,0,0,0-8.8-8.83L533.91,37A45.09,45.09,0,0,1,542.86,45.68ZM570.5,37.6H537.41v-6h12.78V24.89H539.4V19h10.79V12.26H537.71V6.17h31.88v6.09H557V19h11.77v5.87H557v6.69H570.5Zm1.09,27.18-6,3.31a87.44,87.44,0,0,0-8.46-15.94L563,48.61Q569.52,59.26,571.59,64.78Z"/><path d="M622.79,10.19h-15a10,10,0,0,1-1.17,2.67h14.32v3.8h-7.25a14.09,14.09,0,0,1-.23,3.23h8.31v3.83H614.1q6.09,3,7.6,3.84l-2.82,4.1h2.82v4.62H596.62q-6.32,0-6.32-6.92V10.19H588V6.09h34.82Zm32.33,33.16H632v3.31h17.78V72.38h-6.77V70.53H600v1.85h-6.54V46.66H611.7a9.76,9.76,0,0,0,.37-3.31h-24V38.91h67ZM608,16.66h-3.87a27,27,0,0,1-2.45,2.44l-4.09-3a22.18,22.18,0,0,0,4.62-5.9H597v19.7q0,1.77,1.92,1.77h1.84L598,27.33a15.59,15.59,0,0,0,7.29-3.61h-6.69V19.89h9A11.86,11.86,0,0,0,608,16.66Zm35,49.4V57.22H631c-3.39,0-5.08-1.46-5.08-4.4V50.91h-9a15.72,15.72,0,0,1-6.79,6.6,16.45,16.45,0,0,1-6.67,2l-2.86-5.23a14.29,14.29,0,0,0,8.8-3.38H600V66.06Zm-25.11-34.4A71.65,71.65,0,0,0,610.08,27a18.2,18.2,0,0,1-7.48,4.63Zm19.77,31.8h-32V59.67h32Zm-11.84-16.8V43.35h-7.41a18,18,0,0,1-.37,3.31Zm28.72-29.85h-8.08a5.3,5.3,0,0,1-3.36-.81,3.67,3.67,0,0,1-1-2.92V10.41H633.5a10.55,10.55,0,0,1-5.79,8.39l-4.85-3.69q5.71-2.36,5.23-9h20v5.72q0,.75.9.75h5.56Zm.3,16.16-3.76,4.4a94.37,94.37,0,0,0-10.86-5.26A58.33,58.33,0,0,1,625.79,37l-2.55-5.15a44.51,44.51,0,0,0,10-2.52c-4-1.27-6.48-2.05-7.49-2.33l3.09-3.23h-4.4V19.48h26.81V23.8A33.39,33.39,0,0,1,646,28.57Q650.65,30.61,654.89,33ZM643.05,53.54V50.91H632v1.24c0,.93.51,1.39,1.54,1.39Zm.75-29.74H633l7.11,2.41A36.07,36.07,0,0,0,643.8,23.8Z"/><path d="M739.74,16.09H688.91V35q0,17.42-3.31,25.17a31.94,31.94,0,0,1-8.38,12.09l-4.7-5Q682,58.92,682,43.35a59.31,59.31,0,0,1-7.55,6.24l-2.52-6.24a50.51,50.51,0,0,0,10.3-8.61V10.26h23.95A17.9,17.9,0,0,0,704,6.32l6.84-1.85A51.36,51.36,0,0,1,714,10.26h25.71ZM680.6,28.57l-5.37,1.92a83.93,83.93,0,0,0-3.08-14.17l5.15-1.84A69.29,69.29,0,0,1,680.6,28.57ZM707.49,61A58.26,58.26,0,0,1,691.4,71.55l-4.93-5A57.15,57.15,0,0,0,702,57.37Zm32.78-21.69-2.67,5.6a29.74,29.74,0,0,1-4.77-2.44V56H717.56v9.93a6.79,6.79,0,0,1-1.5,4.62c-1,1.16-3.21,1.73-6.62,1.73-1,0-1.94,0-3-.11l-1.84-6.39c.8,0,2.39.07,4.77.07a1.38,1.38,0,0,0,1-.5,1.56,1.56,0,0,0,.47-1V56H695.72V42.82a37.13,37.13,0,0,1-3.57,2.07l-2.67-6.09a47,47,0,0,0,6.39-3.91,29.61,29.61,0,0,0-6.09-3.53l4.1-4.48a61.24,61.24,0,0,1,6.91,4,47.81,47.81,0,0,0,4.21-5H691.4V20.49h16.84c.93-1.68,1.55-2.86,1.88-3.53l6.31,1.09a19.9,19.9,0,0,1-1,2.44H738v5.38H723.5A26.51,26.51,0,0,0,728,31.21a29.08,29.08,0,0,0,5.52-4.4l5.16,3.46A35.05,35.05,0,0,1,733,35.12,46.32,46.32,0,0,0,740.27,39.29Zm-14.21,2.93V39H702.41v3.23Zm0,8.46V47.22H702.41v3.46Zm-4.47-17a31,31,0,0,1-5.42-7.86h-3.61a75.19,75.19,0,0,1-5.45,7.86ZM740.2,66.55l-4.29,5.22a71.61,71.61,0,0,0-15.72-9.17l4.63-4.85A57.27,57.27,0,0,1,740.2,66.55Z"/><path d="M786.74,53.92h-20.8l5.3,2.29a62.67,62.67,0,0,1-9,16.88l-5.45-4.32a56.08,56.08,0,0,0,8.08-14.85h-4.47V7.11h26.36ZM780,20.57V13.65H767v6.92ZM780,34V26.66H767V34Zm0,13.57V40H767V47.6Zm8.79,20.64L783,71.32A74.69,74.69,0,0,0,774.85,59l6.25-3.08A54.12,54.12,0,0,1,788.8,68.24Zm35.42-41.58H818V66.32a5.47,5.47,0,0,1-1.71,4.31,6.82,6.82,0,0,1-4.06,1.71c-1.57.12-4.65.14-9.23,0l-2.78-7q3,.3,6.09.3c2.43,0,3.87-.17,4.32-.52a1.84,1.84,0,0,0,.68-1.54V33.8a79.44,79.44,0,0,1-18.88,27.41l-4.4-5.6A71.62,71.62,0,0,0,807.9,26.66H790.27V20h21V5.41H818V20h6.24Z"/><path d="M906.36,72.3H900V69.48H851.32v3.23h-6.54V6.47h61.58ZM900,63.77V11.88H851.32V63.77Zm-2.52-43.58h-19v2.29H895v17h-2.82a24.36,24.36,0,0,1,4.59,6.24L892,47.52a6.53,6.53,0,0,0-1.35-2.21Q871.74,47,854.78,47.75l-1.24-4.48q9.44-.18,19.1-.6V39.44H856.09v-17h16.55V20.19h-19.1V15.94h19.1V13.27h5.86v2.67h19Zm.6,34h-8.16V57c0,1.9-.64,3.19-1.93,3.87s-3.8,1-7.54,1c-1.33,0-2.53,0-3.61-.12l-1.69-4.92q5.64.07,7.09,0c1-.05,1.44-.47,1.44-1.24V54.14H853.8v-4.4h29.85V47.67h6.24v2.07h8.16ZM873,57.9l-3.43,4.17a53.26,53.26,0,0,0-8.3-3.23l3.45-4.17A51.94,51.94,0,0,1,873,57.9ZM872.64,29V26.36H862.19V29Zm0,6.47V32.75H862.19v2.67ZM889,29V26.36H878.5V29Zm0,6.47V32.75H878.5v2.67Zm.38,4H878.5v2.78l8.88-.64a6,6,0,0,0-1-1Z"/><path d="M944.18,33.88,940,39.29A82.47,82.47,0,0,0,926.32,29l4.47-5.3A69.55,69.55,0,0,1,944.18,33.88Zm.71,13.94a114,114,0,0,1-12.18,24.82l-6-4.17q6.27-8.46,12.1-24Zm.83-31.73-4.85,5.27A57.08,57.08,0,0,0,927.64,10l4.85-5.27A73,73,0,0,1,945.72,16.09Zm48.76,53.2-6.31,3.35q-1.74-4.1-3.31-7.11a253.74,253.74,0,0,1-36.51,6.17l-2.55-6.54q9.44-7.71,17-24.18h-17V34.29h20.79V22.11H949.1V15.49h17.56V5.26h7V15.49h16.55v6.62H973.69V34.29h20V41H971q-7.26,15-15.27,23.24a211.29,211.29,0,0,0,25.72-4.63,118.74,118.74,0,0,0-6.92-10.75l6.54-3A153.55,153.55,0,0,1,994.48,69.29Z"/><path d="M1078.92,67.3l-4.44,5.64q-22.47-17-29.58-35.76-5.57,21-29.48,35.35l-4.63-5.61q30.35-18.9,30.35-49.36V5.26h7.29V21.09q0,12.56,8.4,24.61A87.81,87.81,0,0,0,1078.92,67.3Z"/><path d="M161.15,236.44a21.66,21.66,0,0,0,9.53,2.26c4.62,0,7.2-1.95,7.2-4.84,0-2.69-2-4.26-7-5.9-6.5-2.1-10.65-5.21-10.65-10.31,0-5.8,5.38-10.22,13.92-10.22a22.73,22.73,0,0,1,9.48,1.79l-1.75,5.21a18.31,18.31,0,0,0-7.84-1.68c-4.57,0-6.55,2.21-6.55,4.26,0,2.74,2.28,4,7.54,5.85,6.85,2.31,10.18,5.42,10.18,10.53,0,5.68-4.8,10.63-15,10.63a25.49,25.49,0,0,1-10.64-2.21Z"/><path d="M199.64,210.54v7.32h6.84v4.84h-6.84V234c0,3.1.94,4.73,3.69,4.73a11.65,11.65,0,0,0,2.8-.31l.12,4.95A17.38,17.38,0,0,1,201,244a8.85,8.85,0,0,1-6.2-2.11c-1.52-1.47-2.22-3.79-2.22-7.16V222.7h-4.1v-4.84h4.1v-5.8Z"/><path d="M211.05,239.91a4.16,4.16,0,0,1,4.44-4.16,4.17,4.17,0,1,1,0,8.32A4.16,4.16,0,0,1,211.05,239.91Z"/><path d="M246,208h7.2v23c0,9.79-5.27,13-13.11,13a20.94,20.94,0,0,1-6-.84l.87-5.21a17.62,17.62,0,0,0,4.45.63c4.1,0,6.61-1.68,6.61-7.84Z"/><path d="M287.86,230.44c0,9.42-7.37,13.63-14.63,13.63-8.07,0-14.27-5-14.27-13.21,0-8.42,6.14-13.58,14.74-13.58S287.86,222.65,287.86,230.44Zm-21.47.26c0,5,2.69,8.69,7.08,8.69,4.09,0,7-3.64,7-8.79,0-4-2-8.59-6.91-8.59C268.43,222,266.39,226.44,266.39,230.7Z"/><path d="M293.41,237.54a17.36,17.36,0,0,0,7.32,1.85c3.16,0,4.56-1.16,4.56-2.85s-1.17-2.63-4.68-3.73c-5.56-1.74-7.9-4.48-7.84-7.48,0-4.53,4.15-8.05,10.76-8.05a18.3,18.3,0,0,1,7.55,1.52l-1.4,4.58a13.92,13.92,0,0,0-6-1.47c-2.57,0-4,1.1-4,2.68s1.35,2.43,5,3.58c5.14,1.69,7.54,4.06,7.6,7.85,0,4.63-4,8-11.58,8a20.13,20.13,0,0,1-8.66-1.79Z"/><path d="M323.25,232.49c.17,4.63,4.21,6.63,8.77,6.63a23.74,23.74,0,0,0,7.9-1.15l1.05,4.47A29.57,29.57,0,0,1,331,244c-9.24,0-14.69-5.11-14.69-13,0-7.11,4.8-13.79,13.93-13.79s12.28,6.84,12.28,12.47a14.25,14.25,0,0,1-.23,2.74ZM335.77,228c.06-2.37-1.11-6.26-5.91-6.26-4.45,0-6.32,3.63-6.61,6.26Z"/><path d="M348.34,226.38c0-3.37-.11-6.1-.23-8.52h6.32l.35,3.94h.12c2.1-2.89,5.44-4.52,9.77-4.52,6.55,0,12,5.05,12,13.05,0,9.27-6.49,13.74-13,13.74-3.57,0-6.55-1.37-8-3.42h-.12v13.27h-7.2Zm7.2,6.37a6.19,6.19,0,0,0,.23,1.79,6.4,6.4,0,0,0,6.32,4.53c4.57,0,7.26-3.42,7.26-8.47,0-4.53-2.46-8.22-7.08-8.22a6.57,6.57,0,0,0-6.44,4.79,5.55,5.55,0,0,0-.29,1.64Z"/><path d="M382.57,206.12h7.25v15.26h.12a9.16,9.16,0,0,1,3.57-2.94,10.56,10.56,0,0,1,4.91-1.16c4.86,0,9.95,2.89,9.95,11.1v15.11h-7.2V229.12c0-3.74-1.52-6.53-5.5-6.53a5.84,5.84,0,0,0-5.56,3.64,5,5,0,0,0-.29,1.94v15.32h-7.25Z"/><path d="M424.63,207.43a60.16,60.16,0,0,1-6.32,13.48l-4.39.37a72.33,72.33,0,0,0,3.75-13.37Z"/><path d="M429.48,237.54a17.35,17.35,0,0,0,7.31,1.85c3.16,0,4.57-1.16,4.57-2.85s-1.17-2.63-4.68-3.73c-5.56-1.74-7.9-4.48-7.84-7.48,0-4.53,4.15-8.05,10.76-8.05a18.3,18.3,0,0,1,7.55,1.52l-1.4,4.58a13.92,13.92,0,0,0-6-1.47c-2.57,0-4,1.1-4,2.68s1.35,2.43,5,3.58c5.15,1.69,7.55,4.06,7.61,7.85,0,4.63-4,8-11.58,8a20.1,20.1,0,0,1-8.66-1.79Z"/><path d="M473.82,208v14.22H490.5V208h7.19v35.48H490.5V227.86H473.82v15.63h-7.19V208Z"/><path d="M532.73,230.44c0,9.42-7.37,13.63-14.62,13.63-8.07,0-14.28-5-14.28-13.21,0-8.42,6.15-13.58,14.75-13.58S532.73,222.65,532.73,230.44Zm-21.47.26c0,5,2.69,8.69,7.08,8.69,4.1,0,7-3.64,7-8.79,0-4-2-8.59-6.9-8.59C513.31,222,511.26,226.44,511.26,230.7Z"/><path d="M538.29,237.54a17.35,17.35,0,0,0,7.31,1.85c3.16,0,4.57-1.16,4.57-2.85s-1.17-2.63-4.68-3.73c-5.56-1.74-7.9-4.48-7.84-7.48,0-4.53,4.15-8.05,10.76-8.05A18.3,18.3,0,0,1,556,218.8l-1.41,4.58a13.87,13.87,0,0,0-6-1.47c-2.58,0-4,1.1-4,2.68s1.35,2.43,5,3.58c5.15,1.69,7.55,4.06,7.61,7.85,0,4.63-4,8-11.59,8a20.05,20.05,0,0,1-8.65-1.79Z"/><path d="M563,226.38c0-3.37-.12-6.1-.24-8.52h6.32l.35,3.94h.12c2.1-2.89,5.44-4.52,9.77-4.52,6.55,0,12,5.05,12,13.05,0,9.27-6.49,13.74-13,13.74-3.57,0-6.55-1.37-8-3.42h-.12v13.27H563Zm7.19,6.37a5.87,5.87,0,0,0,.24,1.79,6.38,6.38,0,0,0,6.31,4.53c4.57,0,7.26-3.42,7.26-8.47,0-4.53-2.46-8.22-7.08-8.22a6.59,6.59,0,0,0-6.44,4.79,5.55,5.55,0,0,0-.29,1.64Z"/><path d="M604.92,210.7c0,1.94-1.58,3.47-4.09,3.47s-4-1.53-4-3.47,1.64-3.53,4-3.53S604.86,208.7,604.92,210.7Zm-7.66,32.79V217.86h7.25v25.63Z"/><path d="M620.48,210.54v7.32h6.85v4.84h-6.85V234c0,3.1.94,4.73,3.69,4.73a11.75,11.75,0,0,0,2.81-.31l.11,4.95a17.35,17.35,0,0,1-5.2.63,8.86,8.86,0,0,1-6.21-2.11c-1.52-1.47-2.22-3.79-2.22-7.16V222.7h-4.09v-4.84h4.09v-5.8Z"/><path d="M648.8,243.49l-.47-2.84h-.18a11.09,11.09,0,0,1-8.42,3.42c-5.74,0-9-3.74-9-7.63,0-6.48,6.37-9.74,16.9-9.69v-.42c0-1.68-.76-4.47-5.79-4.47a16.42,16.42,0,0,0-7.66,1.89l-1.41-4.21a22.36,22.36,0,0,1,10.3-2.26c9.13,0,11.76,5.21,11.76,10.79v9.26a37.31,37.31,0,0,0,.41,6.16ZM647.86,231c-5.09-.1-10,.9-10,4.79,0,2.53,1.82,3.69,4.1,3.69a5.83,5.83,0,0,0,5.62-3.53,4.34,4.34,0,0,0,.23-1.42Z"/><path d="M662.48,206.12h7.26v37.37h-7.26Z"/><path d="M723.21,229c-.24-4.58-.53-10.11-.47-14.9h-.18c-1.28,4.32-2.92,9.11-4.68,13.58l-5.73,15.37h-5.56l-5.26-15.16c-1.52-4.53-2.93-9.37-4-13.79h-.12c-.17,4.63-.41,10.26-.7,15.11l-.88,14.26h-6.73L691.56,208H701l5.14,14.27c1.41,4.16,2.64,8.37,3.63,12.32H710c1-3.85,2.39-8.22,3.92-12.37L719.35,208h9.36L731,243.49h-7Z"/><path d="M743.1,232.49c.17,4.63,4.21,6.63,8.77,6.63a23.82,23.82,0,0,0,7.9-1.15l1.05,4.47a29.62,29.62,0,0,1-9.94,1.58c-9.25,0-14.69-5.11-14.69-13,0-7.11,4.8-13.79,13.93-13.79s12.28,6.84,12.28,12.47a15.12,15.12,0,0,1-.23,2.74ZM755.62,228c0-2.37-1.12-6.26-5.91-6.26-4.45,0-6.32,3.63-6.61,6.26Z"/><path d="M794.46,206.12v30.16c0,2.63.12,5.48.23,7.21h-6.43l-.3-4.05h-.11c-1.7,2.84-5.15,4.63-9.3,4.63-6.79,0-12.17-5.21-12.17-13.11-.06-8.58,5.91-13.68,12.75-13.68,3.92,0,6.73,1.47,8,3.37h.11V206.12Zm-7.2,22.42a8.7,8.7,0,0,0-.17-1.68,6.17,6.17,0,0,0-6.2-4.58c-4.63,0-7.2,3.68-7.2,8.47s2.57,8.11,7.14,8.11a6.23,6.23,0,0,0,6.2-4.58,6.71,6.71,0,0,0,.23-1.89Z"/><path d="M809.84,210.7c0,1.94-1.58,3.47-4.09,3.47s-4-1.53-4-3.47,1.64-3.53,4-3.53S809.79,208.7,809.84,210.7Zm-7.66,32.79V217.86h7.25v25.63Z"/><path d="M838.1,242.7A22.91,22.91,0,0,1,830,244c-8.9,0-14.69-5.11-14.69-13.06,0-7.68,5.85-13.68,15.86-13.68a19.59,19.59,0,0,1,7,1.21l-1.29,4.84a14,14,0,0,0-5.44-1c-5.5,0-8.77,3.63-8.72,8.32,0,5.26,3.81,8.26,8.72,8.26a15.39,15.39,0,0,0,5.68-1Z"/><path d="M859.45,243.49l-.47-2.84h-.17a11.11,11.11,0,0,1-8.43,3.42c-5.73,0-9-3.74-9-7.63,0-6.48,6.38-9.74,16.91-9.69v-.42c0-1.68-.76-4.47-5.79-4.47a16.46,16.46,0,0,0-7.67,1.89l-1.4-4.21a22.32,22.32,0,0,1,10.3-2.26c9.12,0,11.76,5.21,11.76,10.79v9.26a36.25,36.25,0,0,0,.41,6.16ZM858.52,231c-5.09-.1-9.95.9-9.95,4.79,0,2.53,1.81,3.69,4.09,3.69a5.82,5.82,0,0,0,5.62-3.53,4.11,4.11,0,0,0,.24-1.42Z"/><path d="M873.14,206.12h7.25v37.37h-7.25Z"/><path d="M900.57,208h7.2v30.06H924v5.42H900.57Z"/><path d="M936.79,210.7c0,1.94-1.58,3.47-4.1,3.47s-4-1.53-4-3.47,1.64-3.53,4-3.53S936.73,208.7,936.79,210.7Zm-7.67,32.79V217.86h7.26v25.63Z"/><path d="M943.86,243.49c.12-1.73.24-4.58.24-7.21V206.12h7.19v15.26h.12c1.75-2.47,4.86-4.1,9.13-4.1,7,0,11.93,5.21,11.87,13,0,9.21-6.49,13.79-12.93,13.79-3.68,0-7-1.26-9-4.42h-.11l-.35,3.84Zm7.43-10.58a6.35,6.35,0,0,0,.18,1.53,6.53,6.53,0,0,0,6.38,4.53c4.5,0,7.25-3.27,7.25-8.43,0-4.52-2.4-8.21-7.2-8.21a6.61,6.61,0,0,0-6.37,4.74,6.79,6.79,0,0,0-.24,1.68Z"/><path d="M978.32,226.12c0-3.47-.06-6-.23-8.26h6.26l.23,4.89h.23a8.43,8.43,0,0,1,7.78-5.47,8.74,8.74,0,0,1,1.7.15v6.11a11.48,11.48,0,0,0-2.1-.21,6.18,6.18,0,0,0-6.44,4.9,9.82,9.82,0,0,0-.23,2v13.26h-7.2Z"/><path d="M1015.17,243.49l-.46-2.84h-.18a11.09,11.09,0,0,1-8.42,3.42c-5.74,0-9-3.74-9-7.63,0-6.48,6.37-9.74,16.9-9.69v-.42c0-1.68-.76-4.47-5.79-4.47a16.42,16.42,0,0,0-7.66,1.89l-1.41-4.21a22.32,22.32,0,0,1,10.3-2.26c9.13,0,11.76,5.21,11.76,10.79v9.26a37.31,37.31,0,0,0,.41,6.16Zm-.93-12.53c-5.09-.1-10,.9-10,4.79,0,2.53,1.82,3.69,4.1,3.69a5.81,5.81,0,0,0,5.61-3.53,4.11,4.11,0,0,0,.24-1.42Z"/><path d="M1028.86,226.12c0-3.47-.06-6-.23-8.26h6.26l.23,4.89h.24a8.42,8.42,0,0,1,7.78-5.47,8.71,8.71,0,0,1,1.69.15v6.11a11.38,11.38,0,0,0-2.1-.21,6.2,6.2,0,0,0-6.44,4.9,10.58,10.58,0,0,0-.23,2v13.26h-7.2Z"/><path d="M1054.19,217.86l5.15,13.74c.59,1.57,1.17,3.52,1.58,5h.18c.46-1.48,1-3.37,1.52-5.06l4.44-13.68h7.73l-7.14,17.47c-3.92,9.58-6.55,13.85-10,16.48a15.26,15.26,0,0,1-7.54,3.32l-1.64-5.48a12.82,12.82,0,0,0,4.21-1.79,11.65,11.65,0,0,0,3.92-4.05,2.48,2.48,0,0,0,.47-1.16,2.55,2.55,0,0,0-.41-1.26l-10.42-23.53Z"/><line class="cls-2" x1="540.68" y1="93.41" x2="540.68" y2="185.48"/></svg>