<svg id="logo_影像" data-name="logo 影像" xmlns="http://www.w3.org/2000/svg" viewBox="0 0 740.74 68.58"><defs><style>.cls-1{fill:#fff;}.cls-2{fill:#018a4d;}.cls-3{fill:#066f9f;}.cls-4{fill:#fcdc21;}.cls-5{fill:none;stroke:#000;stroke-miterlimit:10;stroke-width:2px;}</style></defs><title>logo_library</title><path d="M131.11,64.17V54.43h1.32l5.11,7.65V54.43h1.24v9.74h-1.32l-5.12-7.65v7.65Z"/><path d="M145.39,63.3a4.41,4.41,0,0,1-1.28.79,3.6,3.6,0,0,1-1.32.24,2.54,2.54,0,0,1-1.78-.57,1.86,1.86,0,0,1-.63-1.45,1.92,1.92,0,0,1,.24-1,2.06,2.06,0,0,1,.62-.69,2.94,2.94,0,0,1,.86-.39,8.94,8.94,0,0,1,1.06-.18,10.65,10.65,0,0,0,2.13-.41c0-.16,0-.27,0-.31a1.34,1.34,0,0,0-.34-1,2,2,0,0,0-1.36-.4,2.12,2.12,0,0,0-1.25.29,1.82,1.82,0,0,0-.59,1l-1.17-.16a2.94,2.94,0,0,1,.52-1.21,2.38,2.38,0,0,1,1.06-.72,4.85,4.85,0,0,1,1.6-.24,4.32,4.32,0,0,1,1.47.21,1.65,1.65,0,0,1,1.2,1.35,6.65,6.65,0,0,1,.06,1.1v1.59a15,15,0,0,0,.08,2.11,2.62,2.62,0,0,0,.3.85h-1.25A2.77,2.77,0,0,1,145.39,63.3Zm-.1-2.67a8.31,8.31,0,0,1-1.95.45,4.33,4.33,0,0,0-1,.24,1,1,0,0,0-.48.39,1.07,1.07,0,0,0,.2,1.36,1.56,1.56,0,0,0,1.06.32,2.49,2.49,0,0,0,1.23-.3,1.86,1.86,0,0,0,.79-.83,2.86,2.86,0,0,0,.19-1.19Z"/><path d="M151,63.1l.17,1.05a3.8,3.8,0,0,1-.9.11,2,2,0,0,1-1-.21,1,1,0,0,1-.5-.54,4.14,4.14,0,0,1-.15-1.41V58h-.88v-.92h.88V55.37l1.19-.72v2.47H151V58h-1.2v4.13a2.22,2.22,0,0,0,.06.66.51.51,0,0,0,.21.23.76.76,0,0,0,.41.09A4.21,4.21,0,0,0,151,63.1Z"/><path d="M152.14,55.81V54.43h1.19v1.38Zm0,8.36V57.12h1.19v7.05Z"/><path d="M154.71,60.64a3.63,3.63,0,0,1,1.09-2.9A3.26,3.26,0,0,1,158,57a3.14,3.14,0,0,1,2.38.95,3.59,3.59,0,0,1,.92,2.63,4.69,4.69,0,0,1-.4,2.14,3,3,0,0,1-1.19,1.22,3.56,3.56,0,0,1-1.71.43,3.19,3.19,0,0,1-2.39-.95A3.81,3.81,0,0,1,154.71,60.64Zm1.23,0a3,3,0,0,0,.59,2,1.88,1.88,0,0,0,1.48.67,1.9,1.9,0,0,0,1.49-.67,3.1,3.1,0,0,0,.59-2.07,2.89,2.89,0,0,0-.6-2,2,2,0,0,0-3,0A2.94,2.94,0,0,0,155.94,60.64Z"/><path d="M162.72,64.17V57.12h1.07v1A2.53,2.53,0,0,1,166,57a2.84,2.84,0,0,1,1.17.23,1.86,1.86,0,0,1,.8.6,2.19,2.19,0,0,1,.37.88,6.18,6.18,0,0,1,.07,1.16v4.34h-1.2V59.88a3.12,3.12,0,0,0-.14-1.1,1.13,1.13,0,0,0-.49-.57,1.55,1.55,0,0,0-.84-.22,1.89,1.89,0,0,0-1.31.49,2.38,2.38,0,0,0-.56,1.84v3.85Z"/><path d="M174.88,63.3a4.41,4.41,0,0,1-1.28.79,3.58,3.58,0,0,1-1.31.24,2.55,2.55,0,0,1-1.79-.57,1.86,1.86,0,0,1-.63-1.45,1.92,1.92,0,0,1,.24-1,2.06,2.06,0,0,1,.62-.69,2.94,2.94,0,0,1,.86-.39,9.34,9.34,0,0,1,1.06-.18,10.35,10.35,0,0,0,2.13-.41c0-.16,0-.27,0-.31a1.3,1.3,0,0,0-.34-1,2,2,0,0,0-1.36-.4,2.12,2.12,0,0,0-1.25.29,1.88,1.88,0,0,0-.59,1l-1.17-.16a2.94,2.94,0,0,1,.52-1.21,2.38,2.38,0,0,1,1.06-.72,4.85,4.85,0,0,1,1.6-.24,4.32,4.32,0,0,1,1.47.21,2,2,0,0,1,.83.53,1.88,1.88,0,0,1,.37.82,6.65,6.65,0,0,1,.06,1.1v1.59a16.81,16.81,0,0,0,.08,2.11,2.62,2.62,0,0,0,.3.85h-1.25A2.77,2.77,0,0,1,174.88,63.3Zm-.1-2.67a8.31,8.31,0,0,1-1.95.45,4.33,4.33,0,0,0-1,.24,1,1,0,0,0-.47.39,1,1,0,0,0-.17.57,1,1,0,0,0,.36.79,1.58,1.58,0,0,0,1.06.32,2.49,2.49,0,0,0,1.23-.3,1.86,1.86,0,0,0,.79-.83,2.86,2.86,0,0,0,.19-1.19Z"/><path d="M177.82,64.17V54.43H179v9.74Z"/><path d="M184.8,64.17V54.43h3.67a8,8,0,0,1,1.48.1,3,3,0,0,1,1.2.45,2.43,2.43,0,0,1,.78.94,3,3,0,0,1,.3,1.33,3,3,0,0,1-.79,2.1,3.82,3.82,0,0,1-2.86.86h-2.5v4Zm1.28-5.11h2.52a2.67,2.67,0,0,0,1.77-.46,1.67,1.67,0,0,0,.53-1.31,1.74,1.74,0,0,0-.31-1,1.45,1.45,0,0,0-.81-.57,5.36,5.36,0,0,0-1.21-.09h-2.49Z"/><path d="M193.72,55.81V54.43h1.2v1.38Zm0,8.36V57.12h1.2v7.05Z"/><path d="M196.74,64.17V57.12h1.07v1A2.53,2.53,0,0,1,200.06,57a2.84,2.84,0,0,1,1.17.23,1.86,1.86,0,0,1,.8.6,2.19,2.19,0,0,1,.37.88,7.2,7.2,0,0,1,.07,1.16v4.34h-1.2V59.88a3.37,3.37,0,0,0-.14-1.1,1.13,1.13,0,0,0-.49-.57,1.55,1.55,0,0,0-.84-.22,1.87,1.87,0,0,0-1.31.49,2.38,2.38,0,0,0-.56,1.84v3.85Z"/><path d="M204.08,64.75l1.16.17a1.15,1.15,0,0,0,.41.79,2,2,0,0,0,1.21.33,2.12,2.12,0,0,0,1.28-.33,1.66,1.66,0,0,0,.62-.93,7.63,7.63,0,0,0,.08-1.54,2.44,2.44,0,0,1-2,.93,2.66,2.66,0,0,1-2.25-1.05,4.06,4.06,0,0,1-.8-2.52,4.58,4.58,0,0,1,.37-1.86A2.76,2.76,0,0,1,206.9,57a2.5,2.5,0,0,1,2,1v-.85h1.11v6.09a5.86,5.86,0,0,1-.34,2.34,2.45,2.45,0,0,1-1.06,1.08,3.64,3.64,0,0,1-1.79.4,3.38,3.38,0,0,1-2-.57A1.91,1.91,0,0,1,204.08,64.75Zm1-4.23a3,3,0,0,0,.55,2,1.81,1.81,0,0,0,2.76,0,2.89,2.89,0,0,0,.56-2,2.92,2.92,0,0,0-.57-2A1.78,1.78,0,0,0,207,58a1.71,1.71,0,0,0-1.35.64A2.92,2.92,0,0,0,205.07,60.52Z"/><path d="M214.47,63.1l.18,1.05a3.94,3.94,0,0,1-.91.11,2,2,0,0,1-1-.21,1.09,1.09,0,0,1-.5-.54,4.14,4.14,0,0,1-.15-1.41V58h-.87v-.92h.87V55.37l1.19-.72v2.47h1.2V58h-1.2v4.13a2.22,2.22,0,0,0,.06.66.58.58,0,0,0,.21.23.76.76,0,0,0,.41.09A4,4,0,0,0,214.47,63.1Z"/><path d="M220.26,64.17v-1a2.56,2.56,0,0,1-2.23,1.2,2.85,2.85,0,0,1-1.17-.24,1.9,1.9,0,0,1-.8-.6,2.18,2.18,0,0,1-.37-.89,6,6,0,0,1-.07-1.11V57.12h1.19V61a8.08,8.08,0,0,0,.07,1.26,1.3,1.3,0,0,0,.48.74,1.48,1.48,0,0,0,.9.27,1.9,1.9,0,0,0,1-.28,1.48,1.48,0,0,0,.67-.75,3.76,3.76,0,0,0,.2-1.38V57.12h1.19v7.05Z"/><path d="M223.21,64.17V57.12h1.07v1A2.53,2.53,0,0,1,226.53,57a2.84,2.84,0,0,1,1.17.23,1.86,1.86,0,0,1,.8.6,2.19,2.19,0,0,1,.37.88,7.2,7.2,0,0,1,.07,1.16v4.34h-1.2V59.88a3.37,3.37,0,0,0-.14-1.1,1.13,1.13,0,0,0-.49-.57,1.55,1.55,0,0,0-.84-.22,1.87,1.87,0,0,0-1.31.49,2.38,2.38,0,0,0-.56,1.84v3.85Z"/><path d="M230.55,64.75l1.16.17a1.15,1.15,0,0,0,.41.79,2,2,0,0,0,1.21.33,2.14,2.14,0,0,0,1.28-.33,1.6,1.6,0,0,0,.61-.93,6.72,6.72,0,0,0,.09-1.54,2.44,2.44,0,0,1-1.95.93,2.66,2.66,0,0,1-2.25-1.05,4.06,4.06,0,0,1-.8-2.52,4.58,4.58,0,0,1,.37-1.86A2.76,2.76,0,0,1,233.37,57a2.5,2.5,0,0,1,2,1v-.85h1.11v6.09a5.86,5.86,0,0,1-.34,2.34,2.45,2.45,0,0,1-1.06,1.08,3.64,3.64,0,0,1-1.79.4,3.38,3.38,0,0,1-2-.57A1.91,1.91,0,0,1,230.55,64.75Zm1-4.23a3,3,0,0,0,.55,2,1.81,1.81,0,0,0,2.76,0,3.72,3.72,0,0,0,0-3.94,1.78,1.78,0,0,0-1.39-.65,1.71,1.71,0,0,0-1.35.64A2.87,2.87,0,0,0,231.54,60.52Z"/><path d="M248.65,54.43h1.29v5.63a6.74,6.74,0,0,1-.33,2.33,2.84,2.84,0,0,1-1.2,1.4,4.26,4.26,0,0,1-2.27.54,4.6,4.6,0,0,1-2.24-.47,2.65,2.65,0,0,1-1.24-1.36,6.46,6.46,0,0,1-.38-2.44V54.43h1.29v5.62a5.37,5.37,0,0,0,.24,1.87,1.84,1.84,0,0,0,.81.93,2.87,2.87,0,0,0,1.4.32,2.69,2.69,0,0,0,2-.64,3.75,3.75,0,0,0,.6-2.48Z"/><path d="M251.93,64.17V57.12H253v1A2.51,2.51,0,0,1,255.25,57a2.86,2.86,0,0,1,1.18.23,1.86,1.86,0,0,1,.8.6,2.34,2.34,0,0,1,.37.88,7.55,7.55,0,0,1,.06,1.16v4.34h-1.19V59.88a3.37,3.37,0,0,0-.14-1.1,1.11,1.11,0,0,0-.5-.57A1.49,1.49,0,0,0,255,58a1.91,1.91,0,0,0-1.32.49,2.38,2.38,0,0,0-.55,1.84v3.85Z"/><path d="M259.5,55.81V54.43h1.2v1.38Zm0,8.36V57.12h1.2v7.05Z"/><path d="M264.48,64.17l-2.69-7.05h1.27l1.51,4.22c.16.45.31.93.45,1.42.11-.37.26-.82.45-1.34l1.56-4.3h1.23l-2.67,7.05Z"/><path d="M274.15,61.9l1.23.15a3,3,0,0,1-1.08,1.68,3.25,3.25,0,0,1-2,.6,3.2,3.2,0,0,1-2.45-1,3.68,3.68,0,0,1-.91-2.67,3.85,3.85,0,0,1,.92-2.76,3.07,3.07,0,0,1,2.37-1,3,3,0,0,1,2.31,1,3.81,3.81,0,0,1,.9,2.71c0,.07,0,.18,0,.32h-5.26a2.77,2.77,0,0,0,.66,1.78,2,2,0,0,0,1.48.61,1.84,1.84,0,0,0,1.12-.34A2.37,2.37,0,0,0,274.15,61.9ZM270.22,60h3.94a2.35,2.35,0,0,0-.45-1.33,1.84,1.84,0,0,0-1.48-.69,1.91,1.91,0,0,0-1.39.55A2.21,2.21,0,0,0,270.22,60Z"/><path d="M276.87,64.17V57.12h1.07v1.06a2.86,2.86,0,0,1,.76-1,1.35,1.35,0,0,1,.77-.24,2.32,2.32,0,0,1,1.23.38l-.41,1.11a1.75,1.75,0,0,0-.88-.26,1.12,1.12,0,0,0-.7.24,1.24,1.24,0,0,0-.45.65,4.78,4.78,0,0,0-.2,1.4v3.69Z"/><path d="M280.93,62.06l1.18-.18a1.72,1.72,0,0,0,.56,1.09,1.94,1.94,0,0,0,1.27.37,1.87,1.87,0,0,0,1.22-.33,1,1,0,0,0,.4-.79.74.74,0,0,0-.35-.64,5.31,5.31,0,0,0-1.22-.4,11.36,11.36,0,0,1-1.83-.57,1.89,1.89,0,0,1-.77-.68,1.8,1.8,0,0,1-.26-.94,1.71,1.71,0,0,1,.22-.87,1.88,1.88,0,0,1,.58-.67,2.3,2.3,0,0,1,.77-.35,3.42,3.42,0,0,1,1-.14,4.1,4.1,0,0,1,1.46.24,2,2,0,0,1,.92.64,2.51,2.51,0,0,1,.41,1.1l-1.17.15a1.26,1.26,0,0,0-.46-.85,1.69,1.69,0,0,0-1.08-.3,1.94,1.94,0,0,0-1.17.27.78.78,0,0,0-.35.64.73.73,0,0,0,.14.42,1.1,1.1,0,0,0,.46.32l1.06.3a14.79,14.79,0,0,1,1.77.56,1.68,1.68,0,0,1,1.07,1.65,2,2,0,0,1-.35,1.12,2.24,2.24,0,0,1-1,.82,3.65,3.65,0,0,1-1.48.29,3.33,3.33,0,0,1-2.1-.57A2.68,2.68,0,0,1,280.93,62.06Z"/><path d="M288.22,55.81V54.43h1.19v1.38Zm0,8.36V57.12h1.19v7.05Z"/><path d="M293.84,63.1l.17,1.05a3.8,3.8,0,0,1-.9.11,2,2,0,0,1-1-.21,1,1,0,0,1-.5-.54,4.14,4.14,0,0,1-.15-1.41V58h-.88v-.92h.88V55.37l1.19-.72v2.47h1.2V58h-1.2v4.13a2.22,2.22,0,0,0,.06.66.51.51,0,0,0,.21.23.76.76,0,0,0,.41.09A4.21,4.21,0,0,0,293.84,63.1Z"/><path d="M295,66.88l-.14-1.12a2.79,2.79,0,0,0,.69.11,1.45,1.45,0,0,0,.64-.13,1.18,1.18,0,0,0,.39-.38,6.66,6.66,0,0,0,.36-.89c0-.06.06-.16.11-.29l-2.68-7.06h1.29l1.47,4.08c.19.52.36,1.06.51,1.63a16.5,16.5,0,0,1,.49-1.6l1.51-4.11h1.19l-2.68,7.17a14.63,14.63,0,0,1-.67,1.6,2.35,2.35,0,0,1-.73.86,1.66,1.66,0,0,1-1,.28A2.32,2.32,0,0,1,295,66.88Z"/><path d="M305.14,60.64a3.66,3.66,0,0,1,1.09-2.9,3.31,3.31,0,0,1,2.22-.78,3.16,3.16,0,0,1,2.38.95,3.63,3.63,0,0,1,.92,2.63,4.55,4.55,0,0,1-.41,2.14,2.86,2.86,0,0,1-1.19,1.22,3.52,3.52,0,0,1-1.7.43,3.17,3.17,0,0,1-2.39-.95A3.81,3.81,0,0,1,305.14,60.64Zm1.23,0a3,3,0,0,0,.59,2,1.9,1.9,0,0,0,1.49.67,1.88,1.88,0,0,0,1.48-.67,3,3,0,0,0,.59-2.07,2.94,2.94,0,0,0-.59-2,2,2,0,0,0-3,0A3,3,0,0,0,306.37,60.64Z"/><path d="M313.44,64.17V58h-1.06v-.92h1.06v-.75a3.45,3.45,0,0,1,.12-1.06,1.54,1.54,0,0,1,.61-.75,2.14,2.14,0,0,1,1.22-.29,5.86,5.86,0,0,1,1.12.12l-.18,1a3.63,3.63,0,0,0-.71-.07,1.07,1.07,0,0,0-.77.23,1.28,1.28,0,0,0-.22.87v.66H316V58h-1.37v6.13Z"/><path d="M320.42,61l1.22-.11a2.7,2.7,0,0,0,.4,1.2,2.14,2.14,0,0,0,1,.76,3.74,3.74,0,0,0,1.49.29,3.53,3.53,0,0,0,1.31-.22,1.94,1.94,0,0,0,.84-.6,1.42,1.42,0,0,0,.27-.83,1.33,1.33,0,0,0-.26-.81,2,2,0,0,0-.88-.57,16.88,16.88,0,0,0-1.73-.47,9.08,9.08,0,0,1-1.88-.61,2.68,2.68,0,0,1-1-.91A2.19,2.19,0,0,1,320.8,57a2.47,2.47,0,0,1,.41-1.38,2.57,2.57,0,0,1,1.23-1,4.63,4.63,0,0,1,1.78-.33,4.75,4.75,0,0,1,1.91.35,2.71,2.71,0,0,1,1.27,1,2.89,2.89,0,0,1,.48,1.54l-1.23.09a2,2,0,0,0-.68-1.4,2.64,2.64,0,0,0-1.69-.47,2.72,2.72,0,0,0-1.71.43,1.3,1.3,0,0,0-.53,1,1.1,1.1,0,0,0,.38.87,5.21,5.21,0,0,0,1.94.69,12.72,12.72,0,0,1,2.15.62,2.94,2.94,0,0,1,1.26,1,2.46,2.46,0,0,1,.4,1.39,2.68,2.68,0,0,1-.44,1.46A2.89,2.89,0,0,1,326.45,64a4.39,4.39,0,0,1-1.88.38,5.69,5.69,0,0,1-2.21-.38,3.08,3.08,0,0,1-1.4-1.16A3.31,3.31,0,0,1,320.42,61Z"/><path d="M334.38,61.58l1.18.16a3.05,3.05,0,0,1-1,1.9,2.87,2.87,0,0,1-1.95.69,3,3,0,0,1-2.32-.95,3.81,3.81,0,0,1-.88-2.71,5,5,0,0,1,.37-2A2.71,2.71,0,0,1,331,57.38a3.43,3.43,0,0,1,1.68-.42,2.93,2.93,0,0,1,1.88.58,2.57,2.57,0,0,1,.93,1.65l-1.16.18a1.91,1.91,0,0,0-.58-1.07,1.55,1.55,0,0,0-1-.36,1.82,1.82,0,0,0-1.47.65,3,3,0,0,0-.57,2,3.2,3.2,0,0,0,.55,2.07,1.75,1.75,0,0,0,1.42.64,1.64,1.64,0,0,0,1.17-.43A2.1,2.1,0,0,0,334.38,61.58Z"/><path d="M336.59,55.81V54.43h1.19v1.38Zm0,8.36V57.12h1.19v7.05Z"/><path d="M344.43,61.9l1.23.15a3,3,0,0,1-1.08,1.68,3.25,3.25,0,0,1-2,.6,3.2,3.2,0,0,1-2.45-1,3.72,3.72,0,0,1-.91-2.67,3.9,3.9,0,0,1,.92-2.76,3.08,3.08,0,0,1,2.38-1,3,3,0,0,1,2.31,1,3.8,3.8,0,0,1,.89,2.71V61h-5.26a2.67,2.67,0,0,0,.66,1.78,1.94,1.94,0,0,0,1.47.61,1.82,1.82,0,0,0,1.12-.34A2.3,2.3,0,0,0,344.43,61.9ZM340.51,60h3.93a2.35,2.35,0,0,0-.45-1.33,1.83,1.83,0,0,0-1.48-.69,1.87,1.87,0,0,0-1.38.55A2.16,2.16,0,0,0,340.51,60Z"/><path d="M347.17,64.17V57.12h1.07v1A2.53,2.53,0,0,1,350.49,57a2.84,2.84,0,0,1,1.17.23,1.86,1.86,0,0,1,.8.6,2.19,2.19,0,0,1,.37.88,6.18,6.18,0,0,1,.07,1.16v4.34h-1.2V59.88a3.12,3.12,0,0,0-.14-1.1,1.13,1.13,0,0,0-.49-.57,1.55,1.55,0,0,0-.84-.22,1.89,1.89,0,0,0-1.31.49,2.38,2.38,0,0,0-.56,1.84v3.85Z"/><path d="M359.33,61.58l1.18.16a3.05,3.05,0,0,1-1,1.9,2.87,2.87,0,0,1-1.95.69,3.05,3.05,0,0,1-2.33-.95,3.86,3.86,0,0,1-.88-2.71,5,5,0,0,1,.38-2,2.74,2.74,0,0,1,1.15-1.29,3.5,3.5,0,0,1,1.69-.42,2.93,2.93,0,0,1,1.88.58,2.62,2.62,0,0,1,.93,1.65l-1.16.18a1.86,1.86,0,0,0-.59-1.07,1.51,1.51,0,0,0-1-.36,1.82,1.82,0,0,0-1.47.65,3,3,0,0,0-.57,2,3.15,3.15,0,0,0,.55,2.07,1.75,1.75,0,0,0,1.42.64,1.64,1.64,0,0,0,1.17-.43A2.1,2.1,0,0,0,359.33,61.58Z"/><path d="M366.36,61.9l1.23.15a3,3,0,0,1-1.08,1.68,3.25,3.25,0,0,1-2,.6,3.2,3.2,0,0,1-2.45-1,3.68,3.68,0,0,1-.91-2.67,3.9,3.9,0,0,1,.92-2.76,3.08,3.08,0,0,1,2.38-1,3,3,0,0,1,2.31,1,3.85,3.85,0,0,1,.89,2.71V61h-5.26a2.71,2.71,0,0,0,.65,1.78,2,2,0,0,0,1.48.61,1.82,1.82,0,0,0,1.12-.34A2.3,2.3,0,0,0,366.36,61.9ZM362.43,60h3.94a2.35,2.35,0,0,0-.45-1.33,1.84,1.84,0,0,0-1.48-.69,1.91,1.91,0,0,0-1.39.55A2.21,2.21,0,0,0,362.43,60Z"/><path d="M377.47,63.3a4.41,4.41,0,0,1-1.28.79,3.51,3.51,0,0,1-1.31.24,2.57,2.57,0,0,1-1.79-.57,1.86,1.86,0,0,1-.62-1.45,2,2,0,0,1,.23-1,2.06,2.06,0,0,1,.62-.69,2.94,2.94,0,0,1,.86-.39,9.34,9.34,0,0,1,1.06-.18,10.35,10.35,0,0,0,2.13-.41c0-.16,0-.27,0-.31a1.3,1.3,0,0,0-.34-1,2,2,0,0,0-1.36-.4,2.12,2.12,0,0,0-1.25.29,1.88,1.88,0,0,0-.59,1l-1.17-.16a2.82,2.82,0,0,1,.53-1.21,2.29,2.29,0,0,1,1.05-.72,4.89,4.89,0,0,1,1.6-.24,4.28,4.28,0,0,1,1.47.21,2,2,0,0,1,.83.53,1.88,1.88,0,0,1,.37.82,6.65,6.65,0,0,1,.06,1.1v1.59a16.81,16.81,0,0,0,.08,2.11,2.62,2.62,0,0,0,.3.85h-1.25A2.77,2.77,0,0,1,377.47,63.3Zm-.1-2.67a8.31,8.31,0,0,1-1.95.45,4.33,4.33,0,0,0-1,.24,1.07,1.07,0,0,0-.47.39,1,1,0,0,0-.17.57,1,1,0,0,0,.36.79,1.58,1.58,0,0,0,1.06.32,2.49,2.49,0,0,0,1.23-.3,1.86,1.86,0,0,0,.79-.83,2.86,2.86,0,0,0,.19-1.19Z"/><path d="M380.44,64.17V57.12h1.07v1A2.53,2.53,0,0,1,383.76,57a2.84,2.84,0,0,1,1.17.23,1.86,1.86,0,0,1,.8.6,2.19,2.19,0,0,1,.37.88,7.2,7.2,0,0,1,.07,1.16v4.34H385V59.88a3.12,3.12,0,0,0-.14-1.1,1.13,1.13,0,0,0-.49-.57,1.55,1.55,0,0,0-.84-.22,1.87,1.87,0,0,0-1.31.49,2.38,2.38,0,0,0-.56,1.84v3.85Z"/><path d="M392.57,64.17v-.89a2.18,2.18,0,0,1-2,1,2.77,2.77,0,0,1-1.55-.47,3,3,0,0,1-1.09-1.3,4.43,4.43,0,0,1-.39-1.91,4.94,4.94,0,0,1,.35-1.92A2.79,2.79,0,0,1,389,57.41a2.83,2.83,0,0,1,1.57-.45,2.44,2.44,0,0,1,1.13.26,2.36,2.36,0,0,1,.82.71v-3.5h1.18v9.74Zm-3.77-3.52a3,3,0,0,0,.57,2,1.71,1.71,0,0,0,1.35.67,1.69,1.69,0,0,0,1.33-.64,3,3,0,0,0,.54-2,3.33,3.33,0,0,0-.55-2.13,1.71,1.71,0,0,0-1.38-.67,1.64,1.64,0,0,0-1.33.65A3.17,3.17,0,0,0,388.8,60.65Z"/><path d="M401.73,64.17V55.58h-3.21V54.43h7.71v1.15H403v8.59Z"/><path d="M410.72,61.9l1.24.15a3.09,3.09,0,0,1-1.08,1.68,3.66,3.66,0,0,1-4.48-.36,3.72,3.72,0,0,1-.9-2.67,3.89,3.89,0,0,1,.91-2.76,3.09,3.09,0,0,1,2.38-1,3,3,0,0,1,2.31,1,3.81,3.81,0,0,1,.9,2.71c0,.07,0,.18,0,.32h-5.26a2.77,2.77,0,0,0,.66,1.78,2,2,0,0,0,1.47.61A1.85,1.85,0,0,0,410,63,2.29,2.29,0,0,0,410.72,61.9ZM406.8,60h3.94a2.51,2.51,0,0,0-.45-1.33,1.86,1.86,0,0,0-1.49-.69,1.89,1.89,0,0,0-1.38.55A2.21,2.21,0,0,0,406.8,60Z"/><path d="M418.06,61.58l1.18.16a3.05,3.05,0,0,1-1,1.9,2.87,2.87,0,0,1-1.95.69,3.05,3.05,0,0,1-2.33-.95,3.86,3.86,0,0,1-.88-2.71,5,5,0,0,1,.38-2,2.69,2.69,0,0,1,1.15-1.29,3.5,3.5,0,0,1,1.69-.42,2.93,2.93,0,0,1,1.88.58,2.62,2.62,0,0,1,.93,1.65l-1.16.18a1.92,1.92,0,0,0-.59-1.07,1.51,1.51,0,0,0-1-.36,1.81,1.81,0,0,0-1.46.65,3,3,0,0,0-.57,2,3.15,3.15,0,0,0,.55,2.07,1.75,1.75,0,0,0,1.42.64,1.64,1.64,0,0,0,1.17-.43A2.1,2.1,0,0,0,418.06,61.58Z"/><path d="M420.26,64.17V54.43h1.19v3.5a2.68,2.68,0,0,1,2.12-1,2.81,2.81,0,0,1,1.36.31,1.78,1.78,0,0,1,.82.85A3.85,3.85,0,0,1,426,59.7v4.47h-1.19V59.7a1.87,1.87,0,0,0-.39-1.31,1.46,1.46,0,0,0-1.1-.4,2,2,0,0,0-1,.27,1.62,1.62,0,0,0-.67.75,3.47,3.47,0,0,0-.2,1.3v3.86Z"/><path d="M427.82,64.17V57.12h1.08v1A2.51,2.51,0,0,1,431.14,57a2.78,2.78,0,0,1,1.17.23,1.83,1.83,0,0,1,.81.6,2.34,2.34,0,0,1,.37.88,7.55,7.55,0,0,1,.06,1.16v4.34h-1.19V59.88a3.37,3.37,0,0,0-.14-1.1,1.11,1.11,0,0,0-.5-.57,1.49,1.49,0,0,0-.83-.22,1.91,1.91,0,0,0-1.32.49,2.38,2.38,0,0,0-.55,1.84v3.85Z"/><path d="M434.94,60.64a3.63,3.63,0,0,1,1.09-2.9,3.31,3.31,0,0,1,2.22-.78,3.16,3.16,0,0,1,2.38.95,3.63,3.63,0,0,1,.92,2.63,4.68,4.68,0,0,1-.41,2.14A2.91,2.91,0,0,1,440,63.9a3.55,3.55,0,0,1-1.7.43,3.19,3.19,0,0,1-2.4-.95A3.85,3.85,0,0,1,434.94,60.64Zm1.23,0a3,3,0,0,0,.59,2,1.9,1.9,0,0,0,1.49.67,1.88,1.88,0,0,0,1.48-.67,3.1,3.1,0,0,0,.59-2.07,2.94,2.94,0,0,0-.59-2,2,2,0,0,0-3,0A3,3,0,0,0,436.17,60.64Z"/><path d="M442.92,64.17V54.43h1.2v9.74Z"/><path d="M445.53,60.64a3.63,3.63,0,0,1,1.09-2.9,3.26,3.26,0,0,1,2.21-.78,3.14,3.14,0,0,1,2.38.95,3.59,3.59,0,0,1,.92,2.63,4.69,4.69,0,0,1-.4,2.14,3,3,0,0,1-1.19,1.22,3.56,3.56,0,0,1-1.71.43,3.19,3.19,0,0,1-2.39-.95A3.81,3.81,0,0,1,445.53,60.64Zm1.23,0a3,3,0,0,0,.59,2,2,2,0,0,0,3,0,3,3,0,0,0,.6-2.07,2.89,2.89,0,0,0-.6-2,2,2,0,0,0-3,0A2.94,2.94,0,0,0,446.76,60.64Z"/><path d="M453.32,64.75l1.16.17a1.14,1.14,0,0,0,.4.79,2,2,0,0,0,1.22.33,2.14,2.14,0,0,0,1.28-.33,1.65,1.65,0,0,0,.61-.93,8.18,8.18,0,0,0,.09-1.54,2.47,2.47,0,0,1-1.95.93,2.69,2.69,0,0,1-2.26-1.05,4.05,4.05,0,0,1-.79-2.52,4.74,4.74,0,0,1,.36-1.86,3,3,0,0,1,1.06-1.32,2.86,2.86,0,0,1,1.63-.46,2.51,2.51,0,0,1,2.06,1v-.85h1.1v6.09a5.9,5.9,0,0,1-.33,2.34,2.48,2.48,0,0,1-1.07,1.08,3.6,3.6,0,0,1-1.78.4,3.34,3.34,0,0,1-2-.57A1.91,1.91,0,0,1,453.32,64.75Zm1-4.23a3,3,0,0,0,.55,2,1.72,1.72,0,0,0,1.38.64,1.74,1.74,0,0,0,1.38-.64,2.94,2.94,0,0,0,.56-2,2.87,2.87,0,0,0-.58-2,1.78,1.78,0,0,0-2.74,0A2.92,2.92,0,0,0,454.31,60.52Z"/><path d="M461.05,66.88l-.14-1.12a2.72,2.72,0,0,0,.69.11,1.38,1.38,0,0,0,.63-.13,1.21,1.21,0,0,0,.4-.38,6.66,6.66,0,0,0,.36-.89l.11-.29-2.68-7.06h1.29l1.47,4.08c.19.52.36,1.06.51,1.63a16.5,16.5,0,0,1,.49-1.6l1.51-4.11h1.19l-2.68,7.17a14.63,14.63,0,0,1-.67,1.6,2.35,2.35,0,0,1-.73.86,1.69,1.69,0,0,1-1,.28A2.32,2.32,0,0,1,461.05,66.88Z"/><g id="logo-bmp.psd"><path class="cls-1" d="M21.49,67.38a1.18,1.18,0,0,1,1.19-1.09,18.35,18.35,0,0,1,3.14-.15,5.46,5.46,0,0,0,4.57-2,2.39,2.39,0,0,1,1.47-.8,3.44,3.44,0,0,0,1.42-.45,3.86,3.86,0,0,1,2.19-.54,13.74,13.74,0,0,0,3.82-.56,11.89,11.89,0,0,1,2.81-.52c3.43-.08,6.86,0,10.29-.08a8.54,8.54,0,0,0,1.43-.13c.73-.12,1.46-.26,2.18-.44a2.81,2.81,0,0,1,1.41,0,2.06,2.06,0,0,0,.84.1,13,13,0,0,1,3.93.15c.81.07,1.6.26,2.41.3,1.25.06,2.5,0,3.74.06a8.54,8.54,0,0,1,3,.51A2.55,2.55,0,0,0,72,62c1.57.14,3.15.29,4.72.37a7.22,7.22,0,0,1,2.92.62,4,4,0,0,0,1.59.38c1.47.07,3,0,4.43.07a4,4,0,0,1,.92.13,49.46,49.46,0,0,0,4.95,1.18,10.38,10.38,0,0,1,3.52.93,2.43,2.43,0,0,0,2.14,0,6.4,6.4,0,0,0,3-2.35,2.15,2.15,0,0,1,1.66-1,6.28,6.28,0,0,0,1.88-.43,8.72,8.72,0,0,1,3-.76,3.58,3.58,0,0,0,1.16-.32c1-.46,2-1,3-1.46a20,20,0,0,1,2.61-1.33c.13,0,.21-.2.34-.27.82-.47,1.64-.94,2.47-1.4a1.94,1.94,0,0,1,.49-.11,7.61,7.61,0,0,0,1-.28.91.91,0,0,0,.36-1.54,1.56,1.56,0,0,0-.79-.44,23.47,23.47,0,0,0-2.34-.32,3.65,3.65,0,0,1-1.95-.64,2.93,2.93,0,0,0-1.8-.62,2.28,2.28,0,0,1-1.55-.66,2,2,0,0,0-.6-.38A8.9,8.9,0,0,1,105.93,49a8.09,8.09,0,0,0-2.42-2.1,5.63,5.63,0,0,0-1.18-.45,8.09,8.09,0,0,1-1.45-.35,6.41,6.41,0,0,0-2.9-.69,3.94,3.94,0,0,1-2.16-.42c-1-.65-2-1.32-3-2a2.24,2.24,0,0,0-1.27-.44A2.3,2.3,0,0,1,90,41.9a2.14,2.14,0,0,0-1.58-.56c-1,0-2.07.07-3.1,0a13.46,13.46,0,0,1-2.6-.44c-.85-.24-.91-.26-1.46.37-1.93,2.2-3.84,4.42-5.82,6.56A17.58,17.58,0,0,1,70.85,51a1.94,1.94,0,0,1-.69.17q-.68.09-1.35.12a45,45,0,0,0-5.56.6c-1.48.27-3,.38-4.48.62a3.42,3.42,0,0,1-2.84-.62,2.24,2.24,0,0,0-1.42-.41c-.5,0-1,0-1.49,0s-1.29-.09-1.93-.08-1.39.08-2.08.14a10.49,10.49,0,0,0-1,.25l.65.57a.86.86,0,0,1,0,1.46,2.05,2.05,0,0,1-1.26.46,12.18,12.18,0,0,1-3.56-.36,2.66,2.66,0,0,0-.56-.12c-1.22,0-2.44-.09-3.66-.09a2.8,2.8,0,0,0-1.19.21A4.14,4.14,0,0,1,35.1,54a1.62,1.62,0,0,0-1.74.34,2.35,2.35,0,0,1-2.36.46,5.9,5.9,0,0,1-1.25-.52,4.37,4.37,0,0,0-2.12-.57c-.88,0-1.77-.06-2.65-.15a3.92,3.92,0,0,1-2.32-.84,1.79,1.79,0,0,0-1.13-.38,2.93,2.93,0,0,1-2-.71,1.67,1.67,0,0,0-2.22.14,1.87,1.87,0,0,1-1.05.56,6.21,6.21,0,0,0-1.06.4c-.39.18-.76.39-1.15.57a20.46,20.46,0,0,0-2.57,1.27,3.66,3.66,0,0,1-2.26.73,2.07,2.07,0,0,0-1.44.36,2.78,2.78,0,0,1-2.06.66,1.67,1.67,0,0,0-.7.12,6.72,6.72,0,0,0-1.37.75,1.17,1.17,0,0,0-.4,1.35,5.88,5.88,0,0,1,.28,1.54,1,1,0,0,1-1.32,1.1c-.1,0-.19-.06-.28-.06A2.94,2.94,0,0,0,0,61.87a5.6,5.6,0,0,0,.56.26,6.12,6.12,0,0,0,2.62.26,3.75,3.75,0,0,1,2.31.38A5.92,5.92,0,0,0,8,63.44a6.3,6.3,0,0,1,2.91.66,3.58,3.58,0,0,0,1.25.29c.49.07,1,.07,1.49.17a1.75,1.75,0,0,1,1.5,1.88v.94Zm109-47.53c0,.65,0,1.29,0,1.94,0,2.06-.07,4.12-.09,6.18a13.69,13.69,0,0,1-.36,4,4.61,4.61,0,0,0-.06,2.6,6.35,6.35,0,0,1,.14,2.13,4.12,4.12,0,0,0,.79,3.32,1,1,0,0,1,.18.31,3.71,3.71,0,0,0,1.09,1.48,1.77,1.77,0,0,0,2.16.38,7,7,0,0,1,1.37-.41,11.84,11.84,0,0,0,3.31-.89,4,4,0,0,1,1.66-.41,19.2,19.2,0,0,0,2-.27c1.2-.18,2.4-.43,3.61-.57a13.77,13.77,0,0,1,5.51.76,2,2,0,0,0,2.4-.56,1.11,1.11,0,0,1,1.66,0c.32.29.65.57.95.88a5.2,5.2,0,0,1,1.35,1.92c.32,1,.66,2,1,3.06a3.21,3.21,0,0,0,.63,1c.76.8,1.6.59,2-.47a6.37,6.37,0,0,0,.22-2.91c-.08-.64-.2-1.28-.23-1.92a9.26,9.26,0,0,1,.08-2.58,11.27,11.27,0,0,0,.19-3.27c0-1.15-.09-2.3-.1-3.44,0-.7.11-1.39.05-2.08a7.51,7.51,0,0,1,.13-2.27c.15-.63.25-1.27.35-1.91s.17-1.37.26-2.06c0-.11,0-.23,0-.35,0-2.28.1-4.55.14-6.83,0-.43-.11-.86-.07-1.28.07-.88.23-1.75.33-2.63a4,4,0,0,0-.65-3,28.25,28.25,0,0,0-3-3.27A5.54,5.54,0,0,0,156.74,5a6.23,6.23,0,0,0-4.53.36,4,4,0,0,1-.93.38,4.83,4.83,0,0,1-1.6.31,9.39,9.39,0,0,0-3,.36L144.12,7a26.15,26.15,0,0,0-2.77.71,10.86,10.86,0,0,1-2.56.67,4.31,4.31,0,0,0-.71.09c-.46.12-1,.19-1.07.79-.07.41.28.79.9,1.07a8.13,8.13,0,0,1,1.22.6,2.09,2.09,0,0,0,2.43,0,3.51,3.51,0,0,1,.9-.42,1.45,1.45,0,0,1,1.83.74,8.7,8.7,0,0,1,.53.94,1.3,1.3,0,0,1-.68,1.85,4.25,4.25,0,0,1-1.11.25,7,7,0,0,0-3.08.87,2.23,2.23,0,0,1-1.37.34,6.93,6.93,0,0,0-1.29,0c-.62.11-.79.46-.42,1a5,5,0,0,0,1,1,1.13,1.13,0,0,1,.35,1.72,6.94,6.94,0,0,1-.8.92,4.06,4.06,0,0,0-1.25,2.19,4.39,4.39,0,0,0,.42,3.19,6.45,6.45,0,0,1,.83,2,1.31,1.31,0,0,0,1.55,1,5.48,5.48,0,0,1,.57,0c.51,0,.69.18.74.68a1.2,1.2,0,0,1-.75,1.26,3.79,3.79,0,0,1-2.79.13,4.3,4.3,0,0,0-.69-.16.54.54,0,0,0-.64.6,1.33,1.33,0,0,0,.25.79c.6.72,1.24,1.4,1.89,2.06a1.3,1.3,0,0,0,1.88.1c.49-.38.94-.81,1.44-1.19a6.73,6.73,0,0,1,1.09-.66c.86-.42,1.73-.83,2.62-1.18a8.6,8.6,0,0,1,1.77-.54c.68-.11,1.08.41.89,1.08a1.45,1.45,0,0,1-.28.57c-.75.8-1.54,1.57-2.3,2.37a5.1,5.1,0,0,0-.74.94.53.53,0,0,0,.51.82A.83.83,0,0,0,145,36,5.83,5.83,0,0,1,147,35a7,7,0,0,0,3.23-2.64,1.23,1.23,0,0,1,1.15-.71,1.24,1.24,0,0,1,1,.82c.4.87.79,1.74,1.18,2.61.06.13.13.25.2.38.31.59.64,1.17.91,1.78s.09.84-.51,1a2.63,2.63,0,0,1-.56.1,2.56,2.56,0,0,1-1.89-.55,2.57,2.57,0,0,0-1.46-.54c-.71,0-1.43.06-2.15.07-.93,0-1.87.05-2.8,0a5.67,5.67,0,0,0-1.84.09c-.49.11-1,.16-1.48.24a6.57,6.57,0,0,0-.77.16c-.49.11-1,.23-1.46.36-1,.27-1.94.55-2.9.84-.55.16-1.09.38-1.64.5-1.26.29-2-.45-1.7-1.69a.69.69,0,0,1,.05-.13,2.1,2.1,0,0,0-.11-1.46,3.23,3.23,0,0,1-.3-1.1c0-2.31-.13-4.62.07-6.91.17-1.89.15-3.77.18-5.66a11.21,11.21,0,0,1,.55-4.6,2,2,0,0,0,0-1.68,8.4,8.4,0,0,1-.65-2.7,1.71,1.71,0,0,0-.7-1.36,1.13,1.13,0,0,0-.78-.21c-.36.07-.5.42-.5.78,0,.58,0,1.16,0,1.73a5.28,5.28,0,0,1-.23,1.55A10.35,10.35,0,0,0,130.51,19.85ZM26.28,41.25h0c-.79,0-1.58,0-2.37,0a1.9,1.9,0,0,0-1.63.74,2.41,2.41,0,0,1-.8.6,8.41,8.41,0,0,0-2.36,1.73,1,1,0,0,0-.27.69,1.58,1.58,0,0,1-.18,1.43.5.5,0,0,0,.3.8,3,3,0,0,1,1.5.92,2.65,2.65,0,0,0,.5.27,23.58,23.58,0,0,1,2.26,1.39A6.22,6.22,0,0,0,27,51.15c1.55,0,3-.64,4.51-.77.42,0,.84-.17,1.27-.21a10.92,10.92,0,0,0,2.88-.53,7.75,7.75,0,0,1,1-.22,5.28,5.28,0,0,0,1-.3,6.46,6.46,0,0,1,2.14-.77.92.92,0,0,0,.39-.18A12.86,12.86,0,0,0,41.8,47c1.24-1.24,2.43-2.52,3.6-3.81a19.73,19.73,0,0,0,1.3-1.71c.25-.34.48-.71.7-1.07s.21-.49.35-.71a8.87,8.87,0,0,0,1.19-3,1.75,1.75,0,0,0-.16-1.31,5.24,5.24,0,0,1-.55-3.21,22.5,22.5,0,0,0-.41-6,1,1,0,0,0-.53-.61,1.66,1.66,0,0,1-1-1,5.28,5.28,0,0,0-.39-.69,10.64,10.64,0,0,0-1.74-2.16c-.69-.67-1.33-1.38-2-2.06a1.69,1.69,0,0,0-.48-.3,22.16,22.16,0,0,0-2.79-1.42.48.48,0,0,1-.11-.09,5.43,5.43,0,0,0-3-1.25c-1.31-.25-2.63-.51-3.91-.87a6.39,6.39,0,0,0-3.47,0c-1.15.31-2.32.55-3.48.84a5.58,5.58,0,0,0-.94.34A1.15,1.15,0,0,0,23.23,18a7.79,7.79,0,0,1,0,1.08.94.94,0,0,1-.72,1,3.65,3.65,0,0,0-2,1.09,1.25,1.25,0,0,1-.37.22,8.53,8.53,0,0,0-3.44,3.84.76.76,0,0,0,.56,1.2,6.22,6.22,0,0,0,1.49.08,2.73,2.73,0,0,0,2-.82,1.41,1.41,0,0,1,.77-.32c.43-.08.86-.06,1.29-.13a2.19,2.19,0,0,1,1.87.49,2.06,2.06,0,0,0,1.54.49c.24,0,.48,0,.72,0a1.58,1.58,0,0,1,1.28.53,2,2,0,0,0,1.55.62l1.44.05a1.35,1.35,0,0,1,1,.45,3,3,0,0,0,1.25.82,8.86,8.86,0,0,1,1,.5c.64.38.72.58.54,1.3a1.27,1.27,0,0,0,1.22,1.67c.31,0,.62,0,.94,0a1,1,0,0,1,1.08.86A4.92,4.92,0,0,1,38.17,35a2.65,2.65,0,0,1-.68,1.62c-.55.63-1.06,1.3-1.64,1.9a6.26,6.26,0,0,1-1.11.77,7.41,7.41,0,0,0-.88.49,2.71,2.71,0,0,1-1.93.62,3.34,3.34,0,0,0-2,.53,3,3,0,0,1-1.66.37ZM64.38,15a2.28,2.28,0,0,0-.67-2.08,3.7,3.7,0,0,1-1.06-2.37A3.4,3.4,0,0,0,61.43,8a9,9,0,0,1-1.65-1.78,4.18,4.18,0,0,0-1-1,22.88,22.88,0,0,1-2.13-1.57A27.58,27.58,0,0,0,54,1.86a.65.65,0,0,0-.33-.11A2.71,2.71,0,0,1,52,.93a.66.66,0,0,0-.38-.19A8.86,8.86,0,0,0,49.14.4a12,12,0,0,1-4-.33,3.83,3.83,0,0,0-1.12,0C42.51.21,41,.43,39.44.64a1.55,1.55,0,0,0-1.35,1.92c0,.22.13.42.15.63.11.78-.13,1.08-.93,1.2a2.65,2.65,0,0,0-1.79.8A11.17,11.17,0,0,1,33.7,6.81,5.17,5.17,0,0,0,32,9.07a1,1,0,0,0,.57,1.46,2.7,2.7,0,0,0,2.79-.32,3.64,3.64,0,0,1,4.16-.32,3.89,3.89,0,0,0,2,.49,1.93,1.93,0,0,1,1.39.47,2.49,2.49,0,0,0,1.68.54c.4,0,.82,0,1.22,0a3.59,3.59,0,0,1,1.23.31c1,.56,2,1.18,2.95,1.78a4.94,4.94,0,0,1,.45.35c.35.29.68.59,1,.85a3.49,3.49,0,0,1,1.71,3.05c0,.71-.18,1.42-.22,2.13a2.89,2.89,0,0,1-1.33,2.2c-1,.75-2.07,1.46-3.1,2.2a4.25,4.25,0,0,0-.6.6.54.54,0,0,0,0,.66c.17.42.31.85.44,1.27s.11.84.55,1.11c.16.09.23.41.25.64.08.76.12,1.52.16,2.29,0,.52,0,1,.05,1.58a1,1,0,0,0,1.07,1.07,3.94,3.94,0,0,0,2.41-.41,2.51,2.51,0,0,1,.69-.19,4.61,4.61,0,0,0,.83-.22c.87-.43,1.75-.86,2.6-1.36a1.84,1.84,0,0,0,.68-.8,3,3,0,0,1,1.19-1.29,4,4,0,0,0,1-.94c.51-.63.95-1.32,1.5-1.91a3.91,3.91,0,0,0,1.11-1.72,1.7,1.7,0,0,1,.22-.45c.23-.47.46-.94.7-1.4a2,2,0,0,1,.41-.66,2.64,2.64,0,0,0,1-2.08,11.56,11.56,0,0,0-.18-3.93A5.93,5.93,0,0,1,64.38,15Zm1.19,1.56c-.2,1.57-.42,3-.57,4.51a18.56,18.56,0,0,1-.78,3,3.28,3.28,0,0,1-.49.87c-.12.21-.29.38-.42.59-.35.57-.26.91.35,1.21A8.37,8.37,0,0,1,66,28.09a1.53,1.53,0,0,0,.56.31A7.57,7.57,0,0,1,70,31.17c.23.33.44.68.69,1a2.72,2.72,0,0,1,.13,3.28,3.15,3.15,0,0,0-.31.64,6.07,6.07,0,0,1-2.07,2.5,21.7,21.7,0,0,1-1.89,1.3,2.15,2.15,0,0,1-1.66.49,2.12,2.12,0,0,0-1.67.52,2.35,2.35,0,0,1-1.61.49c-1.75,0-3.5,0-5.25-.06a1.33,1.33,0,0,0-1.06.48,5,5,0,0,1-.86.74c-.78.57-1.57,1.1-2.34,1.67a.9.9,0,0,0-.25,1.38,3.8,3.8,0,0,1,.38.68A4,4,0,0,0,53.67,48a1.15,1.15,0,0,0,.65.28,2.41,2.41,0,0,1,1.55.81,3.84,3.84,0,0,0,2.49,1.29,20.3,20.3,0,0,0,3,0,63.51,63.51,0,0,0,6.77-1.51c.85-.17,1.67-.44,2.5-.63A7.77,7.77,0,0,0,73.74,47a14.77,14.77,0,0,0,2.36-2.1A18.71,18.71,0,0,0,79.55,40l.14-.25c.36-.61.74-1.23,1.08-1.86a2.3,2.3,0,0,0,.24-.74c.13-.73.22-1.46.32-2.19a9.6,9.6,0,0,0-.1-3.85A6.29,6.29,0,0,1,81,29.55a3.3,3.3,0,0,0-.35-1.45A17,17,0,0,1,79.17,25,1.07,1.07,0,0,0,79,24.7a31.23,31.23,0,0,1-2.16-2.84.79.79,0,0,0-.2-.21l-2.57-2.16a1.14,1.14,0,0,0-.31-.16A11,11,0,0,0,71,18.05a.76.76,0,0,1-.31-.18,7.69,7.69,0,0,0-4.55-1.49A1.42,1.42,0,0,0,65.57,16.57Zm206-.79c0,.19,0,.38-.05.57-.1.82-.36,1.09-1.16,1.34a5.72,5.72,0,0,0-1,.47,2.68,2.68,0,0,1-2.06.39,1,1,0,0,0-1.08.28c-.07.1.07.41.2.55a12.64,12.64,0,0,0,1,.93,1.92,1.92,0,0,0,2.5.1,3.85,3.85,0,0,1,.62-.36.75.75,0,0,1,1.12.52,3.19,3.19,0,0,1,0,1.27,1,1,0,0,1-.93.85,3.37,3.37,0,0,0-.77.14.71.71,0,0,0-.35,1.19,2.73,2.73,0,0,0,.49.41c.3.21.61.38.91.59a1.5,1.5,0,0,1,.58,1.46,1.32,1.32,0,0,1-.85,1.16,2.06,2.06,0,0,1-2.28-.61c-.24-.3-.47-.61-.73-.89A6.71,6.71,0,0,1,266,23.81a.75.75,0,0,0-.15-.24,13.91,13.91,0,0,1-1.67-3.08,2.28,2.28,0,0,0-1-1.18c-.71-.39-1.29-.1-1.19.67a7.8,7.8,0,0,0,.66,2.55,14.29,14.29,0,0,0,1.56,2.55,29.15,29.15,0,0,0,2.95,3.51,3.52,3.52,0,0,0,2.49,1.1c.7,0,1,.46.76,1.11a2.73,2.73,0,0,1-.42.66c-.18.22-.4.42-.58.64L266,36.36a15.58,15.58,0,0,1-1.43,1.79A32.77,32.77,0,0,1,259,42.67a6.15,6.15,0,0,0-.85.65.7.7,0,0,0-.22.85.62.62,0,0,0,.72.34,3.64,3.64,0,0,0,1.1-.29c1.39-.8,2.77-1.61,4.11-2.49.9-.59,1.71-1.31,2.57-2a15.35,15.35,0,0,0,3.1-2.87,1.7,1.7,0,0,1,.3-.3,1.08,1.08,0,0,1,1.15-.17c.39.17.44.53.42.91,0,.15,0,.29,0,.44,0,.74-.06,1.48-.07,2.22,0,.47,0,.94,0,1.41a.93.93,0,0,1-.66.86,8,8,0,0,0-.82.29.83.83,0,0,0-.56,1,1.18,1.18,0,0,0,.31.62,6.84,6.84,0,0,1,1.93,3.14,3.27,3.27,0,0,0,1,1.29.71.71,0,0,0,1.13-.14,1.31,1.31,0,0,0,.33-1.19,8.47,8.47,0,0,1-.35-2c0-1.29.19-2.57.23-3.86a18.55,18.55,0,0,0-.11-2.79,6.51,6.51,0,0,1,0-1.92,6,6,0,0,0,0-1.34c0-.23-.1-.47-.13-.7-.08-.77.48-1.21,1.17-.86a5.76,5.76,0,0,1,1.21.88c.75.67,1.49,1.36,2.21,2.06.55.54,1.06,1.1,1.59,1.65A15.55,15.55,0,0,0,282.68,41,41.74,41.74,0,0,0,286.44,43a2.65,2.65,0,0,0,1.61.2,4.14,4.14,0,0,1,2.33.2,2.67,2.67,0,0,0,1.12.19.79.79,0,0,0,.69-1.22,2.19,2.19,0,0,0-.51-.59,17.19,17.19,0,0,0-3.29-2.14c-.81-.4-1.69-.7-2.51-1.15-.64-.36-1.35-.59-2-.89A31.77,31.77,0,0,1,279,34.66a10,10,0,0,0-2.29-1.58c-.09,0-.15-.12-.23-.17-.46-.25-.92-.51-1.38-.75-.23-.12-.48-.21-.71-.34a1.42,1.42,0,0,1-.66-1.55c.07-.4.24-.78.31-1.18a1.22,1.22,0,0,1,2.18-.47c.35.38.76.72,1.14,1.08.63.61,1.14.53,1.75-.07,1-.95,1.91-1.95,2.87-2.93.56-.58,1.13-1.16,1.68-1.75a8.53,8.53,0,0,0,1.6-2.54c.24-.54.4-1.12.63-1.68a1.49,1.49,0,0,0-.06-1.38,6,6,0,0,0-.72-1.06,27.92,27.92,0,0,0-2-2.07,5.87,5.87,0,0,0-1.36-.78c-.32-.15-.7-.17-1-.32a3.51,3.51,0,0,0-3.17.19c-.24.11-.46.25-.7.36a7.73,7.73,0,0,1-1,.42,1.16,1.16,0,0,1-1.28-.42,2.24,2.24,0,0,1,0-2.45c.7-.85,1.51-1.56,2.76-1.21a1,1,0,0,0,1.28-1.4,2.06,2.06,0,0,0-1.09-1.1c-.4-.15-.82-.25-1.22-.38a1.13,1.13,0,0,1-.92-1.2,3.88,3.88,0,0,1,.24-1.47,2,2,0,0,0,.14-1.11,4.3,4.3,0,0,0-1.05-1.94A16.41,16.41,0,0,1,273.56,2a3.44,3.44,0,0,0-.47-.54.93.93,0,0,0-1.19.05.82.82,0,0,0,0,1.11,1.88,1.88,0,0,0,.16.23,2.39,2.39,0,0,1,.54,2.58,10.87,10.87,0,0,0-.48,3.76,3,3,0,0,1-.58,1.67.94.94,0,0,1-1.07.42,3.47,3.47,0,0,0-.56-.11c-.49,0-.75.2-.65.68a2.77,2.77,0,0,0,.5,1,4.17,4.17,0,0,0,.85.77A2.56,2.56,0,0,1,271.54,15.78ZM206.79,39.07c.2,0,.46-.06.72-.12a1.11,1.11,0,0,0,.93-1.12,1.74,1.74,0,0,0-.61-1.47,3.47,3.47,0,0,0-1.1-.66,24.82,24.82,0,0,0-3.73-1,7.53,7.53,0,0,0-3.34,0,2.56,2.56,0,0,1-.79.06c-.56,0-.83-.24-.75-.8a12.09,12.09,0,0,1,.44-1.87c.19-.67.44-1.31.66-2a12.56,12.56,0,0,1,.5-1.5,1.61,1.61,0,0,0-.21-1.93A18.06,18.06,0,0,0,198,25.15a1.81,1.81,0,0,0-.95-.46c-1-.15-2.09-.22-3.14-.34a2.17,2.17,0,0,0-1.85.73c-.81.79-1.67,1.51-2.49,2.28a6.41,6.41,0,0,0-1.23,1.38,2.18,2.18,0,0,1-1.46,1.15,1.1,1.1,0,0,1-1.24-.3.92.92,0,0,1,.14-1.13c.91-1.32,1.74-2.71,3.29-3.42.09,0,.15-.13.23-.17a4.31,4.31,0,0,1,1-.45,1.65,1.65,0,0,0,1-.6,6.3,6.3,0,0,1,1.93-1.59,3.62,3.62,0,0,0,.54-.36c.6-.43,1.18-.9,1.81-1.29a5.07,5.07,0,0,1,1.81-.83,1.35,1.35,0,0,0,1.16-1.35,1.69,1.69,0,0,0-1.19-1.62c-.79-.19-1.59-.37-2.38-.57a3.4,3.4,0,0,0-2.95.42,9.51,9.51,0,0,1-4,2,1.53,1.53,0,0,0-.41.14,22.25,22.25,0,0,1-5.51,1.75,5.7,5.7,0,0,1-1,.17,3.82,3.82,0,0,1-2.85-1,.66.66,0,0,0-.57-.14c-.25.13-.18.42-.06.64s.3.44.41.67c.61,1.36,1.8,2.3,2.56,3.55a1,1,0,0,0,1.05.46,6.61,6.61,0,0,0,1.93-.92,3.85,3.85,0,0,1,1.77-.72c.55-.08.83.15.81.71a1.46,1.46,0,0,1-.29.78,7.46,7.46,0,0,0-1.85,3c0,.14-.16.24-.22.37-.27.64-.56,1.27-.79,1.92-.14.37-.14.8-.26,1.18A3.28,3.28,0,0,0,183.2,34c.15.27.31.54.48.8.5.84.28,1.41-.66,1.68a8.76,8.76,0,0,0-1.17.33,7.15,7.15,0,0,1-3.44.6,3.29,3.29,0,0,0-1.9.52,4.56,4.56,0,0,1-1.12.46,4.19,4.19,0,0,1-2.75-.13,1.77,1.77,0,0,0-1.6,0,1,1,0,0,0-.34,1.6,12.74,12.74,0,0,0,1.64,1.38c.4.3.86.52,1.28.79a2.77,2.77,0,0,0,2.44.5,5.85,5.85,0,0,1,1.26-.24,2.34,2.34,0,0,0,1.05-.41,9.77,9.77,0,0,1,3.55-1.49,7,7,0,0,0,1.65-.46,9.67,9.67,0,0,1,2.25-.72c.68-.14,1.38-.2,2.05-.37a11,11,0,0,1,3.12-.36,6.2,6.2,0,0,0,1.22-.05c1.42-.19,2.84-.41,4.26-.61a8.24,8.24,0,0,1,3.13,0,2.58,2.58,0,0,0,1.14,0,4.66,4.66,0,0,1,2.73.38A11.55,11.55,0,0,0,206.79,39.07ZM369.22,28.39c1,0,1.31.39,1.1,1.29a1.62,1.62,0,0,1-.23.67,6,6,0,0,0-.92,1.93,1.66,1.66,0,0,1-1.84,1.16,9.87,9.87,0,0,0-1.21-.1,3.76,3.76,0,0,1-2.13-.5,2.51,2.51,0,0,0-1.61-.26c-.46.05-.63.35-.45.76a1.63,1.63,0,0,0,1.18,1,3.49,3.49,0,0,1,.88.29c.49.24.95.54,1.44.78a1,1,0,0,1,.67.85.92.92,0,0,1-.55.93c-1.37.73-2.54,1.81-4.06,2.25a1.27,1.27,0,0,0-.48.32,2.3,2.3,0,0,1-1.46.53,1.88,1.88,0,0,0-1.18.45l-.83.69c-.41.36-.41.62.06.87a1.38,1.38,0,0,0,.82.13,5.18,5.18,0,0,0,1.14-.41,5.81,5.81,0,0,1,1.91-.59,2.65,2.65,0,0,0,1.63-.68,3.27,3.27,0,0,1,.8-.44c.43-.21.87-.39,1.3-.59a6,6,0,0,1,.77-.37,4.26,4.26,0,0,0,1.18-.65c1.4-1,2.4-1.08,3.89.08.6.48,1.22.93,1.83,1.39a8.22,8.22,0,0,0,1.34,1A15,15,0,0,1,377.09,43a36.43,36.43,0,0,0,3.1,2.08,2.74,2.74,0,0,0,.77.37,1.14,1.14,0,0,0,1.48-.78,3.66,3.66,0,0,0-1.27-4.29l-2.49-1.71a4,4,0,0,0-.51-.25l-1.14-.6q-.57-.32-1.14-.6l-3.54-1.76a1.15,1.15,0,0,1-.19-2.11,2.92,2.92,0,0,0,1-1.37,7.38,7.38,0,0,1,.59-1,3.54,3.54,0,0,0,.45-.8,9,9,0,0,1,.77-1.85,1.71,1.71,0,0,0-.35-2.38c-.49-.37-1-.68-1.53-1.06a2.27,2.27,0,0,0-2.74-.1c-.32.17-.61.38-.94.52a.82.82,0,0,1-1.22-1,3.53,3.53,0,0,1,.52-1.25,2.37,2.37,0,0,0,.46-1.4,2.54,2.54,0,0,1,.8-1.85,5.11,5.11,0,0,1,2.86-1.54,2.21,2.21,0,0,0,1.62-1.07,1.09,1.09,0,0,0-.78-1.81c-.44-.08-.9,0-1.36-.07a3.6,3.6,0,0,1-1-.17,1.68,1.68,0,0,1-1.15-1.92c.49-1.33.44-2.79,1.09-4.08A1.56,1.56,0,0,0,371,7.44c-.67-.79-1.34-1.56-2.06-2.3a1.22,1.22,0,0,0-2.13.28,1.38,1.38,0,0,0,0,1.31,4.64,4.64,0,0,1,.43,2.17,29.46,29.46,0,0,1-.35,3.85,18.31,18.31,0,0,0-.22,2.57c0,.61,0,1.23,0,1.85a2.61,2.61,0,0,1-1.06,2.16,3.58,3.58,0,0,1-2.59,1,.64.64,0,0,0-.73.47c-.09.34.18.52.41.69a4.15,4.15,0,0,0,2.18.84A1.23,1.23,0,0,1,366.1,24a4.65,4.65,0,0,1-1.16,2.42,1.41,1.41,0,0,0-.31,1.88c.27.56.53,1.12.81,1.68a.92.92,0,0,0,1.67.15c.18-.25.3-.54.49-.78C368,28.79,368.49,28.28,369.22,28.39Zm31.24-.26v0a2.7,2.7,0,0,1,.57,0,1.11,1.11,0,0,1,.94,1.58,22.94,22.94,0,0,1-2,3.54c-.25.4-.44.84-.65,1.26a4.34,4.34,0,0,1-.44.89c-1.14,1.22-2.3,2.44-3.48,3.62a2.21,2.21,0,0,1-.95.45c-.87.25-1.75.45-2.63.67a.75.75,0,0,0-.61.63.7.7,0,0,0,.43.77,2.73,2.73,0,0,0,1.23.28,4.08,4.08,0,0,1,1.84.11,1.38,1.38,0,0,0,1.4-.29c.64-.51,1.3-1,1.91-1.52A6.76,6.76,0,0,0,399.12,39a8.62,8.62,0,0,1,1.47-1.66,8.92,8.92,0,0,0,1.5-1.44c1-1.33,2-2.64,2.16-4.38a.93.93,0,0,1,.75-.93,1,1,0,0,1,1.15.52,8.19,8.19,0,0,0,.58.83c.75.83,1.55,1.63,2.3,2.47a42.74,42.74,0,0,1,3.59,3.89,17.55,17.55,0,0,0,4.68,4,1.89,1.89,0,0,0,.54.17c.55.16,1.11.3,1.65.48,1,.34,2,.71,3.05,1.06a1.56,1.56,0,0,0,.57,0,3.08,3.08,0,0,1,2.54.7l.13.07a1,1,0,0,0,1.42-.86,1.5,1.5,0,0,0-.43-1.17c-.57-.62-1.09-1.27-1.66-1.89a2.37,2.37,0,0,0-.63-.44c-.88-.46-1.78-.91-2.67-1.36-.12-.07-.22-.18-.35-.25s-.38-.2-.57-.31l-1.42-.8-.69-.38c-.77-.44-1.54-.88-2.3-1.33-.34-.2-.67-.44-1-.66-.7-.45-1.43-.86-2.09-1.37-1.33-1-2.61-2.09-3.93-3.11a9,9,0,0,0-1.91-1.26,6.56,6.56,0,0,1-1.76-1.21,1,1,0,0,1,.32-1.7c.25-.1.52-.12.76-.23,1-.44,1.95-.89,2.91-1.38a4.25,4.25,0,0,1,1.62-.54c.33,0,.67-.07,1-.1a2,2,0,0,0,1.48-1.13.67.67,0,0,0-.15-.92,3.21,3.21,0,0,0-1.08-.66A22.66,22.66,0,0,0,410,21.2a1.57,1.57,0,0,0-1.72.9,4.31,4.31,0,0,1-.69.9,1.17,1.17,0,0,1-1.28.14,1.13,1.13,0,0,1-.46-1.13.89.89,0,0,1,.07-.28,5.89,5.89,0,0,0,.39-2.46,9.51,9.51,0,0,1,.27-1.83c.17-.72.42-1.43.61-2.14a1.59,1.59,0,0,0-.39-1.59c-.27-.28-.49-.6-.75-.88a18.17,18.17,0,0,0-1.29-1.34,1.11,1.11,0,0,0-1.26-.29c-.49.25-.45.74-.4,1.2,0,.14.06.28.07.43s0,.52,0,.78c0,.55-.06,1.1-.08,1.64,0,.94,0,1.88-.06,2.81-.17,1.59.06,3.19,0,4.78.42,1-.91,2.36-1.81,2.41-.57,0-1.14.1-1.71.11a10.79,10.79,0,0,1-4.33-.49.53.53,0,0,0-.69.23.78.78,0,0,0,0,.58,1.84,1.84,0,0,0,.43.66c.43.41.91.76,1.35,1.16a3.49,3.49,0,0,0,2.82.77ZM240.19,48.34a13.71,13.71,0,0,0,.59,3.82,1,1,0,0,0,.11.27c.18.35.38.66.86.63s.61-.35.7-.7a6,6,0,0,0,.23-1.26c.12-1.5.22-3,.29-4.51s.15-2.82.14-4.23c0-1.67.23-3.34.09-5-.11-1.4,0-2.82.07-4.23,0-.58,0-1.15,0-1.73s.31-1.1.88-1.1A3.74,3.74,0,0,1,247,31a1.4,1.4,0,0,0,.71.28.69.69,0,0,0,.8-.34.73.73,0,0,0-.08-.88A16.89,16.89,0,0,0,247,28.64a1.19,1.19,0,0,0-.75-.19,3.08,3.08,0,0,1-2.4-1.26c-.65-.78-.37-1.65.56-1.79a1.37,1.37,0,0,0,.35-.08.69.69,0,0,0,.45-.74,1.1,1.1,0,0,0-.56-.87c-.24-.16-.5-.28-.75-.42a1.13,1.13,0,0,1-.28-2l1.83-1.83c.6-.61.61-.85.15-1.55a7.74,7.74,0,0,0-2.7-2.32,1.29,1.29,0,0,0-1.25,0,7.84,7.84,0,0,0-2.19,1.33,5.44,5.44,0,0,1-2.31,1.39,2.85,2.85,0,0,0-1,.58,4.63,4.63,0,0,1-.93.5,10.86,10.86,0,0,0-1.29.6,2,2,0,0,1-2.9-.17,1.36,1.36,0,0,0-1-.42.7.7,0,0,0-.67,1,4.34,4.34,0,0,0,.52.77c.48.66,1,1.28,1.42,2s.89,1,1.67.42c.53-.37,1-.79,1.54-1.18l2.17-1.65a7.73,7.73,0,0,1,1.76-1.34,3.3,3.3,0,0,0,1-.66,1.84,1.84,0,0,1,1.06-.56.65.65,0,0,1,.77.45,1,1,0,0,1-.2.94,4.58,4.58,0,0,1-.71.81,2.4,2.4,0,0,0-.82,1.31,1.34,1.34,0,0,1-.29.57c-1,1-1.92,2.09-3.44,2.3a1,1,0,0,0-.46.18,4,4,0,0,1-2.58.69,3,3,0,0,0-1.54.22,2.51,2.51,0,0,1-2.27.49.26.26,0,0,0-.15,0,.4.4,0,0,0-.39.55.91.91,0,0,0,.3.46,6.53,6.53,0,0,0,2.15,1.28,1.61,1.61,0,0,1,1,.78,1,1,0,0,1-.25,1.39,3,3,0,0,1-2.11.77c-.74,0-1.48-.05-2.22-.05a.66.66,0,0,0-.6,1.08,4.34,4.34,0,0,0,1.72,1.49.8.8,0,0,0,.82,0l.45-.22a1.28,1.28,0,0,1,1.93.72,14.66,14.66,0,0,1,.45,1.51,12.5,12.5,0,0,0,.4,1.36.77.77,0,0,0,.8.51,1,1,0,0,0,.65-.78,2.83,2.83,0,0,0,0-.29c.05-1.05.11-2.1.14-3.15a1.39,1.39,0,0,1,.93-1.32,12.17,12.17,0,0,1,5.33-.93c.71,0,1,.26.94,1,0,1.72-.11,3.44-.15,5.17,0,.59,0,1.19,0,1.79-.08,1.43-.18,2.86-.27,4.29,0,.22,0,.43,0,.65C240.52,45.54,240.36,46.94,240.19,48.34ZM352.56,19c0,.14,0,.29,0,.43a1.94,1.94,0,0,1-1.3,2c-.9.31-1.79.64-2.69,1a7.54,7.54,0,0,0-1.05.45,3.3,3.3,0,0,1-2.9.26,8.92,8.92,0,0,0-1.31-.39c-.55-.1-.84.26-.63.77a3.09,3.09,0,0,0,.41.67,10.42,10.42,0,0,1,.93,1.08,4.76,4.76,0,0,0,2.05,1.62,1,1,0,0,0,1,0,6.69,6.69,0,0,0,1.53-.92,19.45,19.45,0,0,1,2.58-1.56c.58-.39,1.05-.14,1.21.56a2.21,2.21,0,0,1,0,.63c0,.45-.07.91-.08,1.36,0,1,0,2.06,0,3.1a1.41,1.41,0,0,1-.56,1.25,18.59,18.59,0,0,0-2.78,2.38,5.94,5.94,0,0,1-.67.55c-.66.51-1.31,1-2,1.53s-1.32,1.26-2.32,1.33c-.39,0-.49.3-.3.69a2.8,2.8,0,0,0,1.5,1.56,3.59,3.59,0,0,1,.79.49c.58.46.88.45,1.43-.06a3.11,3.11,0,0,1,.65-.56,5,5,0,0,0,1.9-2,1.71,1.71,0,0,1,.28-.42,4.24,4.24,0,0,1,1.72-1.36.8.8,0,0,1,1,.51,2.7,2.7,0,0,1,.08.57c.08,1,.15,2.1.24,3.14,0,.29.1.57.13.85a.76.76,0,0,1-.47.88.74.74,0,0,1-.84-.38A16.1,16.1,0,0,0,351,39.62a.37.37,0,0,0-.25-.12c-.18,0-.43,0-.5.15a.53.53,0,0,0,.1.5,14.55,14.55,0,0,0,1.38,1.34,1,1,0,0,1,.46.75,2.63,2.63,0,0,0,.83,1.63,4.46,4.46,0,0,1,1.27,1.89.88.88,0,0,0,.12.26,1.06,1.06,0,0,0,1.16.37.8.8,0,0,0,.62-.86,2.42,2.42,0,0,0-.25-1.17,1.62,1.62,0,0,1,.14-2.11.72.72,0,0,0,0-.91,4.14,4.14,0,0,1-.44-1.2c-.12-.73-.17-1.48-.24-2.21-.12-1.43-.23-2.86-.37-4.29a3.53,3.53,0,0,1,.94-3,23.22,23.22,0,0,0,2.12-2.71c.67-1,1.28-2,1.86-3a2.09,2.09,0,0,0,.23-1c0-.41-.31-.55-.71-.41a1.86,1.86,0,0,0-1.06,1c-.44.82-1.25,1.36-1.62,2.24a.77.77,0,0,1-.94.36.81.81,0,0,1-.63-.79,1.41,1.41,0,0,1-.05-.35c.16-.89.27-1.79.51-2.67a2.84,2.84,0,0,1,1.72-1.81c.19-.09.41-.14.6-.24a1,1,0,0,0,.54-1,1,1,0,0,0-.71-.91c-.23-.06-.47-.09-.71-.13a1.12,1.12,0,0,1-.9-.74,2.78,2.78,0,0,1-.15-1.82,6.45,6.45,0,0,1,.87-2,1.6,1.6,0,0,0-.24-2.25c-.58-.57-1.15-1.16-1.73-1.72-.26-.25-.55-.47-.82-.71a.87.87,0,0,0-1.44.62,3.33,3.33,0,0,0,.13,1.13,2.47,2.47,0,0,1-.08,1.61,3,3,0,0,0-.23,1C352.55,15.84,352.56,17.41,352.56,19Zm-54.69,4.43a3.81,3.81,0,0,0,.84,1.86,10.48,10.48,0,0,0,1.78,1.55.9.9,0,0,0,1.24.08,5.57,5.57,0,0,1,1.17-.52,2.45,2.45,0,0,0,1.39-.81,2.88,2.88,0,0,1,1-.7c.62-.29,1.07,0,1.05.68a2.1,2.1,0,0,1-.36,1.13c-1,1.38-2.12,2.72-3.19,4.06a2.36,2.36,0,0,0-.55,1.8c.06.57.09,1.15.13,1.72,0,.21,0,.43.06.64.06.36.15.74.56.84a1,1,0,0,0,1.13-.45c.13-.17.23-.37.35-.54a1.23,1.23,0,0,1,1.36-.39c.34.11.51.4.53.92a8.49,8.49,0,0,0,0,1,2.89,2.89,0,0,0,.31.94c.27.47.59.92.9,1.37a11.65,11.65,0,0,0,.75,1c.41.49.9.39,1.08-.2a1.44,1.44,0,0,0,0-.62,15.74,15.74,0,0,0-.38-2.05,9.39,9.39,0,0,1-.23-3,9.08,9.08,0,0,0-.06-2.15,2.35,2.35,0,0,1,.64-2.29,20.59,20.59,0,0,0,2.32-2.44,1.3,1.3,0,0,1,.45-.35,3.09,3.09,0,0,0,1.39-1.4,1.63,1.63,0,0,1,.46-.55,3,3,0,0,0,1.35-2.47c0-.64.48-.78,1-.34a4.59,4.59,0,0,1,.86,1,1.5,1.5,0,0,0,1.43.77h.65c.7,0,1-.28,1.06-1a1.65,1.65,0,0,0-.54-1.49,3.34,3.34,0,0,0-1.3-.73,3.17,3.17,0,0,1-1.13-.57c-.8-.65-2-.59-2.21.76a1.61,1.61,0,0,1-.46.86c-.86,1-1.69,2.07-2.54,3.11a2.85,2.85,0,0,1-.62.58,1.41,1.41,0,0,1-1.61-.13,1.1,1.1,0,0,1-.17-1.5,11.76,11.76,0,0,1,.86-1.23c.36-.48.77-.92,1.08-1.43.46-.73.25-1.15-.58-1.34s-1.13-.49-1-1.41a2.09,2.09,0,0,0-.32-1.71,1.53,1.53,0,0,1,.15-2.25C311,13,311.92,12,312.89,11a1.1,1.1,0,0,0-.05-1.79,7.78,7.78,0,0,1-.58-.8c-.45-.59-.88-1.2-1.38-1.74a1,1,0,0,0-1.66.68A4.42,4.42,0,0,1,309,8.65c-.55,1.17-1.18,2.29-1.78,3.43-.06.11-.16.19-.22.29a6,6,0,0,0-.55,1,2.82,2.82,0,0,1-.77,1.2c-.32.28-.62.59-.94.87a.77.77,0,0,0-.32.88.81.81,0,0,0,.84.55,4.36,4.36,0,0,0,.71-.11c.95-.13,1.36.19,1.41,1.14,0,.62,0,1.25,0,1.87a1.8,1.8,0,0,1-.8,1.46,4.88,4.88,0,0,0-.62.48,8.29,8.29,0,0,1-3.08,1.65,5.47,5.47,0,0,0-1,.35,2.19,2.19,0,0,1-2.25,0A2.24,2.24,0,0,0,297.87,23.42ZM443.43,45.87a9.13,9.13,0,0,1,1,.93A6.32,6.32,0,0,0,448.17,49,3.9,3.9,0,0,1,450.78,51c.1.16.17.34.27.5.42.65,1,.69,1.45.09a9.93,9.93,0,0,0,.65-1,10.16,10.16,0,0,0,.56-1.09,12.06,12.06,0,0,0,.5-1.25c.2-.62.34-1.25.55-1.85a4.82,4.82,0,0,0,.34-1.75c0-.55,0-1.11,0-1.66a15.92,15.92,0,0,0,0-3.65,2.75,2.75,0,0,1,0-.86,1,1,0,0,1,1-1c.38,0,.77.05,1.15.05a4.67,4.67,0,0,0,1.12-.09.94.94,0,0,0,.43-1.67,3.22,3.22,0,0,0-1-.6,5,5,0,0,0-2.75-.21,4.91,4.91,0,0,1-1.43.06c-.89-.13-1.57-1-.67-1.86.58-.53,1.19-1,1.73-1.62a5.83,5.83,0,0,0,1.74-2.41,2.23,2.23,0,0,1,.49-.78,1.55,1.55,0,0,0,.1-2,3.19,3.19,0,0,0-1.53-1,5.09,5.09,0,0,0-4,.11c-1.09.59-2.22,1.11-3.32,1.67A7.76,7.76,0,0,0,446,28.49a.89.89,0,0,1-.25.14l-2.46,1c-.19.09-.41.14-.6.24-.34.18-.43.46-.17.76a2.72,2.72,0,0,0,.76.63,6.24,6.24,0,0,0,.94.35,1.46,1.46,0,0,0,2-.55,2.56,2.56,0,0,1,1-.73,5.37,5.37,0,0,0,.79-.48l.92-.55,1-.56c.51-.27,1-.58,1.52-.81s.87,0,.8.59a1.09,1.09,0,0,1-.32.69,20.3,20.3,0,0,0-2.07,2.18,2.25,2.25,0,0,0-.05,3,2.46,2.46,0,0,1,.39.51,1.08,1.08,0,0,1-.83,1.65c-1.2.24-2.39.5-3.58.77-.72.17-1.44.36-2.15.55a5,5,0,0,0-.94.34.68.68,0,0,0-.41.7.69.69,0,0,0,.54.68,5.48,5.48,0,0,0,1.28.08c.62,0,1.23-.19,1.85-.19a9.8,9.8,0,0,0,4.47-.82,1.4,1.4,0,0,1,1.56.22,1.38,1.38,0,0,1,.37,1.45c-.06.26-.19.5-.26.75a21,21,0,0,0-.68,2.56,4.06,4.06,0,0,1-1,2.23,2.54,2.54,0,0,1-2.51.9,11.23,11.23,0,0,1-3.34-1.06A.76.76,0,0,0,443.43,45.87Zm-118.34-.23a13.73,13.73,0,0,0,0,1.48.64.64,0,0,0,1.23.25,7,7,0,0,0,.46-1,3.86,3.86,0,0,0-.13-2.18,8.82,8.82,0,0,1-.39-1.89c-.07-1.55,0-3.11-.07-4.67,0-.26,0-.52-.07-.78a27.47,27.47,0,0,1-.37-4.15,10.26,10.26,0,0,0-.13-1.56c-.11-.88-.26-1.75-.36-2.63a1.4,1.4,0,0,1,1.12-1.65,7,7,0,0,0,1.29-.45,8.81,8.81,0,0,1,3.82-.82,10.8,10.8,0,0,0,2.18-.37,2.5,2.5,0,0,0,1-.57.74.74,0,0,0-.21-1.29,3.33,3.33,0,0,0-1.25-.22,4.55,4.55,0,0,1-2.52-.37A1.34,1.34,0,0,0,329,23a7.93,7.93,0,0,0-.7.72,3.09,3.09,0,0,1-2,1,.78.78,0,0,1-.95-.68,4.11,4.11,0,0,1-.1-1q0-3.63.09-7.26a2.81,2.81,0,0,1,0-.29,15.63,15.63,0,0,1,.84-4.27A2.48,2.48,0,0,0,326,8.61c-.29-.4-.53-.85-.85-1.23a3.75,3.75,0,0,0-1-1c-.54-.31-1,0-1,.62,0,.31,0,.62,0,.93a17.5,17.5,0,0,1-.22,4.15,7.69,7.69,0,0,0,0,1.86c0,.79.12,1.58.08,2.36a25.22,25.22,0,0,0-.15,4.43,1.72,1.72,0,0,1,0,.64,4.3,4.3,0,0,0,.09,1.92,4,4,0,0,1,.1,1.14.88.88,0,0,1-.32.67c-.94.51-1.92,1-2.88,1.42a.37.37,0,0,1-.15,0,1.66,1.66,0,0,0-1.35.54,1.68,1.68,0,0,1-.42.27c-.91.43-1.82.84-2.72,1.28a2.51,2.51,0,0,1-1.84.35c-.56-.15-.87.17-.84.76a1.16,1.16,0,0,0,.26.71A8.76,8.76,0,0,0,314,31.6c.77.49,1,.45,1.73-.11.51-.4,1-.8,1.53-1.19A7.56,7.56,0,0,1,319.66,29a4.19,4.19,0,0,0,.49-.29c.4-.22.79-.47,1.2-.66a1.15,1.15,0,0,1,1.71,1,2.81,2.81,0,0,1-.09,1,3.39,3.39,0,0,0,.06,2.11,6.48,6.48,0,0,1,.2,1.41c0,.26,0,.53,0,.79.24,1.75.48,3.5.77,5.24.24,1.39.55,2.77.85,4.14A5.55,5.55,0,0,1,325.09,45.64ZM231.93,17.22l1.29-.32,1.11-.29c.39-.11.79-.17,1.17-.3.88-.31,1.74-.67,2.61-1a2.41,2.41,0,0,0,1.11-.88,6.94,6.94,0,0,1,.79-.93c1.09-1,2.18-2.07,3.32-3.06a16.65,16.65,0,0,0,2-2.52c.48-.62.28-1.19-.37-1.66l-2.15-1.56a1.58,1.58,0,0,0-1.93,0c-.52.39-1,.75-1.56,1.14a2,2,0,0,1-1.21.4,5.14,5.14,0,0,0-2.2.54,3.82,3.82,0,0,1-1.08.36q-1.35.22-2.7.36a7.88,7.88,0,0,0-2.3.49,2.46,2.46,0,0,1-1.69.1,2.82,2.82,0,0,0-.77-.13.61.61,0,0,0-.62.87,1.22,1.22,0,0,0,.3.48c.53.51,1.09,1,1.64,1.49a2.45,2.45,0,0,0,2.28.56,5.05,5.05,0,0,0,1.46-.55,10,10,0,0,1,3.33-1.29,2.6,2.6,0,0,0,1.53-.74,1.48,1.48,0,0,1,1.3-.43.91.91,0,0,1,.84,1.4,3.72,3.72,0,0,1-.54.66,3.58,3.58,0,0,0-.54.65,5.08,5.08,0,0,1-1.59,1.73,1.57,1.57,0,0,1-1.42.32,3.38,3.38,0,0,0-2.75.71,9.17,9.17,0,0,1-.87.48c-.57.29-1.16.56-1.73.86a.87.87,0,0,0-.54.93.91.91,0,0,0,.75.77C230.76,17,231.32,17.1,231.93,17.22Zm-7.68.55c-.13.5-.25,1-.36,1.47a13.23,13.23,0,0,0-.3,1.39,4,4,0,0,1-.76,2.06,5.4,5.4,0,0,0-.47.8l-1.26,2.57a.94.94,0,0,1-.12.18c-.61.88-1.19,1.79-1.84,2.65s-1.19,1.49-1.83,2.2c-.45.49-1,.9-1.45,1.39a5.77,5.77,0,0,0-1.59,2.91A1.64,1.64,0,0,0,215.1,37c.5.25.88.15,1.46-.4l.2-.21c.54-.64,1.09-1.27,1.61-1.93.72-.92,1.36-1.91,2.14-2.78a19.5,19.5,0,0,0,2.29-2.84,10.51,10.51,0,0,0,1.14-2.14,10.51,10.51,0,0,1,1-2.37c.15-.27.23-.57.37-.85a7.87,7.87,0,0,1,.56-1.08,2.68,2.68,0,0,0,.45-1.49,3,3,0,0,1,.67-2,1.65,1.65,0,0,0-.08-2.12,16.33,16.33,0,0,0-1.29-1.34,5,5,0,0,0-1.11-.77.53.53,0,0,0-.81.54,4.72,4.72,0,0,0,.19,1C224,16.73,224.12,17.24,224.25,17.77Zm-30-7.28a6.11,6.11,0,0,0-.43-.89,3.2,3.2,0,0,0-.6-.62l-4.3-3.79a4.13,4.13,0,0,0-.63-.47A1.85,1.85,0,0,0,187,4.51a.69.69,0,0,0-.65.92,2.51,2.51,0,0,0,.44.88c.68.89,1.38,1.77,2.09,2.64a1.52,1.52,0,0,1-.24,2.16,1.73,1.73,0,0,0-.42.39.68.68,0,0,0,0,1.07,5.63,5.63,0,0,0,1,.67c.35.21.73.36,1.08.56a1,1,0,0,0,1.31,0,8.44,8.44,0,0,0,2.26-2.39A7.37,7.37,0,0,0,194.24,10.49Zm-127,27.36a1.15,1.15,0,0,0-1-1.17,7.59,7.59,0,0,0-1.07-.07,9.67,9.67,0,0,1-1.43,0,3,3,0,0,0-1.4.14c-.39.1-.78.23-1.17.36a12.68,12.68,0,0,0-1.34.5,1,1,0,0,0-.64,1.14,1,1,0,0,0,1.09.82c1.12-.07,2.24-.26,3.36-.26C65.06,39.25,66.1,38.39,67.27,37.85ZM320.32,17.44c1-.08,1.37-.62,1-1.48a2.72,2.72,0,0,0-.45-.72c-.47-.53-1-1-1.48-1.55a1.35,1.35,0,0,0-1.12-.38.85.85,0,0,0-.83.43.82.82,0,0,0,.17.93,4.64,4.64,0,0,1,.52.67A5.19,5.19,0,0,0,319.48,17,4.48,4.48,0,0,0,320.32,17.44Z"/><path d="M468.22,25.1c-.07,0-.16,0-.21,0a7.4,7.4,0,0,1-2.37.43,6.6,6.6,0,0,0-1.19.45c-.46.2-.91.42-1.37.61a.7.7,0,0,1-.42.06,2.7,2.7,0,0,0-1.75.2,2,2,0,0,1-.49.1,1,1,0,0,1-1-.66.85.85,0,0,1,.28-1c.38-.32.83-.57,1.21-.89a3.19,3.19,0,0,0,.76-.84.92.92,0,0,0-.57-1.41,2.14,2.14,0,0,0-.5-.06c-.62,0-1.25,0-1.87,0a2.09,2.09,0,0,0-1.36.34,1.61,1.61,0,0,1-1.23.22c-1-.13-2-.21-3-.26a3.5,3.5,0,0,0-1.66.4,17.29,17.29,0,0,1-2,.84,3.8,3.8,0,0,1-1.84.2,3.24,3.24,0,0,0-2.36.87c-.74.52-1.47,1.05-2.24,1.54a1.34,1.34,0,0,1-.82.2c-1.34-.18-2.26.61-3.23,1.31-.77.56-1.57,1.08-2.37,1.6a12.3,12.3,0,0,0-2.77,2.26,1.68,1.68,0,0,0-.4,1.6,2.2,2.2,0,0,1,.06,1c-.13.68-.64.84-1.16.4a2.89,2.89,0,0,1-1-1.43,2.37,2.37,0,0,0-.44-.81,3.51,3.51,0,0,1-.55-4c.14-.28.24-.58.39-.84a4.22,4.22,0,0,0,.52-1.93,4,4,0,0,1,.09-.77c.17-.67.69-.8,1.17-.33a1.94,1.94,0,0,1,.21.29c.17.26.34.53.49.8a1.33,1.33,0,0,0,2.19.53A7.33,7.33,0,0,1,437.82,25a22.83,22.83,0,0,1,3.65-1.07,1,1,0,0,0,.76-1.25,2.07,2.07,0,0,0-.36-.69,3.21,3.21,0,0,1-.77-3.06,2.44,2.44,0,0,0,.06-.93,15.92,15.92,0,0,0-.51-2.89c-.45-1.41-.79-2.86-1.2-4.28-.13-.43-.32-.84-.49-1.26,0,0-.06-.08-.08-.12-.17-.35-.35-.71-.07-1.07s.83-.21,1.18.16a14.45,14.45,0,0,1,1.37,1.65c.38.52.69,1.09,1,1.64a1.23,1.23,0,0,0,.23.28.89.89,0,0,0,.94.13.61.61,0,0,0,.19-.77c-.25-.7-.53-1.38-.79-2.08a2.91,2.91,0,0,1-.24-.74c-.05-.47.16-.66.59-.5a2.76,2.76,0,0,1,1.05.58,11.27,11.27,0,0,1,2.05,3,4.3,4.3,0,0,1,.21,2.2c0,.74-.08,1.48-.12,2.22a1.62,1.62,0,0,0,.93,1.5.58.58,0,0,0,.83-.13,1.54,1.54,0,0,0,.4-1.19c-.05-.84-.11-1.67-.17-2.5,0-.62-.06-1.25-.13-1.86a1.92,1.92,0,0,0-.25-.82c-.46-.75-1-1.48-1.47-2.21-.07-.1-.15-.19-.22-.28-.51-.73-.42-1.08.37-1.44s.81-.61.59-1.31c-.08-.27-.21-.53-.29-.81-.15-.48.07-.78.57-.7a1.78,1.78,0,0,1,1,.38c.78.75,1.51,1.54,2.23,2.34a1.51,1.51,0,0,1,.19,1.45,2.3,2.3,0,0,0,.52,2.14c.34.43.72.83,1.09,1.23a1.23,1.23,0,0,0,.28.23.87.87,0,0,0,1.42-.81,6.47,6.47,0,0,0-.2-1c-.1-.47-.21-1,.28-1.3a1.23,1.23,0,0,1,1.38.28c.22.19.41.41.62.6a1.27,1.27,0,0,0,2.25-.63l.24-1A1.72,1.72,0,0,0,457,6.08c-.47,0-1,.11-1.42.12a1.21,1.21,0,0,1-.62-.15.7.7,0,0,1,0-1.27c1.05-.34,2.1-.88,3.26-.57a3.8,3.8,0,0,1,1.24.52c.83.57,1.62,1.2,2.4,1.83a2.28,2.28,0,0,1,.7,2.6c-.47,1.2-.91,2.42-1.37,3.63a.35.35,0,0,1-.05.13,5.28,5.28,0,0,0-.92,2.75,2.23,2.23,0,0,1-.37.84c-.24.47-.53.92-.72,1.4a1.34,1.34,0,0,0,1.41,2,8.22,8.22,0,0,1,1.49,0,8.55,8.55,0,0,1,2.26.66A7.42,7.42,0,0,1,466.14,22a17.59,17.59,0,0,1,1.54,2,.47.47,0,0,0,.54.23Zm-23-2.68a6,6,0,0,0,1-.41,3.84,3.84,0,0,1,1.76-.53,11.86,11.86,0,0,0,1.35-.14,8.61,8.61,0,0,0,1.23-.34.62.62,0,0,0,.38-.77.66.66,0,0,0-.65-.57,2.15,2.15,0,0,0-.84.14,12.85,12.85,0,0,1-2.27.59,15,15,0,0,0-2.22.78.6.6,0,0,0-.39.75A.69.69,0,0,0,445.21,22.42Zm10.17-4a.87.87,0,0,0-.46-.77.93.93,0,0,0-.93.2c-.24.16-.47.34-.7.51-.48.37-.59.75-.32,1.16s1.22.8,1.57.53A1.81,1.81,0,0,0,455.38,18.42Z"/><path class="cls-2" d="M21.49,67.38H15.17v-.94a1.75,1.75,0,0,0-1.5-1.88c-.49-.1-1-.1-1.49-.17a3.58,3.58,0,0,1-1.25-.29A6.3,6.3,0,0,0,8,63.44a5.92,5.92,0,0,1-2.53-.67,3.75,3.75,0,0,0-2.31-.38,6.12,6.12,0,0,1-2.62-.26A5.6,5.6,0,0,1,0,61.87a2.94,2.94,0,0,1,1.89-.73c.09,0,.18,0,.28.06a1,1,0,0,0,1.32-1.1,5.88,5.88,0,0,0-.28-1.54,1.17,1.17,0,0,1,.4-1.35A6.72,6.72,0,0,1,5,56.46a1.67,1.67,0,0,1,.7-.12,2.78,2.78,0,0,0,2.06-.66,2.07,2.07,0,0,1,1.44-.36,3.66,3.66,0,0,0,2.26-.73A20.46,20.46,0,0,1,14,53.32c.39-.18.76-.39,1.15-.57a6.21,6.21,0,0,1,1.06-.4,1.87,1.87,0,0,0,1.05-.56,1.67,1.67,0,0,1,2.22-.14,2.93,2.93,0,0,0,2,.71,1.79,1.79,0,0,1,1.13.38,3.92,3.92,0,0,0,2.32.84c.88.09,1.77.13,2.65.15a4.37,4.37,0,0,1,2.12.57,5.9,5.9,0,0,0,1.25.52,2.35,2.35,0,0,0,2.36-.46A1.62,1.62,0,0,1,35.1,54a4.14,4.14,0,0,0,3.27-.16,2.8,2.8,0,0,1,1.19-.21c1.22,0,2.44.05,3.66.09a2.66,2.66,0,0,1,.56.12,12.18,12.18,0,0,0,3.56.36,2.05,2.05,0,0,0,1.26-.46.86.86,0,0,0,0-1.46L48,51.73a10.49,10.49,0,0,1,1-.25c.69-.06,1.39-.13,2.08-.14s1.29.06,1.93.08,1,0,1.49,0a2.24,2.24,0,0,1,1.42.41,3.42,3.42,0,0,0,2.84.62c1.49-.24,3-.35,4.48-.62a45,45,0,0,1,5.56-.6q.68,0,1.35-.12a1.94,1.94,0,0,0,.69-.17,17.58,17.58,0,0,0,4.59-3.17c2-2.14,3.89-4.36,5.82-6.56.55-.63.61-.61,1.46-.37a13.46,13.46,0,0,0,2.6.44c1,.08,2.06,0,3.1,0A2.14,2.14,0,0,1,90,41.9a2.3,2.3,0,0,0,1.57.6,2.24,2.24,0,0,1,1.27.44c1,.68,2,1.35,3,2a3.94,3.94,0,0,0,2.16.42,6.41,6.41,0,0,1,2.9.69,8.09,8.09,0,0,0,1.45.35,5.63,5.63,0,0,1,1.18.45,8.09,8.09,0,0,1,2.42,2.1,8.9,8.9,0,0,0,3.38,2.49,2,2,0,0,1,.6.38,2.28,2.28,0,0,0,1.55.66,2.93,2.93,0,0,1,1.8.62,3.65,3.65,0,0,0,1.95.64,23.47,23.47,0,0,1,2.34.32,1.56,1.56,0,0,1,.79.44A.91.91,0,0,1,118,56a7.61,7.61,0,0,1-1,.28,1.94,1.94,0,0,0-.49.11c-.83.46-1.65.93-2.47,1.4-.13.07-.21.23-.34.27A20,20,0,0,0,111,59.43c-1,.48-2,1-3,1.46a3.58,3.58,0,0,1-1.16.32,8.72,8.72,0,0,0-3,.76,6.28,6.28,0,0,1-1.88.43,2.15,2.15,0,0,0-1.66,1,6.4,6.4,0,0,1-3,2.35,2.43,2.43,0,0,1-2.14,0,10.38,10.38,0,0,0-3.52-.93,49.46,49.46,0,0,1-4.95-1.18,4,4,0,0,0-.92-.13c-1.48,0-3,0-4.43-.07A4,4,0,0,1,79.68,63a7.22,7.22,0,0,0-2.92-.62c-1.57-.08-3.15-.23-4.72-.37a2.55,2.55,0,0,1-.75-.21,8.54,8.54,0,0,0-3-.51c-1.24,0-2.49,0-3.74-.06-.81,0-1.6-.23-2.41-.3a13,13,0,0,0-3.93-.15,2.06,2.06,0,0,1-.84-.1,2.81,2.81,0,0,0-1.41,0c-.72.18-1.45.32-2.18.44a8.54,8.54,0,0,1-1.43.13c-3.43,0-6.86,0-10.29.08a11.89,11.89,0,0,0-2.81.52,13.74,13.74,0,0,1-3.82.56,3.86,3.86,0,0,0-2.19.54,3.44,3.44,0,0,1-1.42.45,2.39,2.39,0,0,0-1.47.8,5.46,5.46,0,0,1-4.57,2,18.35,18.35,0,0,0-3.14.15A1.18,1.18,0,0,0,21.49,67.38Z"/><path d="M130.51,19.85a10.35,10.35,0,0,1,.54-3.82,5.28,5.28,0,0,0,.23-1.55c0-.57,0-1.15,0-1.73,0-.36.14-.71.5-.78a1.13,1.13,0,0,1,.78.21,1.71,1.71,0,0,1,.7,1.36,8.4,8.4,0,0,0,.65,2.7,2,2,0,0,1,0,1.68,11.21,11.21,0,0,0-.55,4.6c0,1.89,0,3.77-.18,5.66-.2,2.29-.09,4.6-.07,6.91a3.23,3.23,0,0,0,.3,1.1,2.1,2.1,0,0,1,.11,1.46.69.69,0,0,0-.05.13c-.28,1.24.44,2,1.7,1.69.55-.12,1.09-.34,1.64-.5,1-.29,1.93-.57,2.9-.84.48-.13,1-.25,1.46-.36a6.57,6.57,0,0,1,.77-.16c.49-.08,1-.13,1.48-.24a5.67,5.67,0,0,1,1.84-.09c.93.07,1.87,0,2.8,0,.72,0,1.44-.09,2.15-.07a2.57,2.57,0,0,1,1.46.54,2.56,2.56,0,0,0,1.89.55,2.63,2.63,0,0,0,.56-.1c.6-.18.76-.46.51-1s-.6-1.19-.91-1.78c-.07-.13-.14-.25-.2-.38-.39-.87-.78-1.74-1.18-2.61a1.24,1.24,0,0,0-1-.82,1.23,1.23,0,0,0-1.15.71A7,7,0,0,1,147,35,5.83,5.83,0,0,0,145,36a.83.83,0,0,1-.52.17.53.53,0,0,1-.51-.82,5.1,5.1,0,0,1,.74-.94c.76-.8,1.55-1.57,2.3-2.37a1.45,1.45,0,0,0,.28-.57c.19-.67-.21-1.19-.89-1.08a8.6,8.6,0,0,0-1.77.54c-.89.35-1.76.76-2.62,1.18a6.73,6.73,0,0,0-1.09.66c-.5.38-.95.81-1.44,1.19a1.3,1.3,0,0,1-1.88-.1c-.65-.66-1.29-1.34-1.89-2.06a1.33,1.33,0,0,1-.25-.79.54.54,0,0,1,.64-.6,4.3,4.3,0,0,1,.69.16,3.79,3.79,0,0,0,2.79-.13,1.2,1.2,0,0,0,.75-1.26c-.05-.5-.23-.67-.74-.68a5.48,5.48,0,0,0-.57,0,1.31,1.31,0,0,1-1.55-1,6.45,6.45,0,0,0-.83-2,4.39,4.39,0,0,1-.42-3.19,4.06,4.06,0,0,1,1.25-2.19,6.94,6.94,0,0,0,.8-.92,1.13,1.13,0,0,0-.35-1.72,5,5,0,0,1-1-1c-.37-.51-.2-.86.42-1a6.93,6.93,0,0,1,1.29,0,2.23,2.23,0,0,0,1.37-.34,7,7,0,0,1,3.08-.87,4.25,4.25,0,0,0,1.11-.25,1.3,1.3,0,0,0,.68-1.85,8.7,8.7,0,0,0-.53-.94,1.45,1.45,0,0,0-1.83-.74,3.51,3.51,0,0,0-.9.42,2.09,2.09,0,0,1-2.43,0,8.13,8.13,0,0,0-1.22-.6c-.62-.28-1-.66-.9-1.07.09-.6.61-.67,1.07-.79a4.31,4.31,0,0,1,.71-.09,10.86,10.86,0,0,0,2.56-.67A26.15,26.15,0,0,1,144.12,7l2.52-.58a9.39,9.39,0,0,1,3-.36,4.83,4.83,0,0,0,1.6-.31,4,4,0,0,0,.93-.38A6.23,6.23,0,0,1,156.74,5a5.54,5.54,0,0,1,2.77,1.42,28.25,28.25,0,0,1,3,3.27,4,4,0,0,1,.65,3c-.1.88-.26,1.75-.33,2.63,0,.42.08.85.07,1.28,0,2.28-.09,4.55-.14,6.83,0,.12,0,.24,0,.35-.09.69-.16,1.38-.26,2.06s-.2,1.28-.35,1.91A7.51,7.51,0,0,0,162,30c.06.69-.06,1.38-.05,2.08,0,1.14.06,2.29.1,3.44a11.27,11.27,0,0,1-.19,3.27,9.26,9.26,0,0,0-.08,2.58c0,.64.15,1.28.23,1.92a6.37,6.37,0,0,1-.22,2.91c-.37,1.06-1.21,1.27-2,.47a3.21,3.21,0,0,1-.63-1c-.37-1-.71-2-1-3.06a5.2,5.2,0,0,0-1.35-1.92c-.3-.31-.63-.59-.95-.88a1.11,1.11,0,0,0-1.66,0,2,2,0,0,1-2.4.56,13.77,13.77,0,0,0-5.51-.76c-1.21.14-2.41.39-3.61.57a19.2,19.2,0,0,1-2,.27,4,4,0,0,0-1.66.41,11.84,11.84,0,0,1-3.31.89,7,7,0,0,0-1.37.41,1.77,1.77,0,0,1-2.16-.38,3.71,3.71,0,0,1-1.09-1.48,1,1,0,0,0-.18-.31,4.12,4.12,0,0,1-.79-3.32,6.35,6.35,0,0,0-.14-2.13,4.61,4.61,0,0,1,.06-2.6,13.69,13.69,0,0,0,.36-4c0-2.06.06-4.12.09-6.18C130.52,21.14,130.51,20.5,130.51,19.85Zm27.69-9.09h0c0-.4,0-.81,0-1.22A2.49,2.49,0,0,0,157,7.43a3.13,3.13,0,0,0-1.59-.27,13.61,13.61,0,0,0-2,.36A1,1,0,0,0,152.64,9a3.86,3.86,0,0,0,.32.56,4,4,0,0,1,.41,2.92c-.13.73-.68.86-1.19.33a2.75,2.75,0,0,1-.75-1.59,3.83,3.83,0,0,0-.41-1.13c-.2-.38-.48-.72-.7-1.08a1.24,1.24,0,0,0-1.08-.61,2.83,2.83,0,0,0-2,.67,1.24,1.24,0,0,0-.44,1.59c.18.49.39,1,.54,1.48a1.92,1.92,0,0,0,.94,1.13c.25.14.52.26.77.39a10,10,0,0,1,1.07.58.82.82,0,0,1,.13,1.4,4.12,4.12,0,0,1-.91.69c-.89.52-1,.88-.5,1.72a4.18,4.18,0,0,1,.68,2.44,3.11,3.11,0,0,0,.63,1.88,1.07,1.07,0,0,0,1.81.06,2,2,0,0,0,.43-1.27c0-1.22-.05-2.44-.07-3.66a2.72,2.72,0,0,1,0-.49c0-.24.06-.49.37-.54a.58.58,0,0,1,.61.29,5.44,5.44,0,0,1,1.16,2.12,2.32,2.32,0,0,0,.32.8A4.54,4.54,0,0,1,155.2,23a6.2,6.2,0,0,1-.46,1.11c-.15.34-.29.69-.42,1s-.12.71-.33.94a4.89,4.89,0,0,0-.91,2.15,2.29,2.29,0,0,0,.63,2.37,3.65,3.65,0,0,1,.59,1c.48.95.94,1.92,1.4,2.89.2.4.38.82.59,1.22.37.72.76,1.43,1.15,2.14a.76.76,0,0,0,.2.2,1.17,1.17,0,0,0,1.22.05c.35-.29.21-.65.14-1a.84.84,0,0,0-.08-.2,11.85,11.85,0,0,1-.69-3.86c-.08-1.7,0-3.41-.07-5.11,0-.24,0-.48,0-.71a17.27,17.27,0,0,1-.11-3.87,9.75,9.75,0,0,0,0-1.43c0-.55,0-1.1,0-1.64a13.14,13.14,0,0,0,0-3.07,4.82,4.82,0,0,1,0-1.14C158,14.29,158.11,12.52,158.2,10.76Zm-8.71,16a4.4,4.4,0,0,0-.3-1.16,10.27,10.27,0,0,1-1-2.61,2.63,2.63,0,0,0-.25-.6,6,6,0,0,1-.62-2.11,7,7,0,0,0-.48-1.86,1.44,1.44,0,0,0-2.35-.67,6.74,6.74,0,0,1-2.22,1,3.08,3.08,0,0,0-1.85,1.15A5,5,0,0,1,139,21.31a1.86,1.86,0,0,0-.26.23.66.66,0,0,0-.13.8.57.57,0,0,0,.74.26,4.07,4.07,0,0,0,1.12-.62,2.52,2.52,0,0,1,1.18-.63l.91-.19c2-.4,3,1.26,3,2.82a2.88,2.88,0,0,1-.88,2l-1,1.06a.88.88,0,0,0-.31.89c.15.41.5.47.88.47H145a3.31,3.31,0,0,1,2.29.64c.42.34.76.26,1.12-.17.22-.25.39-.54.61-.8A1.87,1.87,0,0,0,149.49,26.79Zm-8.18-1.09a.81.81,0,0,0,.86-.69.71.71,0,0,0-.72-.74c-.41,0-.94.39-.93.73A.8.8,0,0,0,141.31,25.7Z"/><path class="cls-3" d="M26.28,41.25h2A3,3,0,0,0,30,40.88a3.34,3.34,0,0,1,2-.53,2.71,2.71,0,0,0,1.93-.62,7.41,7.41,0,0,1,.88-.49,6.26,6.26,0,0,0,1.11-.77c.58-.6,1.09-1.27,1.64-1.9A2.65,2.65,0,0,0,38.17,35,4.92,4.92,0,0,0,38.25,33a1,1,0,0,0-1.08-.86c-.32,0-.63,0-.94,0A1.27,1.27,0,0,1,35,30.5c.18-.72.1-.92-.54-1.3a8.86,8.86,0,0,0-1-.5,3,3,0,0,1-1.25-.82,1.35,1.35,0,0,0-1-.45l-1.44-.05a2,2,0,0,1-1.55-.62,1.58,1.58,0,0,0-1.28-.53c-.24,0-.48,0-.72,0a2.06,2.06,0,0,1-1.54-.49,2.19,2.19,0,0,0-1.87-.49c-.43.07-.86.05-1.29.13a1.41,1.41,0,0,0-.77.32,2.73,2.73,0,0,1-2,.82,6.22,6.22,0,0,1-1.49-.08.76.76,0,0,1-.56-1.2A8.53,8.53,0,0,1,20.1,21.4a1.25,1.25,0,0,0,.37-.22,3.65,3.65,0,0,1,2-1.09.94.94,0,0,0,.72-1,7.79,7.79,0,0,0,0-1.08A1.15,1.15,0,0,1,24,16.85a5.58,5.58,0,0,1,.94-.34c1.16-.29,2.33-.53,3.48-.84a6.39,6.39,0,0,1,3.47,0c1.28.36,2.6.62,3.91.87a5.43,5.43,0,0,1,3,1.25.48.48,0,0,0,.11.09,22.16,22.16,0,0,1,2.79,1.42,1.69,1.69,0,0,1,.48.3c.67.68,1.31,1.39,2,2.06a10.64,10.64,0,0,1,1.74,2.16,5.28,5.28,0,0,1,.39.69,1.66,1.66,0,0,0,1,1,1,1,0,0,1,.53.61,22.5,22.5,0,0,1,.41,6,5.24,5.24,0,0,0,.55,3.21,1.75,1.75,0,0,1,.16,1.31,8.87,8.87,0,0,1-1.19,3c-.14.22-.22.48-.35.71s-.45.73-.7,1.07a19.73,19.73,0,0,1-1.3,1.71C44.23,44.43,43,45.71,41.8,47a12.86,12.86,0,0,1-1.59,1.22.92.92,0,0,1-.39.18,6.46,6.46,0,0,0-2.14.77,5.28,5.28,0,0,1-1,.3,7.75,7.75,0,0,0-1,.22,10.92,10.92,0,0,1-2.88.53c-.43,0-.85.18-1.27.21-1.53.13-3,.78-4.51.77a6.22,6.22,0,0,1-3.78-1.32A23.58,23.58,0,0,0,21,48.44a2.65,2.65,0,0,1-.5-.27,3,3,0,0,0-1.5-.92.5.5,0,0,1-.3-.8A1.58,1.58,0,0,0,18.85,45a1,1,0,0,1,.27-.69,8.41,8.41,0,0,1,2.36-1.73,2.41,2.41,0,0,0,.8-.6,1.9,1.9,0,0,1,1.63-.74c.79,0,1.58,0,2.37,0Z"/><path class="cls-4" d="M64.38,15a5.93,5.93,0,0,0,.11,1.13,11.56,11.56,0,0,1,.18,3.93,2.64,2.64,0,0,1-1,2.08,2,2,0,0,0-.41.66c-.24.46-.47.93-.7,1.4a1.7,1.7,0,0,0-.22.45,3.91,3.91,0,0,1-1.11,1.72c-.55.59-1,1.28-1.5,1.91a4,4,0,0,1-1,.94,3,3,0,0,0-1.19,1.29,1.84,1.84,0,0,1-.68.8c-.85.5-1.73.93-2.6,1.36a4.61,4.61,0,0,1-.83.22,2.51,2.51,0,0,0-.69.19,3.94,3.94,0,0,1-2.41.41,1,1,0,0,1-1.07-1.07c0-.53,0-1.06-.05-1.58,0-.77-.08-1.53-.16-2.29,0-.23-.09-.55-.25-.64-.44-.27-.43-.71-.55-1.11s-.27-.85-.44-1.27a.54.54,0,0,1,0-.66,4.25,4.25,0,0,1,.6-.6c1-.74,2.08-1.45,3.1-2.2A2.89,2.89,0,0,0,53,19.88c0-.71.19-1.42.22-2.13a3.49,3.49,0,0,0-1.71-3.05c-.37-.26-.7-.56-1-.85A4.94,4.94,0,0,0,50,13.5C49,12.9,48,12.28,47,11.72a3.59,3.59,0,0,0-1.23-.31c-.4-.05-.82,0-1.22,0a2.49,2.49,0,0,1-1.68-.54,1.93,1.93,0,0,0-1.39-.47,3.89,3.89,0,0,1-2-.49,3.64,3.64,0,0,0-4.16.32,2.7,2.7,0,0,1-2.79.32A1,1,0,0,1,32,9.07,5.17,5.17,0,0,1,33.7,6.81a11.17,11.17,0,0,0,1.82-1.62,2.65,2.65,0,0,1,1.79-.8c.8-.12,1-.42.93-1.2,0-.21-.11-.41-.15-.63A1.55,1.55,0,0,1,39.44.64C41,.43,42.51.21,44.05,0a3.83,3.83,0,0,1,1.12.05,12,12,0,0,0,4,.33,8.86,8.86,0,0,1,2.47.34A.66.66,0,0,1,52,.93a2.71,2.71,0,0,0,1.71.82.65.65,0,0,1,.33.11,27.58,27.58,0,0,1,2.59,1.78,22.88,22.88,0,0,0,2.13,1.57,4.18,4.18,0,0,1,1,1A9,9,0,0,0,61.43,8a3.4,3.4,0,0,1,1.22,2.59,3.7,3.7,0,0,0,1.06,2.37A2.28,2.28,0,0,1,64.38,15Z"/><path class="cls-3" d="M65.57,16.57a1.42,1.42,0,0,1,.56-.19,7.69,7.69,0,0,1,4.55,1.49.76.76,0,0,0,.31.18,11,11,0,0,1,2.78,1.28,1.14,1.14,0,0,1,.31.16l2.57,2.16a.79.79,0,0,1,.2.21A31.23,31.23,0,0,0,79,24.7a1.07,1.07,0,0,1,.16.32,17,17,0,0,0,1.52,3.08A3.3,3.3,0,0,1,81,29.55a6.29,6.29,0,0,0,.19,1.56,9.6,9.6,0,0,1,.1,3.85c-.1.73-.19,1.46-.32,2.19a2.3,2.3,0,0,1-.24.74c-.34.63-.72,1.25-1.08,1.86l-.14.25a18.71,18.71,0,0,1-3.45,4.9A14.77,14.77,0,0,1,73.74,47a7.77,7.77,0,0,1-3.09,1.29c-.83.19-1.65.46-2.5.63a63.51,63.51,0,0,1-6.77,1.51,20.3,20.3,0,0,1-3,0,3.84,3.84,0,0,1-2.49-1.29,2.41,2.41,0,0,0-1.55-.81,1.15,1.15,0,0,1-.65-.28,4,4,0,0,1-1.48-1.71,3.8,3.8,0,0,0-.38-.68.9.9,0,0,1,.25-1.38c.77-.57,1.56-1.1,2.34-1.67a5,5,0,0,0,.86-.74,1.33,1.33,0,0,1,1.06-.48c1.75,0,3.5,0,5.25.06a2.35,2.35,0,0,0,1.61-.49,2.12,2.12,0,0,1,1.67-.52,2.15,2.15,0,0,0,1.66-.49,21.7,21.7,0,0,0,1.89-1.3,6.07,6.07,0,0,0,2.07-2.5,3.15,3.15,0,0,1,.31-.64,2.72,2.72,0,0,0-.13-3.28c-.25-.33-.46-.68-.69-1a7.57,7.57,0,0,0-3.41-2.77,1.53,1.53,0,0,1-.56-.31,8.37,8.37,0,0,0-2.33-1.39c-.61-.3-.7-.64-.35-1.21.13-.21.3-.38.42-.59a3.28,3.28,0,0,0,.49-.87,18.56,18.56,0,0,0,.78-3C65.15,19.61,65.37,18.14,65.57,16.57Z"/><path d="M271.54,15.78a2.56,2.56,0,0,0-1-2.21,4.17,4.17,0,0,1-.85-.77,2.77,2.77,0,0,1-.5-1c-.1-.48.16-.72.65-.68a3.47,3.47,0,0,1,.56.11.94.94,0,0,0,1.07-.42,3,3,0,0,0,.58-1.67,10.87,10.87,0,0,1,.48-3.76A2.39,2.39,0,0,0,272,2.8a1.88,1.88,0,0,1-.16-.23.82.82,0,0,1,0-1.11.93.93,0,0,1,1.19-.05,3.44,3.44,0,0,1,.47.54,16.41,16.41,0,0,0,1.15,1.46,4.3,4.3,0,0,1,1.05,1.94,2,2,0,0,1-.14,1.11,3.88,3.88,0,0,0-.24,1.47,1.13,1.13,0,0,0,.92,1.2c.4.13.82.23,1.22.38a2.06,2.06,0,0,1,1.09,1.1,1,1,0,0,1-1.28,1.4c-1.25-.35-2.06.36-2.76,1.21a2.24,2.24,0,0,0,0,2.45,1.16,1.16,0,0,0,1.28.42,7.73,7.73,0,0,0,1-.42c.24-.11.46-.25.7-.36a3.51,3.51,0,0,1,3.17-.19c.32.15.7.17,1,.32a5.87,5.87,0,0,1,1.36.78,27.92,27.92,0,0,1,2,2.07,6,6,0,0,1,.72,1.06,1.49,1.49,0,0,1,.06,1.38c-.23.56-.39,1.14-.63,1.68a8.53,8.53,0,0,1-1.6,2.54c-.55.59-1.12,1.17-1.68,1.75-1,1-1.89,2-2.87,2.93-.61.6-1.12.68-1.75.07-.38-.36-.79-.7-1.14-1.08a1.22,1.22,0,0,0-2.18.47c-.07.4-.24.78-.31,1.18a1.42,1.42,0,0,0,.66,1.55c.23.13.48.22.71.34.46.24.92.5,1.38.75.08.05.14.14.23.17A10,10,0,0,1,279,34.66a31.77,31.77,0,0,0,4.86,2.89c.68.3,1.39.53,2,.89.82.45,1.7.75,2.51,1.15a17.19,17.19,0,0,1,3.29,2.14,2.19,2.19,0,0,1,.51.59.79.79,0,0,1-.69,1.22,2.67,2.67,0,0,1-1.12-.19,4.14,4.14,0,0,0-2.33-.2,2.65,2.65,0,0,1-1.61-.2A41.74,41.74,0,0,1,282.68,41a15.55,15.55,0,0,1-2.94-2.62c-.53-.55-1-1.11-1.59-1.65-.72-.7-1.46-1.39-2.21-2.06a5.76,5.76,0,0,0-1.21-.88c-.69-.35-1.25.09-1.17.86,0,.23.12.47.13.7a6,6,0,0,1,0,1.34,6.51,6.51,0,0,0,0,1.92,18.55,18.55,0,0,1,.11,2.79c0,1.29-.22,2.57-.23,3.86a8.47,8.47,0,0,0,.35,2,1.31,1.31,0,0,1-.33,1.19.71.71,0,0,1-1.13.14,3.27,3.27,0,0,1-1-1.29,6.84,6.84,0,0,0-1.93-3.14,1.18,1.18,0,0,1-.31-.62.83.83,0,0,1,.56-1,8,8,0,0,1,.82-.29.93.93,0,0,0,.66-.86c0-.47,0-.94,0-1.41,0-.74,0-1.48.07-2.22,0-.15,0-.29,0-.44,0-.38,0-.74-.42-.91a1.08,1.08,0,0,0-1.15.17,1.7,1.7,0,0,0-.3.3,15.35,15.35,0,0,1-3.1,2.87c-.86.65-1.67,1.37-2.57,2-1.34.88-2.72,1.69-4.11,2.49a3.64,3.64,0,0,1-1.1.29.62.62,0,0,1-.72-.34.7.7,0,0,1,.22-.85,6.15,6.15,0,0,1,.85-.65,32.77,32.77,0,0,0,5.65-4.52A15.58,15.58,0,0,0,266,36.36l3.4-4.26c.18-.22.4-.42.58-.64a2.73,2.73,0,0,0,.42-.66c.24-.65-.06-1.11-.76-1.11a3.52,3.52,0,0,1-2.49-1.1,29.15,29.15,0,0,1-2.95-3.51,14.29,14.29,0,0,1-1.56-2.55A7.8,7.8,0,0,1,262,20c-.1-.77.48-1.06,1.19-.67a2.28,2.28,0,0,1,1,1.18,13.91,13.91,0,0,0,1.67,3.08.75.75,0,0,1,.15.24,6.71,6.71,0,0,0,1.64,2.33c.26.28.49.59.73.89a2.06,2.06,0,0,0,2.28.61,1.32,1.32,0,0,0,.85-1.16,1.5,1.5,0,0,0-.58-1.46c-.3-.21-.61-.38-.91-.59a2.73,2.73,0,0,1-.49-.41.71.71,0,0,1,.35-1.19,3.37,3.37,0,0,1,.77-.14,1,1,0,0,0,.93-.85,3.19,3.19,0,0,0,0-1.27.75.75,0,0,0-1.12-.52,3.85,3.85,0,0,0-.62.36,1.92,1.92,0,0,1-2.5-.1,12.64,12.64,0,0,1-1-.93c-.13-.14-.27-.45-.2-.55a1,1,0,0,1,1.08-.28,2.68,2.68,0,0,0,2.06-.39,5.72,5.72,0,0,1,1-.47c.8-.25,1.06-.52,1.16-1.34C271.51,16.16,271.52,16,271.54,15.78ZM279.75,17l-1.09.31c-.66.21-1.33.39-2,.64a14.24,14.24,0,0,0-2.15,1,1,1,0,0,0,.16,1.88,6.7,6.7,0,0,0,1.17.3c.21,0,.44,0,.64.06a.73.73,0,0,1,.38,1.27,1.84,1.84,0,0,1-.72.44,5.34,5.34,0,0,1-1,.21,1.31,1.31,0,0,0-1.18,1,1.35,1.35,0,0,0,.59,1.51c.73.49,1.53.89,2.3,1.32a1.17,1.17,0,0,0,.42.09.86.86,0,0,0,1-.76,2.66,2.66,0,0,1,.88-1.68,1.33,1.33,0,0,0,.24-.36,23,23,0,0,1,2.47-3.86,1.56,1.56,0,0,0,.25-1.62A3.07,3.07,0,0,0,279.75,17Z"/><path d="M206.79,39.07a11.55,11.55,0,0,1-3.32-.82,4.66,4.66,0,0,0-2.73-.38,2.58,2.58,0,0,1-1.14,0,8.24,8.24,0,0,0-3.13,0c-1.42.2-2.84.42-4.26.61a6.2,6.2,0,0,1-1.22.05,11,11,0,0,0-3.12.36c-.67.17-1.37.23-2.05.37a9.67,9.67,0,0,0-2.25.72,7,7,0,0,1-1.65.46,9.77,9.77,0,0,0-3.55,1.49,2.34,2.34,0,0,1-1.05.41,5.85,5.85,0,0,0-1.26.24,2.77,2.77,0,0,1-2.44-.5c-.42-.27-.88-.49-1.28-.79a12.74,12.74,0,0,1-1.64-1.38,1,1,0,0,1,.34-1.6,1.77,1.77,0,0,1,1.6,0,4.19,4.19,0,0,0,2.75.13,4.56,4.56,0,0,0,1.12-.46,3.29,3.29,0,0,1,1.9-.52,7.15,7.15,0,0,0,3.44-.6,8.76,8.76,0,0,1,1.17-.33c.94-.27,1.16-.84.66-1.68-.17-.26-.33-.53-.48-.8a3.28,3.28,0,0,1-.38-2.76c.12-.38.12-.81.26-1.18.23-.65.52-1.28.79-1.92.06-.13.19-.23.22-.37a7.46,7.46,0,0,1,1.85-3,1.46,1.46,0,0,0,.29-.78c0-.56-.26-.79-.81-.71a3.85,3.85,0,0,0-1.77.72,6.61,6.61,0,0,1-1.93.92,1,1,0,0,1-1.05-.46c-.76-1.25-1.95-2.19-2.56-3.55-.11-.23-.29-.43-.41-.67s-.19-.51.06-.64a.66.66,0,0,1,.57.14,3.82,3.82,0,0,0,2.85,1,5.7,5.7,0,0,0,1-.17,22.25,22.25,0,0,0,5.51-1.75,1.53,1.53,0,0,1,.41-.14,9.51,9.51,0,0,0,4-2,3.4,3.4,0,0,1,2.95-.42c.79.2,1.59.38,2.38.57a1.69,1.69,0,0,1,1.19,1.62,1.35,1.35,0,0,1-1.16,1.35,5.07,5.07,0,0,0-1.81.83c-.63.39-1.21.86-1.81,1.29a3.62,3.62,0,0,1-.54.36,6.3,6.3,0,0,0-1.93,1.59,1.65,1.65,0,0,1-1,.6,4.31,4.31,0,0,0-1,.45c-.08,0-.14.13-.23.17-1.55.71-2.38,2.1-3.29,3.42a.92.92,0,0,0-.14,1.13,1.1,1.1,0,0,0,1.24.3,2.18,2.18,0,0,0,1.46-1.15,6.41,6.41,0,0,1,1.23-1.38c.82-.77,1.68-1.49,2.49-2.28a2.17,2.17,0,0,1,1.85-.73c1.05.12,2.1.19,3.14.34a1.81,1.81,0,0,1,.95.46,18.06,18.06,0,0,1,1.48,1.55,1.61,1.61,0,0,1,.21,1.93,12.56,12.56,0,0,0-.5,1.5c-.22.66-.47,1.3-.66,2a12.09,12.09,0,0,0-.44,1.87c-.08.56.19.78.75.8a2.56,2.56,0,0,0,.79-.06,7.53,7.53,0,0,1,3.34,0,24.82,24.82,0,0,1,3.73,1,3.47,3.47,0,0,1,1.1.66,1.74,1.74,0,0,1,.61,1.47,1.11,1.11,0,0,1-.93,1.12C207.25,39,207,39,206.79,39.07ZM195.6,27.76c-.07-.94-.59-1.44-1.48-1.33a2.37,2.37,0,0,0-1,.31c-1,.61-1.93,1.24-2.85,1.92a6.21,6.21,0,0,1-1.61.9,1.85,1.85,0,0,0-1.37,1.58c-.07.68-.29,1.34-.43,2a4.15,4.15,0,0,0-.09.78,1.09,1.09,0,0,0,1.58,1.12,5,5,0,0,0,1-.64c.59-.4,1.19-.8,1.76-1.23.93-.7,1.85-1.42,2.76-2.15a2.25,2.25,0,0,0,.43-.57,7.42,7.42,0,0,0,.62-1C195.23,28.88,195.4,28.31,195.6,27.76Z"/><path d="M369.22,28.39c-.73-.11-1.19.4-1.62.93-.19.24-.31.53-.49.78a.92.92,0,0,1-1.67-.15c-.28-.56-.54-1.12-.81-1.68a1.41,1.41,0,0,1,.31-1.88A4.65,4.65,0,0,0,366.1,24a1.23,1.23,0,0,0-1.24-1.62,4.15,4.15,0,0,1-2.18-.84c-.23-.17-.5-.35-.41-.69a.64.64,0,0,1,.73-.47,3.58,3.58,0,0,0,2.59-1,2.61,2.61,0,0,0,1.06-2.16c0-.62,0-1.24,0-1.85a18.31,18.31,0,0,1,.22-2.57,29.46,29.46,0,0,0,.35-3.85,4.64,4.64,0,0,0-.43-2.17,1.38,1.38,0,0,1,0-1.31,1.22,1.22,0,0,1,2.13-.28c.72.74,1.39,1.51,2.06,2.3a1.56,1.56,0,0,1,.27,1.81c-.65,1.29-.6,2.75-1.09,4.08a1.68,1.68,0,0,0,1.15,1.92,3.6,3.6,0,0,0,1,.17c.46,0,.92,0,1.36.07a1.09,1.09,0,0,1,.78,1.81,2.21,2.21,0,0,1-1.62,1.07A5.11,5.11,0,0,0,370,19.91a2.54,2.54,0,0,0-.8,1.85,2.37,2.37,0,0,1-.46,1.4,3.53,3.53,0,0,0-.52,1.25.82.82,0,0,0,1.22,1c.33-.14.62-.35.94-.52a2.27,2.27,0,0,1,2.74.1c.49.38,1,.69,1.53,1.06a1.71,1.71,0,0,1,.35,2.38,9,9,0,0,0-.77,1.85,3.54,3.54,0,0,1-.45.8,7.38,7.38,0,0,0-.59,1,2.92,2.92,0,0,1-1,1.37,1.15,1.15,0,0,0,.19,2.11l3.54,1.76q.57.28,1.14.6l1.14.6a4,4,0,0,1,.51.25l2.49,1.71a3.66,3.66,0,0,1,1.27,4.29,1.14,1.14,0,0,1-1.48.78,2.74,2.74,0,0,1-.77-.37,36.43,36.43,0,0,1-3.1-2.08,15,15,0,0,0-2.88-1.85,8.22,8.22,0,0,1-1.34-1c-.61-.46-1.23-.91-1.83-1.39-1.49-1.16-2.49-1.1-3.89-.08a4.26,4.26,0,0,1-1.18.65,6,6,0,0,0-.77.37c-.43.2-.87.38-1.3.59a3.27,3.27,0,0,0-.8.44,2.65,2.65,0,0,1-1.63.68,5.81,5.81,0,0,0-1.91.59,5.18,5.18,0,0,1-1.14.41,1.38,1.38,0,0,1-.82-.13c-.47-.25-.47-.51-.06-.87l.83-.69a1.88,1.88,0,0,1,1.18-.45,2.3,2.3,0,0,0,1.46-.53,1.27,1.27,0,0,1,.48-.32c1.52-.44,2.69-1.52,4.06-2.25a.92.92,0,0,0,.55-.93,1,1,0,0,0-.67-.85c-.49-.24-.95-.54-1.44-.78a3.49,3.49,0,0,0-.88-.29,1.63,1.63,0,0,1-1.18-1c-.18-.41,0-.71.45-.76a2.51,2.51,0,0,1,1.61.26,3.76,3.76,0,0,0,2.13.5,9.87,9.87,0,0,1,1.21.1,1.66,1.66,0,0,0,1.84-1.16,6,6,0,0,1,.92-1.93,1.62,1.62,0,0,0,.23-.67C370.53,28.78,370.2,28.39,369.22,28.39Z"/><path d="M400.46,28.13l-1.36.14a3.49,3.49,0,0,1-2.82-.77c-.44-.4-.92-.75-1.35-1.16a1.84,1.84,0,0,1-.43-.66.78.78,0,0,1,0-.58.53.53,0,0,1,.69-.23,10.79,10.79,0,0,0,4.33.49c.57,0,1.14-.07,1.71-.11.9-.05,2.23-1.37,1.81-2.41.11-1.59-.12-3.19,0-4.78.09-.93,0-1.87.06-2.81,0-.54.06-1.09.08-1.64q0-.39,0-.78c0-.15-.05-.29-.07-.43-.05-.46-.09-1,.4-1.2a1.11,1.11,0,0,1,1.26.29,18.17,18.17,0,0,1,1.29,1.34c.26.28.48.6.75.88a1.59,1.59,0,0,1,.39,1.59c-.19.71-.44,1.42-.61,2.14a9.51,9.51,0,0,0-.27,1.83,5.89,5.89,0,0,1-.39,2.46.89.89,0,0,0-.07.28,1.13,1.13,0,0,0,.46,1.13,1.17,1.17,0,0,0,1.28-.14,4.31,4.31,0,0,0,.69-.9,1.57,1.57,0,0,1,1.72-.9,22.66,22.66,0,0,1,2.61.49,3.21,3.21,0,0,1,1.08.66.67.67,0,0,1,.15.92,2,2,0,0,1-1.48,1.13c-.33,0-.67.08-1,.1a4.25,4.25,0,0,0-1.62.54c-1,.49-1.93.94-2.91,1.38-.24.11-.51.13-.76.23a1,1,0,0,0-.32,1.7,6.56,6.56,0,0,0,1.76,1.21,9,9,0,0,1,1.91,1.26c1.32,1,2.6,2.1,3.93,3.11.66.51,1.39.92,2.09,1.37.34.22.67.46,1,.66.76.45,1.53.89,2.3,1.33l.69.38,1.42.8c.19.11.39.2.57.31s.23.18.35.25c.89.45,1.79.9,2.67,1.36a2.37,2.37,0,0,1,.63.44c.57.62,1.09,1.27,1.66,1.89a1.5,1.5,0,0,1,.43,1.17,1,1,0,0,1-1.42.86l-.13-.07a3.08,3.08,0,0,0-2.54-.7,1.56,1.56,0,0,1-.57,0c-1-.35-2-.72-3.05-1.06-.54-.18-1.1-.32-1.65-.48a1.89,1.89,0,0,1-.54-.17,17.55,17.55,0,0,1-4.68-4A42.74,42.74,0,0,0,409,34.36c-.75-.84-1.55-1.64-2.3-2.47a8.19,8.19,0,0,1-.58-.83,1,1,0,0,0-1.15-.52.93.93,0,0,0-.75.93c-.15,1.74-1.2,3.05-2.16,4.38a8.92,8.92,0,0,1-1.5,1.44A8.62,8.62,0,0,0,399.12,39,6.76,6.76,0,0,1,398,40.16c-.61.53-1.27,1-1.91,1.52a1.38,1.38,0,0,1-1.4.29,4.08,4.08,0,0,0-1.84-.11,2.73,2.73,0,0,1-1.23-.28.7.7,0,0,1-.43-.77.75.75,0,0,1,.61-.63c.88-.22,1.76-.42,2.63-.67a2.21,2.21,0,0,0,.95-.45c1.18-1.18,2.34-2.4,3.48-3.62a4.34,4.34,0,0,0,.44-.89c.21-.42.4-.86.65-1.26a22.94,22.94,0,0,0,2-3.54,1.11,1.11,0,0,0-.94-1.58,2.7,2.7,0,0,0-.57,0Z"/><path d="M240.19,48.34c.17-1.4.33-2.8.5-4.2,0-.22,0-.43,0-.65.09-1.43.19-2.86.27-4.29,0-.6,0-1.2,0-1.79,0-1.73.11-3.45.15-5.17,0-.71-.23-1-.94-1a12.17,12.17,0,0,0-5.33.93,1.39,1.39,0,0,0-.93,1.32c0,1-.09,2.1-.14,3.15a2.83,2.83,0,0,1,0,.29,1,1,0,0,1-.65.78.77.77,0,0,1-.8-.51,12.5,12.5,0,0,1-.4-1.36,14.66,14.66,0,0,0-.45-1.51,1.28,1.28,0,0,0-1.93-.72l-.45.22a.8.8,0,0,1-.82,0,4.34,4.34,0,0,1-1.72-1.49.66.66,0,0,1,.6-1.08c.74,0,1.48,0,2.22.05a3,3,0,0,0,2.11-.77,1,1,0,0,0,.25-1.39,1.61,1.61,0,0,0-1-.78,6.53,6.53,0,0,1-2.15-1.28.91.91,0,0,1-.3-.46.4.4,0,0,1,.39-.55.26.26,0,0,1,.15,0,2.51,2.51,0,0,0,2.27-.49,3,3,0,0,1,1.54-.22,4,4,0,0,0,2.58-.69,1,1,0,0,1,.46-.18c1.52-.21,2.46-1.29,3.44-2.3a1.34,1.34,0,0,0,.29-.57,2.4,2.4,0,0,1,.82-1.31,4.58,4.58,0,0,0,.71-.81,1,1,0,0,0,.2-.94.65.65,0,0,0-.77-.45,1.84,1.84,0,0,0-1.06.56,3.3,3.3,0,0,1-1,.66,7.73,7.73,0,0,0-1.76,1.34l-2.17,1.65c-.51.39-1,.81-1.54,1.18-.78.55-1.16.41-1.67-.42s-.94-1.31-1.42-2a4.34,4.34,0,0,1-.52-.77.7.7,0,0,1,.67-1,1.36,1.36,0,0,1,1,.42,2,2,0,0,0,2.9.17,10.86,10.86,0,0,1,1.29-.6,4.63,4.63,0,0,0,.93-.5,2.85,2.85,0,0,1,1-.58,5.44,5.44,0,0,0,2.31-1.39,7.84,7.84,0,0,1,2.19-1.33,1.29,1.29,0,0,1,1.25,0,7.74,7.74,0,0,1,2.7,2.32c.46.7.45.94-.15,1.55L243.6,21.3a1.13,1.13,0,0,0,.28,2c.25.14.51.26.75.42a1.1,1.1,0,0,1,.56.87.69.69,0,0,1-.45.74,1.37,1.37,0,0,1-.35.08c-.93.14-1.21,1-.56,1.79a3.08,3.08,0,0,0,2.4,1.26,1.19,1.19,0,0,1,.75.19,16.89,16.89,0,0,1,1.49,1.44.73.73,0,0,1,.08.88.69.69,0,0,1-.8.34A1.4,1.4,0,0,1,247,31a3.74,3.74,0,0,0-2.84-.74c-.57,0-.85.4-.88,1.1s0,1.15,0,1.73c0,1.41-.18,2.83-.07,4.23.14,1.68-.1,3.35-.09,5,0,1.41-.07,2.82-.14,4.23s-.17,3-.29,4.51a6,6,0,0,1-.23,1.26c-.09.35-.24.68-.7.7s-.68-.28-.86-.63a1,1,0,0,1-.11-.27A13.71,13.71,0,0,1,240.19,48.34Zm1.38-21.07c0-.33-.08-.66-.15-1-.18-.88-.61-1.18-1.49-1a3.24,3.24,0,0,0-.89.41c-.31.17-.6.38-.91.53s-.89.34-1.3.57a3.6,3.6,0,0,1-1.41.49,3.2,3.2,0,0,0-1,.23,1.22,1.22,0,0,0-.82,1.36,1.19,1.19,0,0,0,1.1,1.21,4,4,0,0,0,1.33-.13c.67-.16,1.31-.43,2-.58s1.41-.21,2.11-.36A1.63,1.63,0,0,0,241.57,27.27Z"/><path d="M352.56,19c0-1.58,0-3.15,0-4.73a3,3,0,0,1,.23-1,2.47,2.47,0,0,0,.08-1.61,3.33,3.33,0,0,1-.13-1.13.87.87,0,0,1,1.44-.62c.27.24.56.46.82.71.58.56,1.15,1.15,1.73,1.72a1.6,1.6,0,0,1,.24,2.25,6.45,6.45,0,0,0-.87,2,2.78,2.78,0,0,0,.15,1.82,1.12,1.12,0,0,0,.9.74c.24,0,.48.07.71.13a1,1,0,0,1,.71.91,1,1,0,0,1-.54,1c-.19.1-.41.15-.6.24a2.84,2.84,0,0,0-1.72,1.81c-.24.88-.35,1.78-.51,2.67a1.41,1.41,0,0,0,.05.35.81.81,0,0,0,.63.79.77.77,0,0,0,.94-.36c.37-.88,1.18-1.42,1.62-2.24a1.86,1.86,0,0,1,1.06-1c.4-.14.7,0,.71.41a2.09,2.09,0,0,1-.23,1c-.58,1-1.19,2-1.86,3A23.22,23.22,0,0,1,356,30.61a3.53,3.53,0,0,0-.94,3c.14,1.43.25,2.86.37,4.29.07.73.12,1.48.24,2.21a4.14,4.14,0,0,0,.44,1.2.72.72,0,0,1,0,.91,1.62,1.62,0,0,0-.14,2.11,2.42,2.42,0,0,1,.25,1.17.8.8,0,0,1-.62.86,1.06,1.06,0,0,1-1.16-.37.88.88,0,0,1-.12-.26A4.46,4.46,0,0,0,353,43.87a2.63,2.63,0,0,1-.83-1.63,1,1,0,0,0-.46-.75,14.55,14.55,0,0,1-1.38-1.34.53.53,0,0,1-.1-.5c.07-.11.32-.13.5-.15a.37.37,0,0,1,.25.12A16.1,16.1,0,0,1,352.25,41a.74.74,0,0,0,.84.38.76.76,0,0,0,.47-.88c0-.28-.11-.56-.13-.85-.09-1-.16-2.09-.24-3.14a2.7,2.7,0,0,0-.08-.57.8.8,0,0,0-1-.51,4.24,4.24,0,0,0-1.72,1.36,1.71,1.71,0,0,0-.28.42,5,5,0,0,1-1.9,2,3.11,3.11,0,0,0-.65.56c-.55.51-.85.52-1.43.06a3.59,3.59,0,0,0-.79-.49,2.8,2.8,0,0,1-1.5-1.56c-.19-.39-.09-.67.3-.69,1-.07,1.6-.79,2.32-1.33s1.32-1,2-1.53a5.94,5.94,0,0,0,.67-.55,18.59,18.59,0,0,1,2.78-2.38,1.41,1.41,0,0,0,.56-1.25c0-1,0-2.07,0-3.1,0-.45.06-.91.08-1.36a2.21,2.21,0,0,0,0-.63c-.16-.7-.63-.95-1.21-.56A19.45,19.45,0,0,0,348.67,26a6.69,6.69,0,0,1-1.53.92,1,1,0,0,1-1,0,4.76,4.76,0,0,1-2.05-1.62,10.42,10.42,0,0,0-.93-1.08,3.09,3.09,0,0,1-.41-.67c-.21-.51.08-.87.63-.77a8.92,8.92,0,0,1,1.31.39,3.3,3.3,0,0,0,2.9-.26,7.54,7.54,0,0,1,1.05-.45c.9-.32,1.79-.65,2.69-1a1.94,1.94,0,0,0,1.3-2C352.59,19.28,352.57,19.13,352.56,19Z"/><path d="M297.87,23.42a2.24,2.24,0,0,1,1.71.31,2.19,2.19,0,0,0,2.25,0,5.47,5.47,0,0,1,1-.35,8.29,8.29,0,0,0,3.08-1.65,4.88,4.88,0,0,1,.62-.48,1.8,1.8,0,0,0,.8-1.46c0-.62,0-1.25,0-1.87,0-.95-.46-1.27-1.41-1.14a4.36,4.36,0,0,1-.71.11.81.81,0,0,1-.84-.55.77.77,0,0,1,.32-.88c.32-.28.62-.59.94-.87a2.82,2.82,0,0,0,.77-1.2,6,6,0,0,1,.55-1c.06-.1.16-.18.22-.29.6-1.14,1.23-2.26,1.78-3.43a4.42,4.42,0,0,0,.26-1.32,1,1,0,0,1,1.66-.68c.5.54.93,1.15,1.38,1.74a7.78,7.78,0,0,0,.58.8,1.1,1.1,0,0,1,.05,1.79c-1,1-1.94,2.06-2.89,3.11a1.53,1.53,0,0,0-.15,2.25,2.09,2.09,0,0,1,.32,1.71c-.17.92,0,1.21,1,1.41s1,.61.58,1.34c-.31.51-.72.95-1.08,1.43a11.76,11.76,0,0,0-.86,1.23,1.1,1.1,0,0,0,.17,1.5,1.41,1.41,0,0,0,1.61.13,2.85,2.85,0,0,0,.62-.58c.85-1,1.68-2.09,2.54-3.11a1.61,1.61,0,0,0,.46-.86c.22-1.35,1.41-1.41,2.21-.76a3.17,3.17,0,0,0,1.13.57,3.34,3.34,0,0,1,1.3.73,1.65,1.65,0,0,1,.54,1.49c-.06.69-.36,1-1.06,1h-.65a1.5,1.5,0,0,1-1.43-.77,4.59,4.59,0,0,0-.86-1c-.5-.44-1-.3-1,.34A3,3,0,0,1,314,24.62a1.63,1.63,0,0,0-.46.55,3.09,3.09,0,0,1-1.39,1.4,1.3,1.3,0,0,0-.45.35,20.59,20.59,0,0,1-2.32,2.44,2.35,2.35,0,0,0-.64,2.29,9.08,9.08,0,0,1,.06,2.15,9.39,9.39,0,0,0,.23,3,15.74,15.74,0,0,1,.38,2.05,1.44,1.44,0,0,1,0,.62c-.18.59-.67.69-1.08.2a11.65,11.65,0,0,1-.75-1c-.31-.45-.63-.9-.9-1.37a2.89,2.89,0,0,1-.31-.94,8.49,8.49,0,0,1,0-1c0-.52-.19-.81-.53-.92a1.23,1.23,0,0,0-1.36.39c-.12.17-.22.37-.35.54a1,1,0,0,1-1.13.45c-.41-.1-.5-.48-.56-.84,0-.21,0-.43-.06-.64,0-.57-.07-1.15-.13-1.72a2.36,2.36,0,0,1,.55-1.8c1.07-1.34,2.16-2.68,3.19-4.06a2.1,2.1,0,0,0,.36-1.13c0-.68-.43-1-1.05-.68a2.88,2.88,0,0,0-1,.7,2.45,2.45,0,0,1-1.39.81,5.57,5.57,0,0,0-1.17.52.9.9,0,0,1-1.24-.08,10.48,10.48,0,0,1-1.78-1.55A3.81,3.81,0,0,1,297.87,23.42Z"/><path d="M443.43,45.87a.76.76,0,0,1,1.09-.11,11.23,11.23,0,0,0,3.34,1.06,2.54,2.54,0,0,0,2.51-.9,4.06,4.06,0,0,0,1-2.23,21,21,0,0,1,.68-2.56c.07-.25.2-.49.26-.75a1.38,1.38,0,0,0-.37-1.45,1.4,1.4,0,0,0-1.56-.22,9.8,9.8,0,0,1-4.47.82c-.62,0-1.23.15-1.85.19a5.48,5.48,0,0,1-1.28-.08.69.69,0,0,1-.54-.68.68.68,0,0,1,.41-.7,5,5,0,0,1,.94-.34c.71-.19,1.43-.38,2.15-.55,1.19-.27,2.38-.53,3.58-.77a1.08,1.08,0,0,0,.83-1.65,2.46,2.46,0,0,0-.39-.51,2.25,2.25,0,0,1,.05-3,20.3,20.3,0,0,1,2.07-2.18,1.09,1.09,0,0,0,.32-.69c.07-.56-.27-.82-.8-.59s-1,.54-1.52.81l-1,.56-.92.55a5.37,5.37,0,0,1-.79.48,2.56,2.56,0,0,0-1,.73,1.46,1.46,0,0,1-2,.55,6.24,6.24,0,0,1-.94-.35,2.72,2.72,0,0,1-.76-.63c-.26-.3-.17-.58.17-.76.19-.1.41-.15.6-.24l2.46-1a.89.89,0,0,0,.25-.14,7.76,7.76,0,0,1,2.13-1.44c1.1-.56,2.23-1.08,3.32-1.67a5.09,5.09,0,0,1,4-.11,3.19,3.19,0,0,1,1.53,1,1.55,1.55,0,0,1-.1,2,2.23,2.23,0,0,0-.49.78,5.83,5.83,0,0,1-1.74,2.41c-.54.58-1.15,1.09-1.73,1.62-.9.82-.22,1.73.67,1.86a4.91,4.91,0,0,0,1.43-.06,5,5,0,0,1,2.75.21,3.22,3.22,0,0,1,1,.6.94.94,0,0,1-.43,1.67,4.67,4.67,0,0,1-1.12.09c-.38,0-.77-.07-1.15-.05a1,1,0,0,0-1,1,2.75,2.75,0,0,0,0,.86,15.92,15.92,0,0,1,0,3.65c0,.55-.05,1.11,0,1.66a4.82,4.82,0,0,1-.34,1.75c-.21.6-.35,1.23-.55,1.85a12.06,12.06,0,0,1-.5,1.25,10.16,10.16,0,0,1-.56,1.09,9.93,9.93,0,0,1-.65,1c-.47.6-1,.56-1.45-.09-.1-.16-.17-.34-.27-.5A3.9,3.9,0,0,0,448.17,49a6.32,6.32,0,0,1-3.73-2.15A9.13,9.13,0,0,0,443.43,45.87Z"/><path d="M325.09,45.64a5.55,5.55,0,0,0-.22-1.94c-.3-1.37-.61-2.75-.85-4.14-.29-1.74-.53-3.49-.77-5.24,0-.26,0-.53,0-.79a6.48,6.48,0,0,0-.2-1.41A3.39,3.39,0,0,1,323,30a2.81,2.81,0,0,0,.09-1,1.15,1.15,0,0,0-1.71-1c-.41.19-.8.44-1.2.66a4.19,4.19,0,0,1-.49.29,7.56,7.56,0,0,0-2.37,1.32c-.52.39-1,.79-1.53,1.19-.72.56-1,.6-1.73.11a8.76,8.76,0,0,1-1.37-1.13,1.16,1.16,0,0,1-.26-.71c0-.59.28-.91.84-.76a2.51,2.51,0,0,0,1.84-.35c.9-.44,1.81-.85,2.72-1.28a1.68,1.68,0,0,0,.42-.27,1.66,1.66,0,0,1,1.35-.54.37.37,0,0,0,.15,0c1-.46,1.94-.91,2.88-1.42a.88.88,0,0,0,.32-.67,4,4,0,0,0-.1-1.14,4.3,4.3,0,0,1-.09-1.92,1.72,1.72,0,0,0,0-.64,25.22,25.22,0,0,1,.15-4.43c0-.78-.06-1.57-.08-2.36a7.69,7.69,0,0,1,0-1.86A17.5,17.5,0,0,0,323.07,8c0-.31,0-.62,0-.93,0-.62.5-.93,1-.62a3.75,3.75,0,0,1,1,1c.32.38.56.83.85,1.23a2.48,2.48,0,0,1,.24,2.54,15.63,15.63,0,0,0-.84,4.27,2.81,2.81,0,0,0,0,.29q-.06,3.63-.09,7.26a4.11,4.11,0,0,0,.1,1,.78.78,0,0,0,.95.68,3.09,3.09,0,0,0,2-1A7.93,7.93,0,0,1,329,23a1.34,1.34,0,0,1,1.65-.24,4.55,4.55,0,0,0,2.52.37,3.33,3.33,0,0,1,1.25.22.74.74,0,0,1,.21,1.29,2.5,2.5,0,0,1-1,.57,10.8,10.8,0,0,1-2.18.37,8.81,8.81,0,0,0-3.82.82,7,7,0,0,1-1.29.45,1.4,1.4,0,0,0-1.12,1.65c.1.88.25,1.75.36,2.63a10.26,10.26,0,0,1,.13,1.56,27.47,27.47,0,0,0,.37,4.15c0,.26.06.52.07.78,0,1.56,0,3.12.07,4.67a8.82,8.82,0,0,0,.39,1.89,3.86,3.86,0,0,1,.13,2.18,7,7,0,0,1-.46,1,.64.64,0,0,1-1.23-.25A13.73,13.73,0,0,1,325.09,45.64Z"/><path d="M231.93,17.22c-.61-.12-1.17-.2-1.73-.34a.91.91,0,0,1-.75-.77.87.87,0,0,1,.54-.93c.57-.3,1.16-.57,1.73-.86a9.17,9.17,0,0,0,.87-.48,3.38,3.38,0,0,1,2.75-.71,1.57,1.57,0,0,0,1.42-.32,5.08,5.08,0,0,0,1.59-1.73,3.58,3.58,0,0,1,.54-.65,3.72,3.72,0,0,0,.54-.66.91.91,0,0,0-.84-1.4,1.48,1.48,0,0,0-1.3.43,2.6,2.6,0,0,1-1.53.74,10,10,0,0,0-3.33,1.29,5.05,5.05,0,0,1-1.46.55,2.45,2.45,0,0,1-2.28-.56c-.55-.49-1.11-1-1.64-1.49a1.22,1.22,0,0,1-.3-.48.61.61,0,0,1,.62-.87,2.82,2.82,0,0,1,.77.13,2.46,2.46,0,0,0,1.69-.1,7.88,7.88,0,0,1,2.3-.49q1.35-.13,2.7-.36a3.82,3.82,0,0,0,1.08-.36,5.14,5.14,0,0,1,2.2-.54,2,2,0,0,0,1.21-.4c.51-.39,1-.75,1.56-1.14a1.58,1.58,0,0,1,1.93,0L245,6.28c.65.47.85,1,.37,1.66a16.65,16.65,0,0,1-2,2.52c-1.14,1-2.23,2-3.32,3.06a6.94,6.94,0,0,0-.79.93,2.41,2.41,0,0,1-1.11.88c-.87.31-1.73.67-2.61,1-.38.13-.78.19-1.17.3l-1.11.29Z"/><path d="M224.25,17.77c-.13-.53-.26-1-.37-1.55a4.72,4.72,0,0,1-.19-1,.53.53,0,0,1,.81-.54,5,5,0,0,1,1.11.77,16.33,16.33,0,0,1,1.29,1.34,1.65,1.65,0,0,1,.08,2.12,3,3,0,0,0-.67,2,2.68,2.68,0,0,1-.45,1.49,7.87,7.87,0,0,0-.56,1.08c-.14.28-.22.58-.37.85a10.51,10.51,0,0,0-1,2.37,10.51,10.51,0,0,1-1.14,2.14,19.5,19.5,0,0,1-2.29,2.84c-.78.87-1.42,1.86-2.14,2.78-.52.66-1.07,1.29-1.61,1.93l-.2.21c-.58.55-1,.65-1.46.4a1.64,1.64,0,0,1-.83-1.62,5.77,5.77,0,0,1,1.59-2.91c.46-.49,1-.9,1.45-1.39.64-.71,1.26-1.44,1.83-2.2s1.23-1.77,1.84-2.65a.94.94,0,0,0,.12-.18l1.26-2.57a5.4,5.4,0,0,1,.47-.8,4,4,0,0,0,.76-2.06,13.23,13.23,0,0,1,.3-1.39C224,18.75,224.12,18.27,224.25,17.77Z"/><path d="M194.24,10.49a7.37,7.37,0,0,1-.4.88,8.44,8.44,0,0,1-2.26,2.39,1,1,0,0,1-1.31,0c-.35-.2-.73-.35-1.08-.56a5.63,5.63,0,0,1-1-.67.68.68,0,0,1,0-1.07,1.73,1.73,0,0,1,.42-.39A1.52,1.52,0,0,0,188.84,9c-.71-.87-1.41-1.75-2.09-2.64a2.51,2.51,0,0,1-.44-.88.69.69,0,0,1,.65-.92,1.85,1.85,0,0,1,1.32.21,4.13,4.13,0,0,1,.63.47L193.21,9a3.2,3.2,0,0,1,.6.62A6.11,6.11,0,0,1,194.24,10.49Z"/><path d="M67.27,37.85c-1.17.54-2.21,1.4-3.65,1.41-1.12,0-2.24.19-3.36.26a1,1,0,0,1-1.09-.82,1,1,0,0,1,.64-1.14,12.68,12.68,0,0,1,1.34-.5c.39-.13.78-.26,1.17-.36a3,3,0,0,1,1.4-.14,9.67,9.67,0,0,0,1.43,0,7.59,7.59,0,0,1,1.07.07A1.15,1.15,0,0,1,67.27,37.85Z"/><path d="M320.32,17.44a4.48,4.48,0,0,1-.84-.45,5.19,5.19,0,0,1-1.36-1.65,4.64,4.64,0,0,0-.52-.67.82.82,0,0,1-.17-.93.85.85,0,0,1,.83-.43,1.35,1.35,0,0,1,1.12.38c.5.51,1,1,1.48,1.55a2.72,2.72,0,0,1,.45.72C321.69,16.82,321.32,17.36,320.32,17.44Z"/><path class="cls-1" d="M445.21,22.42a.69.69,0,0,1-.68-.5.6.6,0,0,1,.39-.75,15,15,0,0,1,2.22-.78,12.85,12.85,0,0,0,2.27-.59,2.15,2.15,0,0,1,.84-.14.66.66,0,0,1,.65.57.62.62,0,0,1-.38.77,8.61,8.61,0,0,1-1.23.34,11.86,11.86,0,0,1-1.35.14,3.84,3.84,0,0,0-1.76.53A6,6,0,0,1,445.21,22.42Z"/><path class="cls-1" d="M455.38,18.42a1.81,1.81,0,0,1-.84,1.63c-.35.27-1.26-.07-1.57-.53s-.16-.79.32-1.16c.23-.17.46-.35.7-.51a.93.93,0,0,1,.93-.2A.87.87,0,0,1,455.38,18.42Z"/><path class="cls-1" d="M158.2,10.76c-.09,1.76-.19,3.53-.27,5.3a4.82,4.82,0,0,0,0,1.14,13.14,13.14,0,0,1,0,3.07c0,.54,0,1.09,0,1.64a9.75,9.75,0,0,1,0,1.43,17.27,17.27,0,0,0,.11,3.87c0,.23,0,.47,0,.71,0,1.7,0,3.41.07,5.11a11.85,11.85,0,0,0,.69,3.86.84.84,0,0,1,.08.2c.07.35.21.71-.14,1a1.17,1.17,0,0,1-1.22-.05.76.76,0,0,1-.2-.2c-.39-.71-.78-1.42-1.15-2.14-.21-.4-.39-.82-.59-1.22-.46-1-.92-1.94-1.4-2.89a3.65,3.65,0,0,0-.59-1,2.29,2.29,0,0,1-.63-2.37A4.89,4.89,0,0,1,154,26.1c.21-.23.21-.62.33-.94s.27-.7.42-1A6.2,6.2,0,0,0,155.2,23a4.54,4.54,0,0,0-.36-3.35,2.32,2.32,0,0,1-.32-.8,5.44,5.44,0,0,0-1.16-2.12.58.58,0,0,0-.61-.29c-.31.05-.33.3-.37.54a2.72,2.72,0,0,0,0,.49c0,1.22.06,2.44.07,3.66a2,2,0,0,1-.43,1.27,1.07,1.07,0,0,1-1.81-.06,3.11,3.11,0,0,1-.63-1.88,4.18,4.18,0,0,0-.68-2.44c-.54-.84-.39-1.2.5-1.72a4.12,4.12,0,0,0,.91-.69.82.82,0,0,0-.13-1.4,10,10,0,0,0-1.07-.58c-.25-.13-.52-.25-.77-.39a1.92,1.92,0,0,1-.94-1.13c-.15-.5-.36-1-.54-1.48a1.24,1.24,0,0,1,.44-1.59,2.83,2.83,0,0,1,2-.67,1.24,1.24,0,0,1,1.08.61c.22.36.5.7.7,1.08a3.83,3.83,0,0,1,.41,1.13,2.75,2.75,0,0,0,.75,1.59c.51.53,1.06.4,1.19-.33A4,4,0,0,0,153,9.54a3.86,3.86,0,0,1-.32-.56,1,1,0,0,1,.77-1.46,13.61,13.61,0,0,1,2-.36,3.13,3.13,0,0,1,1.59.27,2.49,2.49,0,0,1,1.19,2.1c0,.41,0,.82,0,1.22Z"/><path class="cls-1" d="M149.49,26.79a1.87,1.87,0,0,1-.48,1.27c-.22.26-.39.55-.61.8-.36.43-.7.51-1.12.17a3.31,3.31,0,0,0-2.29-.64h-.65c-.38,0-.73-.06-.88-.47a.88.88,0,0,1,.31-.89l1-1.06a2.88,2.88,0,0,0,.88-2c0-1.56-1-3.22-3-2.82l-.91.19a2.52,2.52,0,0,0-1.18.63,4.07,4.07,0,0,1-1.12.62.57.57,0,0,1-.74-.26.66.66,0,0,1,.13-.8,1.86,1.86,0,0,1,.26-.23,5,5,0,0,0,1.41-1.42,3.08,3.08,0,0,1,1.85-1.15,6.74,6.74,0,0,0,2.22-1,1.44,1.44,0,0,1,2.35.67,7,7,0,0,1,.48,1.86,6,6,0,0,0,.62,2.11,2.63,2.63,0,0,1,.25.6,10.27,10.27,0,0,0,1,2.61A4.4,4.4,0,0,1,149.49,26.79Z"/><path class="cls-1" d="M141.31,25.7a.8.8,0,0,1-.79-.7c0-.34.52-.75.93-.73a.71.71,0,0,1,.72.74A.81.81,0,0,1,141.31,25.7Z"/><path class="cls-1" d="M279.75,17a3.07,3.07,0,0,1,2.43,1.72,1.56,1.56,0,0,1-.25,1.62,23,23,0,0,0-2.47,3.86,1.33,1.33,0,0,1-.24.36,2.66,2.66,0,0,0-.88,1.68.86.86,0,0,1-1,.76,1.17,1.17,0,0,1-.42-.09c-.77-.43-1.57-.83-2.3-1.32a1.35,1.35,0,0,1-.59-1.51,1.31,1.31,0,0,1,1.18-1,5.34,5.34,0,0,0,1-.21,1.84,1.84,0,0,0,.72-.44.73.73,0,0,0-.38-1.27c-.2-.05-.43,0-.64-.06a6.7,6.7,0,0,1-1.17-.3,1,1,0,0,1-.16-1.88,14.24,14.24,0,0,1,2.15-1c.65-.25,1.32-.43,2-.64Z"/><path class="cls-1" d="M195.6,27.76c-.2.55-.37,1.12-.6,1.66a7.42,7.42,0,0,1-.62,1A2.25,2.25,0,0,1,194,31c-.91.73-1.83,1.45-2.76,2.15-.57.43-1.17.83-1.76,1.23a5,5,0,0,1-1,.64,1.09,1.09,0,0,1-1.58-1.12,4.15,4.15,0,0,1,.09-.78c.14-.68.36-1.34.43-2a1.85,1.85,0,0,1,1.37-1.58,6.21,6.21,0,0,0,1.61-.9c.92-.68,1.88-1.31,2.85-1.92a2.37,2.37,0,0,1,1-.31C195,26.32,195.53,26.82,195.6,27.76Z"/><path class="cls-1" d="M241.57,27.27A1.63,1.63,0,0,1,240.16,29c-.7.15-1.42.2-2.11.36s-1.32.42-2,.58a4,4,0,0,1-1.33.13,1.19,1.19,0,0,1-1.1-1.21,1.22,1.22,0,0,1,.82-1.36,3.2,3.2,0,0,1,1-.23,3.6,3.6,0,0,0,1.41-.49c.41-.23.87-.36,1.3-.57s.6-.36.91-.53a3.24,3.24,0,0,1,.89-.41c.88-.18,1.31.12,1.49,1C241.49,26.61,241.52,26.94,241.57,27.27Z"/></g><path d="M524.47,46.8h-3.73V44.58H494.17v2.11h-3.64V10.32h33.94Zm-3.73-5.54V13.6H494.17V41.26Zm-1.34-16H495.54V22.63h10.18V21.2h-8.48V15H517.7V21.2h-8.42v1.43H519.4Zm-1.21,14.66H496.76V26.63h21.43Zm-3.56-2.51V29.18H500.37v8.19ZM514,18.94v-1.7H500.89v1.7ZM512.39,36h-9.8V30.49h9.8Zm-3.19-2V32.52h-3.44V34Z"/><path d="M568.33,32.23h-37V29.47h16.56v-1.9H534.63V24.93h13.28V23.11H535.27V20.6h12.64v-2H531.27V15.94h16.64V14.16H535.27V11.48h12.64V9.6h3.73v1.88h13.12v4.46h3.53v2.67h-3.53v4.5H551.64v1.82h13.5v2.64h-13.5v1.9h16.69Zm-3.86,14.51h-3.83V45.68H539.13v1.06h-3.86V34h29.2Zm-3.83-8.23V36.6H539.13v1.91Zm0,4.5V41.06H539.13V43ZM561,15.94V14.16h-9.39v1.78Zm0,4.66v-2h-9.39v2Z"/><path d="M588.58,40.93a51,51,0,0,1-12.69,6.24l-2.17-3.11a47.48,47.48,0,0,0,11.58-5.39ZM610.85,38H573.92V34.53h2.86l-.43-22.24a40.76,40.76,0,0,0,8.14-2.78l1.91,3.15a45.79,45.79,0,0,1-6.28,2.3l0,3.86H585v3.44h-4.75l0,4.29h4.74v3.38h-4.7l.08,4.6h23.63l.18-4.6h-4.41V26.51h4.45l.13-4.29h-4.58v-3.4h4.66l.08-4.21h-4.82V11.09h8.68l-.54,23.44h3ZM591.33,23.73a31.63,31.63,0,0,1-3.15,9.39l-2.92-1.91A31.72,31.72,0,0,0,588,23.07Zm6.84-8.35h-6.84l-.41,3h7.25q0,3.56-.23,7.84t-.85,5.23a3.57,3.57,0,0,1-1.56,1.36,9.45,9.45,0,0,1-3.72.27l-1.16-3.48a10.76,10.76,0,0,0,1.74.14,2.56,2.56,0,0,0,1.31-.2,1,1,0,0,0,.38-.44,24.28,24.28,0,0,0,.29-2.75c.13-1.66.19-3.23.19-4.69h-7.68l1.53-12h3.65l-.29,2.4h6.4ZM611.06,44l-2.36,3.11a64.6,64.6,0,0,0-12.19-5.39l2.28-3.15A77.53,77.53,0,0,1,611.06,44Z"/><path d="M653.9,17l-1.49,3.35a72.83,72.83,0,0,1-10.53-3.48v1.58H628V16.83a70.81,70.81,0,0,1-10.4,3.65l-1.86-3.07q12.53-3.24,18.5-8.27l4.15,1a5,5,0,0,1-.77.8Q643.54,14.69,653.9,17ZM650,31.17h-30.3v-11H650ZM648.2,46.61h-3.73V45.1h-19v1.51h-3.88V33H648.2ZM633,28.21v-5h-9.56v5Zm-1.87-2.1-2.67,1.7a30.11,30.11,0,0,0-3.52-2.5l2.63-1.79A26.72,26.72,0,0,1,631.1,26.11Zm13.37,11.55V35.92h-19v1.74Zm0,4.5V40.29h-19v1.87Zm-5.55-26.62c-2.28-1.27-3.67-2-4.17-2.36a22.73,22.73,0,0,1-4,2.36Zm7.37,12.67v-5H636.7v5Zm-1.61-3a27.56,27.56,0,0,1-3.57,2.47l-2.63-1.78c1.66-1.05,2.82-1.82,3.48-2.3Z"/><path d="M695.41,33.76H673v8.52a55.68,55.68,0,0,0,7.27-2.4v3.89a82.62,82.62,0,0,1-10.84,3.15l-.89-3.06a2.61,2.61,0,0,0,.85-1.7v-8.4h-4.33a35.48,35.48,0,0,1-3.34,13l-3.19-2.39q3.11-5.79,3.11-17.16V10.32h31.84V20h-28v3.88h7V21.33h3.61v2.59h8.14V21.33h3.61v2.59H694V27h-6.15v3.56h7.56Zm-22.92-3.19V27h-7a28.47,28.47,0,0,1-.08,3.56Zm17.18-13.86v-3H665.48v3Zm-5.43,13.86V27H676.1v3.56ZM696.1,43.94,694,47.13Q682.93,43.59,678.44,36l3.38-1.35A19.55,19.55,0,0,0,685.77,39a15.63,15.63,0,0,0,4.79-4.12L694,36.73a26.35,26.35,0,0,1-4.83,4.45A31.8,31.8,0,0,0,696.1,43.94Z"/><path d="M717.77,16.19l-2,3a19.51,19.51,0,0,0-2.18-2.28v2.76h-7.86V18a28.68,28.68,0,0,1-3.93,2.88l-1.06-3.77A28.26,28.26,0,0,0,709.19,9l3.44,1.22a3.33,3.33,0,0,1-.62.93A40.7,40.7,0,0,1,717.77,16.19ZM717.48,44l-3.35,1.74a18.69,18.69,0,0,0-1-2.67,64.21,64.21,0,0,1-9.8,3.48l-1-3.21a1.8,1.8,0,0,0,.79-1.49V21.53h13V35.38h-9.37v6.44a36.32,36.32,0,0,0,4.87-1.94,10.34,10.34,0,0,0-1.23-2.3L713.61,36A39.77,39.77,0,0,1,717.48,44Zm-4.89-17.14V24.73h-5.88v2.15Zm0,5.31V29.6h-5.88v2.59Zm.65-15.63a38.54,38.54,0,0,0-3.32-2.76,28.89,28.89,0,0,1-2.59,2.76Zm24.62,4.89h-2.39v9.43H723.81v2.88h13.11V44.87H723.81v1.82h-3.73V21.45h-1.83V13.93h7.59a26.87,26.87,0,0,0-1.7-3.73L728,9.14a30.53,30.53,0,0,1,1.95,4.79h7.94Zm-3.69-1V17.2H722v3.24Zm-2.43,7.13V23.73h-7.93v3.84Zm1.54,14V37.16h-9.47v4.42Z"/><line class="cls-5" x1="476.07" y1="4.74" x2="476.07" y2="51.15"/></svg>