<svg id="logo_影像" data-name="logo 影像" xmlns="http://www.w3.org/2000/svg" viewBox="0 0 740.74 73.13"><defs><style>.cls-1{fill:#fff;}.cls-2{fill:none;stroke:#fff;stroke-miterlimit:10;stroke-width:2px;}.cls-3{fill:#018a4d;}.cls-4{fill:#066f9f;}.cls-5{fill:#fcdc21;}</style></defs><title>logo_library_w</title><path class="cls-1" d="M130.94,67.17V54h2.38l9.21,10.33V54h2.22V67.17h-2.38l-9.21-10.34V67.17Z"/><path class="cls-1" d="M156.67,66a8.92,8.92,0,0,1-2.3,1.08,8.67,8.67,0,0,1-2.38.31,5.72,5.72,0,0,1-3.22-.76,2.29,2.29,0,0,1-1.12-2,2.11,2.11,0,0,1,.42-1.28,3.09,3.09,0,0,1,1.12-.93,6.14,6.14,0,0,1,1.55-.53,18.92,18.92,0,0,1,1.91-.24,25.37,25.37,0,0,0,3.84-.56c0-.22,0-.36,0-.42a1.53,1.53,0,0,0-.61-1.39,4.42,4.42,0,0,0-2.45-.55,4.76,4.76,0,0,0-2.24.4,2.4,2.4,0,0,0-1.07,1.41L148,60.36a3.51,3.51,0,0,1,.95-1.64,4.45,4.45,0,0,1,1.9-1,11.27,11.27,0,0,1,2.88-.34,9.94,9.94,0,0,1,2.64.29,3.74,3.74,0,0,1,1.5.72,2.35,2.35,0,0,1,.67,1.1,7,7,0,0,1,.11,1.49v2.16A17.56,17.56,0,0,0,158.8,66a3.29,3.29,0,0,0,.55,1.15H157.1A2.83,2.83,0,0,1,156.67,66Zm-.18-3.6A21.4,21.4,0,0,1,153,63a10.15,10.15,0,0,0-1.88.32,1.8,1.8,0,0,0-.84.52,1.15,1.15,0,0,0-.3.77,1.26,1.26,0,0,0,.65,1.08,3.53,3.53,0,0,0,1.91.43,5.69,5.69,0,0,0,2.21-.41,2.92,2.92,0,0,0,1.42-1.12,3,3,0,0,0,.35-1.61Z"/><path class="cls-1" d="M166.71,65.72l.31,1.43a10.06,10.06,0,0,1-1.63.14,4.88,4.88,0,0,1-1.82-.27,1.87,1.87,0,0,1-.91-.74,4.49,4.49,0,0,1-.26-1.9V58.9h-1.58V57.64h1.58V55.28l2.14-1v3.33h2.17V58.9h-2.17v5.57a2.32,2.32,0,0,0,.11.89.82.82,0,0,0,.37.31,1.84,1.84,0,0,0,.74.12A7.81,7.81,0,0,0,166.71,65.72Z"/><path class="cls-1" d="M168.82,55.87V54H171v1.86Zm0,11.3V57.64H171v9.53Z"/><path class="cls-1" d="M173.45,62.4a4.37,4.37,0,0,1,2-3.92,7.29,7.29,0,0,1,4-1.06,6.77,6.77,0,0,1,4.28,1.29,4.26,4.26,0,0,1,1.67,3.56,5,5,0,0,1-.74,2.89,4.68,4.68,0,0,1-2.14,1.64,7.92,7.92,0,0,1-3.07.58,6.76,6.76,0,0,1-4.31-1.28A4.41,4.41,0,0,1,173.45,62.4Zm2.22,0a3.39,3.39,0,0,0,1.06,2.74,4.35,4.35,0,0,0,5.35,0,3.48,3.48,0,0,0,1.06-2.79,3.31,3.31,0,0,0-1.07-2.68,4.37,4.37,0,0,0-5.34,0A3.37,3.37,0,0,0,175.67,62.4Z"/><path class="cls-1" d="M187.88,67.17V57.64h1.94V59a5.15,5.15,0,0,1,4-1.57,7,7,0,0,1,2.11.31,3.39,3.39,0,0,1,1.44.82,2.66,2.66,0,0,1,.67,1.19,7,7,0,0,1,.12,1.57v5.86h-2.15v-5.8a3.27,3.27,0,0,0-.25-1.47,1.77,1.77,0,0,0-.89-.78,3.52,3.52,0,0,0-1.5-.3,4.23,4.23,0,0,0-2.38.66A2.77,2.77,0,0,0,190,62v5.21Z"/><path class="cls-1" d="M209.8,66a8.82,8.82,0,0,1-2.31,1.08,8.6,8.6,0,0,1-2.37.31,5.7,5.7,0,0,1-3.22-.76,2.29,2.29,0,0,1-1.12-2,2.11,2.11,0,0,1,.42-1.28,3,3,0,0,1,1.11-.93,6.42,6.42,0,0,1,1.55-.53,19.2,19.2,0,0,1,1.92-.24,25.58,25.58,0,0,0,3.84-.56c0-.22,0-.36,0-.42a1.53,1.53,0,0,0-.61-1.39,4.42,4.42,0,0,0-2.45-.55,4.81,4.81,0,0,0-2.25.4,2.44,2.44,0,0,0-1.07,1.41l-2.1-.21a3.5,3.5,0,0,1,.94-1.64,4.51,4.51,0,0,1,1.9-1,11.29,11.29,0,0,1,2.89-.34,10,10,0,0,1,2.64.29,3.74,3.74,0,0,1,1.5.72,2.35,2.35,0,0,1,.67,1.1,7.15,7.15,0,0,1,.1,1.49v2.16a17.1,17.1,0,0,0,.14,2.84,3,3,0,0,0,.55,1.15h-2.25A2.7,2.7,0,0,1,209.8,66Zm-.18-3.6a21.6,21.6,0,0,1-3.52.61,10,10,0,0,0-1.88.32,1.84,1.84,0,0,0-.85.52,1.15,1.15,0,0,0-.3.77,1.28,1.28,0,0,0,.65,1.08,3.58,3.58,0,0,0,1.91.43,5.74,5.74,0,0,0,2.22-.41,3,3,0,0,0,1.42-1.12,3,3,0,0,0,.35-1.61Z"/><path class="cls-1" d="M215.08,67.17V54h2.16V67.17Z"/><path class="cls-1" d="M227.66,67.17V54h6.61a21.71,21.71,0,0,1,2.67.13,6.63,6.63,0,0,1,2.17.61,3.73,3.73,0,0,1,1.4,1.27,3.21,3.21,0,0,1,.53,1.8,3.54,3.54,0,0,1-1.42,2.84q-1.43,1.16-5.14,1.16H230v5.35Zm2.32-6.9h4.53a6,6,0,0,0,3.2-.63,2,2,0,0,0,.94-1.77,1.94,1.94,0,0,0-.56-1.41,2.73,2.73,0,0,0-1.46-.78,14.38,14.38,0,0,0-2.17-.11H230Z"/><path class="cls-1" d="M243.73,55.87V54h2.16v1.86Zm0,11.3V57.64h2.16v9.53Z"/><path class="cls-1" d="M249.17,67.17V57.64h1.93V59a5.17,5.17,0,0,1,4.05-1.57,7.07,7.07,0,0,1,2.11.31,3.39,3.39,0,0,1,1.44.82,2.75,2.75,0,0,1,.67,1.19,7,7,0,0,1,.12,1.57v5.86h-2.15v-5.8a3.41,3.41,0,0,0-.25-1.47,1.76,1.76,0,0,0-.9-.78,3.46,3.46,0,0,0-1.5-.3,4.2,4.2,0,0,0-2.37.66,2.74,2.74,0,0,0-1,2.48v5.21Z"/><path class="cls-1" d="M262.4,68l2.09.23a1.43,1.43,0,0,0,.73,1.06,4.49,4.49,0,0,0,2.19.45,4.83,4.83,0,0,0,2.31-.45,2.29,2.29,0,0,0,1.1-1.26,7.85,7.85,0,0,0,.15-2.07,5.11,5.11,0,0,1-3.51,1.25,5.52,5.52,0,0,1-4.06-1.42,4.59,4.59,0,0,1-1.43-3.4,5.09,5.09,0,0,1,.65-2.52,4.51,4.51,0,0,1,1.91-1.78,6.47,6.47,0,0,1,2.94-.63,5.22,5.22,0,0,1,3.71,1.37V57.64h2v8.24a6.1,6.1,0,0,1-.6,3.15,4,4,0,0,1-1.91,1.47,8.53,8.53,0,0,1-3.23.53,7.64,7.64,0,0,1-3.67-.76A2.39,2.39,0,0,1,262.4,68Zm1.78-5.73a3.45,3.45,0,0,0,1,2.74,4,4,0,0,0,5,0,3.32,3.32,0,0,0,1-2.68,3.28,3.28,0,0,0-1-2.64,3.71,3.71,0,0,0-2.49-.89,3.58,3.58,0,0,0-2.45.88A3.23,3.23,0,0,0,264.18,62.23Z"/><path class="cls-1" d="M281.12,65.72l.31,1.43a10.06,10.06,0,0,1-1.63.14A4.92,4.92,0,0,1,278,67a1.79,1.79,0,0,1-.9-.74,4.28,4.28,0,0,1-.27-1.9V58.9h-1.58V57.64h1.58V55.28l2.14-1v3.33h2.17V58.9H279v5.57a2.08,2.08,0,0,0,.12.89.77.77,0,0,0,.37.31,1.79,1.79,0,0,0,.73.12A7.68,7.68,0,0,0,281.12,65.72Z"/><path class="cls-1" d="M291.55,67.17v-1.4a5.22,5.22,0,0,1-4,1.61,6.51,6.51,0,0,1-2.1-.32,3.71,3.71,0,0,1-1.45-.81,2.82,2.82,0,0,1-.66-1.2,6.13,6.13,0,0,1-.13-1.51v-5.9h2.15v5.28a7,7,0,0,0,.13,1.71,1.74,1.74,0,0,0,.86,1A3.36,3.36,0,0,0,288,66a4.45,4.45,0,0,0,1.82-.37,2.45,2.45,0,0,0,1.2-1,3.91,3.91,0,0,0,.35-1.87v-5.1h2.16v9.53Z"/><path class="cls-1" d="M296.85,67.17V57.64h1.94V59a5.15,5.15,0,0,1,4-1.57,7,7,0,0,1,2.11.31,3.39,3.39,0,0,1,1.44.82,2.66,2.66,0,0,1,.67,1.19,7,7,0,0,1,.12,1.57v5.86H305v-5.8a3.27,3.27,0,0,0-.25-1.47,1.77,1.77,0,0,0-.89-.78,3.52,3.52,0,0,0-1.5-.3,4.23,4.23,0,0,0-2.38.66A2.77,2.77,0,0,0,299,62v5.21Z"/><path class="cls-1" d="M310.08,68l2.09.23a1.45,1.45,0,0,0,.73,1.06,4.52,4.52,0,0,0,2.19.45,4.83,4.83,0,0,0,2.31-.45A2.29,2.29,0,0,0,318.5,68a7.7,7.7,0,0,0,.16-2.07,5.12,5.12,0,0,1-3.52,1.25,5.48,5.48,0,0,1-4.05-1.42,4.6,4.6,0,0,1-1.44-3.4,5,5,0,0,1,.66-2.52,4.45,4.45,0,0,1,1.91-1.78,6.42,6.42,0,0,1,2.93-.63,5.22,5.22,0,0,1,3.71,1.37V57.64h2v8.24a6,6,0,0,1-.61,3.15,4,4,0,0,1-1.91,1.47,8.5,8.5,0,0,1-3.23.53,7.67,7.67,0,0,1-3.67-.76A2.39,2.39,0,0,1,310.08,68Zm1.78-5.73a3.42,3.42,0,0,0,1,2.74,4,4,0,0,0,5,0,3.33,3.33,0,0,0,1-2.68,3.28,3.28,0,0,0-1-2.64,3.71,3.71,0,0,0-2.49-.89,3.55,3.55,0,0,0-2.44.88A3.24,3.24,0,0,0,311.86,62.23Z"/><path class="cls-1" d="M342.69,54H345v7.6a6.9,6.9,0,0,1-.6,3.15,4.33,4.33,0,0,1-2.15,1.9,9.74,9.74,0,0,1-4.1.73,10.88,10.88,0,0,1-4-.63,4.28,4.28,0,0,1-2.24-1.85,6.77,6.77,0,0,1-.67-3.3V54h2.32v7.6a5.57,5.57,0,0,0,.43,2.52,2.75,2.75,0,0,0,1.45,1.25,6.37,6.37,0,0,0,2.53.44A5.91,5.91,0,0,0,341.6,65c.73-.58,1.09-1.69,1.09-3.34Z"/><path class="cls-1" d="M348.6,67.17V57.64h1.94V59a5.15,5.15,0,0,1,4-1.57,7,7,0,0,1,2.11.31,3.37,3.37,0,0,1,1.45.82,2.75,2.75,0,0,1,.67,1.19,7,7,0,0,1,.12,1.57v5.86h-2.16v-5.8a3.27,3.27,0,0,0-.25-1.47,1.73,1.73,0,0,0-.89-.78,3.52,3.52,0,0,0-1.5-.3,4.23,4.23,0,0,0-2.38.66,2.76,2.76,0,0,0-1,2.48v5.21Z"/><path class="cls-1" d="M362.24,55.87V54h2.15v1.86Zm0,11.3V57.64h2.15v9.53Z"/><path class="cls-1" d="M371.2,67.17l-4.83-9.53h2.27l2.73,5.71q.44.91.81,1.92c.19-.51.46-1.11.8-1.82l2.82-5.81H378l-4.81,9.53Z"/><path class="cls-1" d="M388.62,64.1l2.22.21a4.2,4.2,0,0,1-1.95,2.27,7.39,7.39,0,0,1-3.63.8,7,7,0,0,1-4.42-1.28,4.36,4.36,0,0,1-1.64-3.62,4.52,4.52,0,0,1,1.65-3.73,6.66,6.66,0,0,1,4.29-1.33,6.43,6.43,0,0,1,4.16,1.31,4.4,4.4,0,0,1,1.61,3.66c0,.09,0,.23,0,.43h-9.47a3.21,3.21,0,0,0,1.18,2.4,4.17,4.17,0,0,0,2.66.84,4.1,4.1,0,0,0,2-.47A3.25,3.25,0,0,0,388.62,64.1Zm-7.07-2.61h7.09a2.76,2.76,0,0,0-.81-1.8,3.8,3.8,0,0,0-2.67-.94,4,4,0,0,0-2.49.75A2.62,2.62,0,0,0,381.55,61.49Z"/><path class="cls-1" d="M393.52,67.17V57.64h1.94v1.44a4.28,4.28,0,0,1,1.37-1.33,2.93,2.93,0,0,1,1.38-.33,5.36,5.36,0,0,1,2.22.52l-.75,1.5a3.89,3.89,0,0,0-1.58-.35,2.51,2.51,0,0,0-1.26.32,1.79,1.79,0,0,0-.81.89,5,5,0,0,0-.35,1.88v5Z"/><path class="cls-1" d="M400.84,64.32l2.13-.25a2.14,2.14,0,0,0,1,1.47,4.34,4.34,0,0,0,2.29.52,4.19,4.19,0,0,0,2.2-.46,1.27,1.27,0,0,0,.72-1.06,1,1,0,0,0-.63-.86,11,11,0,0,0-2.2-.55,25,25,0,0,1-3.29-.78,3,3,0,0,1-1.38-.9,2,2,0,0,1-.09-2.46,3,3,0,0,1,1.06-.9,5,5,0,0,1,1.37-.47,8.48,8.48,0,0,1,1.86-.2,9.45,9.45,0,0,1,2.63.33,3.69,3.69,0,0,1,1.67.87,3.09,3.09,0,0,1,.74,1.48l-2.11.21a1.66,1.66,0,0,0-.83-1.15,3.86,3.86,0,0,0-1.94-.41,4.41,4.41,0,0,0-2.12.37c-.42.25-.64.53-.64.86a.77.77,0,0,0,.27.57,2.08,2.08,0,0,0,.82.43c.22.06.85.19,1.9.41,1.53.31,2.59.56,3.19.75a3.21,3.21,0,0,1,1.42.85,2,2,0,0,1,.51,1.38,2.26,2.26,0,0,1-.62,1.52A4,4,0,0,1,409,67a8.49,8.49,0,0,1-2.68.39,7.42,7.42,0,0,1-3.77-.77A3.47,3.47,0,0,1,400.84,64.32Z"/><path class="cls-1" d="M414,55.87V54h2.15v1.86Zm0,11.3V57.64h2.15v9.53Z"/><path class="cls-1" d="M424.1,65.72l.31,1.43a10.06,10.06,0,0,1-1.63.14A4.82,4.82,0,0,1,421,67a1.82,1.82,0,0,1-.91-.74,4.28,4.28,0,0,1-.27-1.9V58.9h-1.58V57.64h1.58V55.28l2.14-1v3.33h2.17V58.9h-2.17v5.57a2.08,2.08,0,0,0,.12.89.77.77,0,0,0,.37.31,1.79,1.79,0,0,0,.73.12A7.68,7.68,0,0,0,424.1,65.72Z"/><path class="cls-1" d="M426.11,70.84l-.24-1.52a5.93,5.93,0,0,0,1.23.14,2.86,2.86,0,0,0,1.15-.18,1.73,1.73,0,0,0,.71-.5,7.26,7.26,0,0,0,.65-1.2c0-.09.11-.22.2-.39L425,57.64h2.33L430,63.16a20,20,0,0,1,.92,2.21,17.18,17.18,0,0,1,.89-2.18l2.71-5.55h2.16l-4.84,9.69a16.06,16.06,0,0,1-1.21,2.16,3.69,3.69,0,0,1-1.31,1.17,3.91,3.91,0,0,1-1.77.37A5.63,5.63,0,0,1,426.11,70.84Z"/><path class="cls-1" d="M444.46,62.4a4.35,4.35,0,0,1,2-3.92,7.27,7.27,0,0,1,4-1.06,6.79,6.79,0,0,1,4.28,1.29,4.25,4.25,0,0,1,1.66,3.56,5,5,0,0,1-.73,2.89,4.73,4.73,0,0,1-2.14,1.64,7.92,7.92,0,0,1-3.07.58,6.81,6.81,0,0,1-4.32-1.28A4.43,4.43,0,0,1,444.46,62.4Zm2.21,0a3.4,3.4,0,0,0,1.07,2.74,4.35,4.35,0,0,0,5.35,0,3.48,3.48,0,0,0,1.06-2.79,3.34,3.34,0,0,0-1.07-2.68,4.37,4.37,0,0,0-5.34,0A3.38,3.38,0,0,0,446.67,62.4Z"/><path class="cls-1" d="M459.4,67.17V58.9h-1.9V57.64h1.9v-1a3.44,3.44,0,0,1,.23-1.43,2.31,2.31,0,0,1,1.09-1,5.07,5.07,0,0,1,2.2-.39,13.52,13.52,0,0,1,2,.16l-.32,1.41a9.6,9.6,0,0,0-1.27-.09,2.39,2.39,0,0,0-1.39.31,1.44,1.44,0,0,0-.41,1.18v.88H464V58.9h-2.48v8.27Z"/><path class="cls-1" d="M472,62.94l2.19-.14a3,3,0,0,0,.72,1.62,4,4,0,0,0,1.76,1,8.71,8.71,0,0,0,2.7.39,8.31,8.31,0,0,0,2.34-.3,3.22,3.22,0,0,0,1.51-.81,1.6,1.6,0,0,0,.5-1.12,1.43,1.43,0,0,0-.48-1.08,3.73,3.73,0,0,0-1.58-.78c-.47-.14-1.51-.35-3.12-.64a20.85,20.85,0,0,1-3.39-.82,4.62,4.62,0,0,1-1.87-1.23,2.46,2.46,0,0,1-.61-1.64,2.8,2.8,0,0,1,.75-1.86,4.74,4.74,0,0,1,2.2-1.31,10.85,10.85,0,0,1,3.22-.45,11.54,11.54,0,0,1,3.44.47,5,5,0,0,1,2.29,1.39,3.35,3.35,0,0,1,.86,2.07l-2.22.13A2.54,2.54,0,0,0,482,56a6,6,0,0,0-3.05-.63,6.25,6.25,0,0,0-3.07.57,1.65,1.65,0,0,0-1,1.4,1.35,1.35,0,0,0,.69,1.16,11,11,0,0,0,3.49.94,29,29,0,0,1,3.89.84,5.33,5.33,0,0,1,2.26,1.34,2.75,2.75,0,0,1,.73,1.87,3,3,0,0,1-.8,2,5.31,5.31,0,0,1-2.31,1.45,10.44,10.44,0,0,1-3.38.51,13.1,13.1,0,0,1-4-.52A5.51,5.51,0,0,1,473,65.31,3.71,3.71,0,0,1,472,62.94Z"/><path class="cls-1" d="M497.13,63.68l2.12.2a3.87,3.87,0,0,1-1.78,2.57,6.29,6.29,0,0,1-3.51.93,6.48,6.48,0,0,1-4.19-1.27,4.45,4.45,0,0,1-1.59-3.67,5.16,5.16,0,0,1,.69-2.7A4.17,4.17,0,0,1,490.94,58a7.94,7.94,0,0,1,3-.58,6.59,6.59,0,0,1,3.39.79,3.54,3.54,0,0,1,1.69,2.23l-2.1.24a2.51,2.51,0,0,0-1.06-1.44,3.25,3.25,0,0,0-1.83-.49,3.85,3.85,0,0,0-2.64.88,3.44,3.44,0,0,0-1,2.76,3.56,3.56,0,0,0,1,2.8,4.16,4.16,0,0,0,4.68.28A2.65,2.65,0,0,0,497.13,63.68Z"/><path class="cls-1" d="M501.1,55.87V54h2.16v1.86Zm0,11.3V57.64h2.16v9.53Z"/><path class="cls-1" d="M515.23,64.1l2.23.21a4.2,4.2,0,0,1-2,2.27,7.4,7.4,0,0,1-3.64.8,7,7,0,0,1-4.42-1.28,4.35,4.35,0,0,1-1.63-3.62,4.52,4.52,0,0,1,1.65-3.73,6.65,6.65,0,0,1,4.28-1.33,6.39,6.39,0,0,1,4.16,1.31,4.41,4.41,0,0,1,1.62,3.66c0,.09,0,.23,0,.43H508a3.22,3.22,0,0,0,1.19,2.4,4.14,4.14,0,0,0,2.65.84,4.08,4.08,0,0,0,2-.47A3.2,3.2,0,0,0,515.23,64.1Zm-7.07-2.61h7.1a2.77,2.77,0,0,0-.82-1.8,3.77,3.77,0,0,0-2.67-.94,4.07,4.07,0,0,0-2.49.75A2.65,2.65,0,0,0,508.16,61.49Z"/><path class="cls-1" d="M520.16,67.17V57.64h1.94V59a5.15,5.15,0,0,1,4-1.57,7,7,0,0,1,2.11.31,3.37,3.37,0,0,1,1.45.82,2.86,2.86,0,0,1,.67,1.19,7,7,0,0,1,.12,1.57v5.86h-2.16v-5.8a3.27,3.27,0,0,0-.25-1.47,1.73,1.73,0,0,0-.89-.78,3.52,3.52,0,0,0-1.5-.3,4.23,4.23,0,0,0-2.38.66,2.77,2.77,0,0,0-1,2.48v5.21Z"/><path class="cls-1" d="M542.08,63.68l2.11.2a3.89,3.89,0,0,1-1.77,2.57,6.29,6.29,0,0,1-3.51.93,6.51,6.51,0,0,1-4.2-1.27,4.47,4.47,0,0,1-1.58-3.67,5.26,5.26,0,0,1,.68-2.7A4.24,4.24,0,0,1,535.89,58a7.94,7.94,0,0,1,3-.58,6.53,6.53,0,0,1,3.38.79A3.54,3.54,0,0,1,544,60.44l-2.09.24a2.51,2.51,0,0,0-1.06-1.44,3.3,3.3,0,0,0-1.84-.49,3.88,3.88,0,0,0-2.64.88,3.44,3.44,0,0,0-1,2.76,3.59,3.59,0,0,0,1,2.8,3.73,3.73,0,0,0,2.56.87,3.65,3.65,0,0,0,2.12-.59A2.63,2.63,0,0,0,542.08,63.68Z"/><path class="cls-1" d="M554.73,64.1l2.23.21a4.2,4.2,0,0,1-2,2.27,7.4,7.4,0,0,1-3.64.8A7,7,0,0,1,547,66.1a4.35,4.35,0,0,1-1.63-3.62A4.52,4.52,0,0,1,547,58.75a6.65,6.65,0,0,1,4.28-1.33,6.44,6.44,0,0,1,4.17,1.31A4.43,4.43,0,0,1,557,62.39c0,.09,0,.23,0,.43h-9.48a3.22,3.22,0,0,0,1.19,2.4,4.61,4.61,0,0,0,4.68.37A3.24,3.24,0,0,0,554.73,64.1Zm-7.07-2.61h7.1a2.77,2.77,0,0,0-.82-1.8,3.76,3.76,0,0,0-2.66-.94,4.1,4.1,0,0,0-2.5.75A2.68,2.68,0,0,0,547.66,61.49Z"/><path class="cls-1" d="M574.76,66a8.92,8.92,0,0,1-2.3,1.08,8.67,8.67,0,0,1-2.38.31,5.72,5.72,0,0,1-3.22-.76,2.29,2.29,0,0,1-1.12-2,2.11,2.11,0,0,1,.42-1.28,3.09,3.09,0,0,1,1.12-.93,6.28,6.28,0,0,1,1.55-.53,18.92,18.92,0,0,1,1.91-.24,25.37,25.37,0,0,0,3.84-.56c0-.22,0-.36,0-.42a1.53,1.53,0,0,0-.61-1.39,4.42,4.42,0,0,0-2.45-.55,4.76,4.76,0,0,0-2.24.4,2.4,2.4,0,0,0-1.07,1.41l-2.11-.21a3.51,3.51,0,0,1,.95-1.64,4.45,4.45,0,0,1,1.9-1,11.27,11.27,0,0,1,2.88-.34,9.94,9.94,0,0,1,2.64.29,3.74,3.74,0,0,1,1.5.72,2.35,2.35,0,0,1,.67,1.1,7,7,0,0,1,.11,1.49v2.16A16,16,0,0,0,576.9,66a3.09,3.09,0,0,0,.54,1.15h-2.25A2.83,2.83,0,0,1,574.76,66Zm-.18-3.6a21.4,21.4,0,0,1-3.52.61,10.15,10.15,0,0,0-1.88.32,1.86,1.86,0,0,0-.84.52,1.15,1.15,0,0,0-.3.77,1.26,1.26,0,0,0,.65,1.08,3.53,3.53,0,0,0,1.91.43,5.69,5.69,0,0,0,2.21-.41A2.56,2.56,0,0,0,574.58,63Z"/><path class="cls-1" d="M580.1,67.17V57.64H582V59a5.17,5.17,0,0,1,4.05-1.57,7.07,7.07,0,0,1,2.11.31,3.39,3.39,0,0,1,1.44.82,2.75,2.75,0,0,1,.67,1.19,7,7,0,0,1,.12,1.57v5.86h-2.15v-5.8A3.25,3.25,0,0,0,588,59.9a1.69,1.69,0,0,0-.89-.78,3.46,3.46,0,0,0-1.5-.3,4.2,4.2,0,0,0-2.37.66,2.74,2.74,0,0,0-1,2.48v5.21Z"/><path class="cls-1" d="M602,67.17V66a4.41,4.41,0,0,1-3.55,1.41,6.34,6.34,0,0,1-2.79-.62,4.78,4.78,0,0,1-2-1.76,4.85,4.85,0,0,1-.7-2.59,5.26,5.26,0,0,1,.64-2.59,4.21,4.21,0,0,1,1.9-1.78,6.39,6.39,0,0,1,2.83-.62,5.47,5.47,0,0,1,2.05.37,4.28,4.28,0,0,1,1.46.94V54H604V67.17Zm-6.8-4.76a3.49,3.49,0,0,0,1,2.74,3.59,3.59,0,0,0,2.43.91,3.51,3.51,0,0,0,2.4-.87,3.33,3.33,0,0,0,1-2.64,3.69,3.69,0,0,0-1-2.87,3.53,3.53,0,0,0-2.47-.92,3.4,3.4,0,0,0-2.4.88A3.59,3.59,0,0,0,595.16,62.41Z"/><path class="cls-1" d="M618.45,67.17V55.57h-5.78V54h13.9v1.56h-5.8v11.6Z"/><path class="cls-1" d="M634.66,64.1l2.22.21a4.2,4.2,0,0,1-2,2.27,7.39,7.39,0,0,1-3.63.8,7,7,0,0,1-4.42-1.28,4.36,4.36,0,0,1-1.64-3.62,4.52,4.52,0,0,1,1.65-3.73,6.66,6.66,0,0,1,4.29-1.33,6.41,6.41,0,0,1,4.16,1.31A4.41,4.41,0,0,1,637,62.39c0,.09,0,.23,0,.43h-9.47a3.21,3.21,0,0,0,1.18,2.4,4.17,4.17,0,0,0,2.66.84,4.1,4.1,0,0,0,2-.47A3.25,3.25,0,0,0,634.66,64.1Zm-7.07-2.61h7.09a2.76,2.76,0,0,0-.81-1.8,3.8,3.8,0,0,0-2.67-.94,4,4,0,0,0-2.49.75A2.62,2.62,0,0,0,627.59,61.49Z"/><path class="cls-1" d="M647.88,63.68l2.11.2a3.89,3.89,0,0,1-1.77,2.57,6.33,6.33,0,0,1-3.51.93,6.51,6.51,0,0,1-4.2-1.27,4.47,4.47,0,0,1-1.58-3.67,5.26,5.26,0,0,1,.68-2.7A4.24,4.24,0,0,1,641.69,58a7.94,7.94,0,0,1,3-.58,6.53,6.53,0,0,1,3.38.79,3.54,3.54,0,0,1,1.69,2.23l-2.09.24a2.51,2.51,0,0,0-1.06-1.44,3.3,3.3,0,0,0-1.84-.49,3.88,3.88,0,0,0-2.64.88,3.44,3.44,0,0,0-1,2.76,3.59,3.59,0,0,0,1,2.8,3.73,3.73,0,0,0,2.56.87,3.65,3.65,0,0,0,2.12-.59A2.63,2.63,0,0,0,647.88,63.68Z"/><path class="cls-1" d="M651.84,67.17V54H654v4.72a5.61,5.61,0,0,1,3.8-1.31,6.56,6.56,0,0,1,2.46.42A3,3,0,0,1,661.74,59a4.19,4.19,0,0,1,.44,2.14v6H660v-6a2.08,2.08,0,0,0-.7-1.76,3.09,3.09,0,0,0-2-.55,4.36,4.36,0,0,0-1.8.37,2.44,2.44,0,0,0-1.2,1A3.57,3.57,0,0,0,654,62v5.22Z"/><path class="cls-1" d="M665.46,67.17V57.64h1.94V59a5.15,5.15,0,0,1,4-1.57,7.14,7.14,0,0,1,2.12.31,3.39,3.39,0,0,1,1.44.82,2.75,2.75,0,0,1,.67,1.19,7,7,0,0,1,.12,1.57v5.86h-2.16v-5.8a3.27,3.27,0,0,0-.25-1.47,1.69,1.69,0,0,0-.89-.78,3.52,3.52,0,0,0-1.5-.3,4.17,4.17,0,0,0-2.37.66,2.74,2.74,0,0,0-1,2.48v5.21Z"/><path class="cls-1" d="M678.29,62.4a4.35,4.35,0,0,1,2-3.92,7.24,7.24,0,0,1,4-1.06,6.8,6.8,0,0,1,4.29,1.29,4.28,4.28,0,0,1,1.66,3.56,5,5,0,0,1-.74,2.89,4.68,4.68,0,0,1-2.14,1.64,7.88,7.88,0,0,1-3.07.58,6.8,6.8,0,0,1-4.31-1.28A4.41,4.41,0,0,1,678.29,62.4Zm2.21,0a3.39,3.39,0,0,0,1.06,2.74,4.35,4.35,0,0,0,5.35,0A3.48,3.48,0,0,0,688,62.35a3.34,3.34,0,0,0-1.07-2.68,4,4,0,0,0-2.67-.91,4,4,0,0,0-2.68.91A3.37,3.37,0,0,0,680.5,62.4Z"/><path class="cls-1" d="M692.67,67.17V54h2.15V67.17Z"/><path class="cls-1" d="M697.36,62.4a4.35,4.35,0,0,1,2-3.92,7.24,7.24,0,0,1,4-1.06,6.8,6.8,0,0,1,4.29,1.29,4.28,4.28,0,0,1,1.66,3.56,5,5,0,0,1-.74,2.89,4.68,4.68,0,0,1-2.14,1.64,7.92,7.92,0,0,1-3.07.58A6.78,6.78,0,0,1,699,66.1,4.41,4.41,0,0,1,697.36,62.4Zm2.21,0a3.39,3.39,0,0,0,1.06,2.74,4.35,4.35,0,0,0,5.35,0,3.48,3.48,0,0,0,1.07-2.79A3.31,3.31,0,0,0,706,59.67a4.37,4.37,0,0,0-5.34,0A3.37,3.37,0,0,0,699.57,62.4Z"/><path class="cls-1" d="M711.39,68l2.09.23a1.43,1.43,0,0,0,.73,1.06,4.52,4.52,0,0,0,2.19.45,4.83,4.83,0,0,0,2.31-.45,2.29,2.29,0,0,0,1.1-1.26,8.16,8.16,0,0,0,.16-2.07,5.16,5.16,0,0,1-3.52,1.25,5.52,5.52,0,0,1-4.06-1.42,4.62,4.62,0,0,1-1.43-3.4,5,5,0,0,1,.66-2.52,4.43,4.43,0,0,1,1.9-1.78,6.5,6.5,0,0,1,2.94-.63,5.22,5.22,0,0,1,3.71,1.37V57.64h2v8.24a6.1,6.1,0,0,1-.6,3.15,4,4,0,0,1-1.91,1.47,8.53,8.53,0,0,1-3.23.53,7.64,7.64,0,0,1-3.67-.76A2.39,2.39,0,0,1,711.39,68Zm1.78-5.73a3.45,3.45,0,0,0,1,2.74,3.71,3.71,0,0,0,2.49.86,3.66,3.66,0,0,0,2.49-.86,3.32,3.32,0,0,0,1-2.68,3.28,3.28,0,0,0-1-2.64,3.71,3.71,0,0,0-2.49-.89,3.55,3.55,0,0,0-2.44.88A3.24,3.24,0,0,0,713.17,62.23Z"/><path class="cls-1" d="M725.31,70.84l-.24-1.52a5.93,5.93,0,0,0,1.23.14,2.83,2.83,0,0,0,1.15-.18,1.67,1.67,0,0,0,.71-.5,7,7,0,0,0,.66-1.2c0-.09.1-.22.19-.39l-4.82-9.55h2.32l2.64,5.52a18.28,18.28,0,0,1,.92,2.21,18.79,18.79,0,0,1,.89-2.18l2.71-5.55h2.16L731,67.33a16.32,16.32,0,0,1-1.2,2.16,3.72,3.72,0,0,1-1.32,1.17,3.86,3.86,0,0,1-1.77.37A5.69,5.69,0,0,1,725.31,70.84Z"/><g id="logo-bmp.psd"><path class="cls-1" d="M130.51,19.85a10.35,10.35,0,0,1,.54-3.82,5.28,5.28,0,0,0,.23-1.55c0-.57,0-1.15,0-1.73,0-.36.14-.71.5-.78a1.13,1.13,0,0,1,.78.21,1.71,1.71,0,0,1,.7,1.36,8.4,8.4,0,0,0,.65,2.7,2,2,0,0,1,0,1.68,11.21,11.21,0,0,0-.55,4.6c0,1.89,0,3.77-.18,5.66-.2,2.29-.09,4.6-.07,6.91a3.23,3.23,0,0,0,.3,1.1,2.1,2.1,0,0,1,.11,1.46.69.69,0,0,0-.05.13c-.28,1.24.44,2,1.7,1.69.55-.12,1.09-.34,1.64-.5,1-.29,1.93-.57,2.9-.84.48-.13,1-.25,1.46-.36a6.57,6.57,0,0,1,.77-.16c.49-.08,1-.13,1.48-.24a5.67,5.67,0,0,1,1.84-.09c.93.07,1.87,0,2.8,0,.72,0,1.44-.09,2.15-.07a2.57,2.57,0,0,1,1.46.54,2.56,2.56,0,0,0,1.89.55,2.63,2.63,0,0,0,.56-.1c.6-.18.76-.46.51-1s-.6-1.19-.91-1.78c-.07-.13-.14-.25-.2-.38-.39-.87-.78-1.74-1.18-2.61a1.24,1.24,0,0,0-1-.82,1.23,1.23,0,0,0-1.15.71A7,7,0,0,1,147,35,5.83,5.83,0,0,0,145,36a.83.83,0,0,1-.52.17.53.53,0,0,1-.51-.82,5.1,5.1,0,0,1,.74-.94c.76-.8,1.55-1.57,2.3-2.37a1.45,1.45,0,0,0,.28-.57c.19-.67-.21-1.19-.89-1.08a8.6,8.6,0,0,0-1.77.54c-.89.35-1.76.76-2.62,1.18a6.73,6.73,0,0,0-1.09.66c-.5.38-.95.81-1.44,1.19a1.3,1.3,0,0,1-1.88-.1c-.65-.66-1.29-1.34-1.89-2.06a1.33,1.33,0,0,1-.25-.79.54.54,0,0,1,.64-.6,4.3,4.3,0,0,1,.69.16,3.79,3.79,0,0,0,2.79-.13,1.2,1.2,0,0,0,.75-1.26c-.05-.5-.23-.67-.74-.68a5.48,5.48,0,0,0-.57,0,1.31,1.31,0,0,1-1.55-1,6.45,6.45,0,0,0-.83-2,4.39,4.39,0,0,1-.42-3.19,4.06,4.06,0,0,1,1.25-2.19,6.94,6.94,0,0,0,.8-.92,1.13,1.13,0,0,0-.35-1.72,5,5,0,0,1-1-1c-.37-.51-.2-.86.42-1a6.93,6.93,0,0,1,1.29,0,2.23,2.23,0,0,0,1.37-.34,7,7,0,0,1,3.08-.87,4.25,4.25,0,0,0,1.11-.25,1.3,1.3,0,0,0,.68-1.85,8.7,8.7,0,0,0-.53-.94,1.45,1.45,0,0,0-1.83-.74,3.51,3.51,0,0,0-.9.42,2.09,2.09,0,0,1-2.43,0,8.13,8.13,0,0,0-1.22-.6c-.62-.28-1-.66-.9-1.07.09-.6.61-.67,1.07-.79a4.31,4.31,0,0,1,.71-.09,10.86,10.86,0,0,0,2.56-.67A26.15,26.15,0,0,1,144.12,7l2.52-.58a9.39,9.39,0,0,1,3-.36,4.83,4.83,0,0,0,1.6-.31,4,4,0,0,0,.93-.38A6.23,6.23,0,0,1,156.74,5a5.54,5.54,0,0,1,2.77,1.42,28.25,28.25,0,0,1,3,3.27,4,4,0,0,1,.65,3c-.1.88-.26,1.75-.33,2.63,0,.42.08.85.07,1.28,0,2.28-.09,4.55-.14,6.83,0,.12,0,.24,0,.35-.09.69-.16,1.38-.26,2.06s-.2,1.28-.35,1.91A7.51,7.51,0,0,0,162,30c.06.69-.06,1.38-.05,2.08,0,1.14.06,2.29.1,3.44a11.27,11.27,0,0,1-.19,3.27,9.26,9.26,0,0,0-.08,2.58c0,.64.15,1.28.23,1.92a6.37,6.37,0,0,1-.22,2.91c-.37,1.06-1.21,1.27-2,.47a3.21,3.21,0,0,1-.63-1c-.37-1-.71-2-1-3.06a5.2,5.2,0,0,0-1.35-1.92c-.3-.31-.63-.59-.95-.88a1.11,1.11,0,0,0-1.66,0,2,2,0,0,1-2.4.56,13.77,13.77,0,0,0-5.51-.76c-1.21.14-2.41.39-3.61.57a19.2,19.2,0,0,1-2,.27,4,4,0,0,0-1.66.41,11.84,11.84,0,0,1-3.31.89,7,7,0,0,0-1.37.41,1.77,1.77,0,0,1-2.16-.38,3.71,3.71,0,0,1-1.09-1.48,1,1,0,0,0-.18-.31,4.12,4.12,0,0,1-.79-3.32,6.35,6.35,0,0,0-.14-2.13,4.61,4.61,0,0,1,.06-2.6,13.69,13.69,0,0,0,.36-4c0-2.06.06-4.12.09-6.18C130.52,21.14,130.51,20.5,130.51,19.85Zm27.69-9.09h0c0-.4,0-.81,0-1.22A2.49,2.49,0,0,0,157,7.43a3.13,3.13,0,0,0-1.59-.27,13.61,13.61,0,0,0-2,.36A1,1,0,0,0,152.64,9a3.86,3.86,0,0,0,.32.56,4,4,0,0,1,.41,2.92c-.13.73-.68.86-1.19.33a2.75,2.75,0,0,1-.75-1.59,3.83,3.83,0,0,0-.41-1.13c-.2-.38-.48-.72-.7-1.08a1.24,1.24,0,0,0-1.08-.61,2.83,2.83,0,0,0-2,.67,1.24,1.24,0,0,0-.44,1.59c.18.49.39,1,.54,1.48a1.92,1.92,0,0,0,.94,1.13c.25.14.52.26.77.39a10,10,0,0,1,1.07.58.82.82,0,0,1,.13,1.4,4.12,4.12,0,0,1-.91.69c-.89.52-1,.88-.5,1.72a4.18,4.18,0,0,1,.68,2.44,3.11,3.11,0,0,0,.63,1.88,1.07,1.07,0,0,0,1.81.06,2,2,0,0,0,.43-1.27c0-1.22-.05-2.44-.07-3.66a2.72,2.72,0,0,1,0-.49c0-.24.06-.49.37-.54a.58.58,0,0,1,.61.29,5.44,5.44,0,0,1,1.16,2.12,2.32,2.32,0,0,0,.32.8A4.54,4.54,0,0,1,155.2,23a6.2,6.2,0,0,1-.46,1.11c-.15.34-.29.69-.42,1s-.12.71-.33.94a4.89,4.89,0,0,0-.91,2.15,2.29,2.29,0,0,0,.63,2.37,3.65,3.65,0,0,1,.59,1c.48.95.94,1.92,1.4,2.89.2.4.38.82.59,1.22.37.72.76,1.43,1.15,2.14a.76.76,0,0,0,.2.2,1.17,1.17,0,0,0,1.22.05c.35-.29.21-.65.14-1a.84.84,0,0,0-.08-.2,11.85,11.85,0,0,1-.69-3.86c-.08-1.7,0-3.41-.07-5.11,0-.24,0-.48,0-.71a17.27,17.27,0,0,1-.11-3.87,9.75,9.75,0,0,0,0-1.43c0-.55,0-1.1,0-1.64a13.14,13.14,0,0,0,0-3.07,4.82,4.82,0,0,1,0-1.14C158,14.29,158.11,12.52,158.2,10.76Zm-8.71,16a4.4,4.4,0,0,0-.3-1.16,10.27,10.27,0,0,1-1-2.61,2.63,2.63,0,0,0-.25-.6,6,6,0,0,1-.62-2.11,7,7,0,0,0-.48-1.86,1.44,1.44,0,0,0-2.35-.67,6.74,6.74,0,0,1-2.22,1,3.08,3.08,0,0,0-1.85,1.15A5,5,0,0,1,139,21.31a1.86,1.86,0,0,0-.26.23.66.66,0,0,0-.13.8.57.57,0,0,0,.74.26,4.07,4.07,0,0,0,1.12-.62,2.52,2.52,0,0,1,1.18-.63l.91-.19c2-.4,3,1.26,3,2.82a2.88,2.88,0,0,1-.88,2l-1,1.06a.88.88,0,0,0-.31.89c.15.41.5.47.88.47H145a3.31,3.31,0,0,1,2.29.64c.42.34.76.26,1.12-.17.22-.25.39-.54.61-.8A1.87,1.87,0,0,0,149.49,26.79Zm-8.18-1.09a.81.81,0,0,0,.86-.69.71.71,0,0,0-.72-.74c-.41,0-.94.39-.93.73A.8.8,0,0,0,141.31,25.7Z"/><path class="cls-1" d="M271.54,15.78a2.56,2.56,0,0,0-1-2.21,4.17,4.17,0,0,1-.85-.77,2.77,2.77,0,0,1-.5-1c-.1-.48.16-.72.65-.68a3.47,3.47,0,0,1,.56.11.94.94,0,0,0,1.07-.42,3,3,0,0,0,.58-1.67,10.87,10.87,0,0,1,.48-3.76A2.39,2.39,0,0,0,272,2.8a1.88,1.88,0,0,1-.16-.23.82.82,0,0,1,0-1.11.93.93,0,0,1,1.19-.05,3.44,3.44,0,0,1,.47.54,16.41,16.41,0,0,0,1.15,1.46,4.3,4.3,0,0,1,1.05,1.94,2,2,0,0,1-.14,1.11,3.88,3.88,0,0,0-.24,1.47,1.13,1.13,0,0,0,.92,1.2c.4.13.82.23,1.22.38a2.06,2.06,0,0,1,1.09,1.1,1,1,0,0,1-1.28,1.4c-1.25-.35-2.06.36-2.76,1.21a2.24,2.24,0,0,0,0,2.45,1.16,1.16,0,0,0,1.28.42,7.73,7.73,0,0,0,1-.42c.24-.11.46-.25.7-.36a3.51,3.51,0,0,1,3.17-.19c.32.15.7.17,1,.32a5.87,5.87,0,0,1,1.36.78,27.92,27.92,0,0,1,2,2.07,6,6,0,0,1,.72,1.06,1.49,1.49,0,0,1,.06,1.38c-.23.56-.39,1.14-.63,1.68a8.53,8.53,0,0,1-1.6,2.54c-.55.59-1.12,1.17-1.68,1.75-1,1-1.89,2-2.87,2.93-.61.6-1.12.68-1.75.07-.38-.36-.79-.7-1.14-1.08a1.22,1.22,0,0,0-2.18.47c-.07.4-.24.78-.31,1.18a1.42,1.42,0,0,0,.66,1.55c.23.13.48.22.71.34.46.24.92.5,1.38.75.08.05.14.14.23.17A10,10,0,0,1,279,34.66a31.77,31.77,0,0,0,4.86,2.89c.68.3,1.39.53,2,.89.82.45,1.7.75,2.51,1.15a17.19,17.19,0,0,1,3.29,2.14,2.19,2.19,0,0,1,.51.59.79.79,0,0,1-.69,1.22,2.67,2.67,0,0,1-1.12-.19,4.14,4.14,0,0,0-2.33-.2,2.65,2.65,0,0,1-1.61-.2A41.74,41.74,0,0,1,282.68,41a15.55,15.55,0,0,1-2.94-2.62c-.53-.55-1-1.11-1.59-1.65-.72-.7-1.46-1.39-2.21-2.06a5.76,5.76,0,0,0-1.21-.88c-.69-.35-1.25.09-1.17.86,0,.23.12.47.13.7a6,6,0,0,1,0,1.34,6.51,6.51,0,0,0,0,1.92,18.55,18.55,0,0,1,.11,2.79c0,1.29-.22,2.57-.23,3.86a8.47,8.47,0,0,0,.35,2,1.31,1.31,0,0,1-.33,1.19.71.71,0,0,1-1.13.14,3.27,3.27,0,0,1-1-1.29,6.84,6.84,0,0,0-1.93-3.14,1.18,1.18,0,0,1-.31-.62.83.83,0,0,1,.56-1,8,8,0,0,1,.82-.29.93.93,0,0,0,.66-.86c0-.47,0-.94,0-1.41,0-.74,0-1.48.07-2.22,0-.15,0-.29,0-.44,0-.38,0-.74-.42-.91a1.08,1.08,0,0,0-1.15.17,1.7,1.7,0,0,0-.3.3,15.35,15.35,0,0,1-3.1,2.87c-.86.65-1.67,1.37-2.57,2-1.34.88-2.72,1.69-4.11,2.49a3.64,3.64,0,0,1-1.1.29.62.62,0,0,1-.72-.34.7.7,0,0,1,.22-.85,6.15,6.15,0,0,1,.85-.65,32.77,32.77,0,0,0,5.65-4.52A15.58,15.58,0,0,0,266,36.36l3.4-4.26c.18-.22.4-.42.58-.64a2.73,2.73,0,0,0,.42-.66c.24-.65-.06-1.11-.76-1.11a3.52,3.52,0,0,1-2.49-1.1,29.15,29.15,0,0,1-2.95-3.51,14.29,14.29,0,0,1-1.56-2.55A7.8,7.8,0,0,1,262,20c-.1-.77.48-1.06,1.19-.67a2.28,2.28,0,0,1,1,1.18,13.91,13.91,0,0,0,1.67,3.08.75.75,0,0,1,.15.24,6.71,6.71,0,0,0,1.64,2.33c.26.28.49.59.73.89a2.06,2.06,0,0,0,2.28.61,1.32,1.32,0,0,0,.85-1.16,1.5,1.5,0,0,0-.58-1.46c-.3-.21-.61-.38-.91-.59a2.73,2.73,0,0,1-.49-.41.71.71,0,0,1,.35-1.19,3.37,3.37,0,0,1,.77-.14,1,1,0,0,0,.93-.85,3.19,3.19,0,0,0,0-1.27.75.75,0,0,0-1.12-.52,3.85,3.85,0,0,0-.62.36,1.92,1.92,0,0,1-2.5-.1,12.64,12.64,0,0,1-1-.93c-.13-.14-.27-.45-.2-.55a1,1,0,0,1,1.08-.28,2.68,2.68,0,0,0,2.06-.39,5.72,5.72,0,0,1,1-.47c.8-.25,1.06-.52,1.16-1.34C271.51,16.16,271.52,16,271.54,15.78ZM279.75,17l-1.09.31c-.66.21-1.33.39-2,.64a14.24,14.24,0,0,0-2.15,1,1,1,0,0,0,.16,1.88,6.7,6.7,0,0,0,1.17.3c.21,0,.44,0,.64.06a.73.73,0,0,1,.38,1.27,1.84,1.84,0,0,1-.72.44,5.34,5.34,0,0,1-1,.21,1.31,1.31,0,0,0-1.18,1,1.35,1.35,0,0,0,.59,1.51c.73.49,1.53.89,2.3,1.32a1.17,1.17,0,0,0,.42.09.86.86,0,0,0,1-.76,2.66,2.66,0,0,1,.88-1.68,1.33,1.33,0,0,0,.24-.36,23,23,0,0,1,2.47-3.86,1.56,1.56,0,0,0,.25-1.62A3.07,3.07,0,0,0,279.75,17Z"/><path class="cls-1" d="M400.46,28.13l-1.36.14a3.49,3.49,0,0,1-2.82-.77c-.44-.4-.92-.75-1.35-1.16a1.84,1.84,0,0,1-.43-.66.78.78,0,0,1,0-.58.53.53,0,0,1,.69-.23,10.79,10.79,0,0,0,4.33.49c.57,0,1.14-.07,1.71-.11.9-.05,2.23-1.37,1.81-2.41.11-1.59-.12-3.19,0-4.78.09-.93,0-1.87.06-2.81,0-.54.06-1.09.08-1.64q0-.39,0-.78c0-.15-.05-.29-.07-.43-.05-.46-.09-1,.4-1.2a1.11,1.11,0,0,1,1.26.29,18.17,18.17,0,0,1,1.29,1.34c.26.28.48.6.75.88a1.59,1.59,0,0,1,.39,1.59c-.19.71-.44,1.42-.61,2.14a9.51,9.51,0,0,0-.27,1.83,5.89,5.89,0,0,1-.39,2.46.89.89,0,0,0-.07.28,1.13,1.13,0,0,0,.46,1.13,1.17,1.17,0,0,0,1.28-.14,4.31,4.31,0,0,0,.69-.9,1.57,1.57,0,0,1,1.72-.9,22.66,22.66,0,0,1,2.61.49,3.21,3.21,0,0,1,1.08.66.67.67,0,0,1,.15.92,2,2,0,0,1-1.48,1.13c-.33,0-.67.08-1,.1a4.25,4.25,0,0,0-1.62.54c-1,.49-1.93.94-2.91,1.38-.24.11-.51.13-.76.23a1,1,0,0,0-.32,1.7,6.56,6.56,0,0,0,1.76,1.21,9,9,0,0,1,1.91,1.26c1.32,1,2.6,2.1,3.93,3.11.66.51,1.39.92,2.09,1.37.34.22.67.46,1,.66.76.45,1.53.89,2.3,1.33l.69.38,1.42.8c.19.11.39.2.57.31s.23.18.35.25c.89.45,1.79.9,2.67,1.36a2.37,2.37,0,0,1,.63.44c.57.62,1.09,1.27,1.66,1.89a1.5,1.5,0,0,1,.43,1.17,1,1,0,0,1-1.42.86l-.13-.07a3.08,3.08,0,0,0-2.54-.7,1.56,1.56,0,0,1-.57,0c-1-.35-2-.72-3.05-1.06-.54-.18-1.1-.32-1.65-.48a1.89,1.89,0,0,1-.54-.17,17.55,17.55,0,0,1-4.68-4A42.74,42.74,0,0,0,409,34.36c-.75-.84-1.55-1.64-2.3-2.47a8.19,8.19,0,0,1-.58-.83,1,1,0,0,0-1.15-.52.93.93,0,0,0-.75.93c-.15,1.74-1.2,3.05-2.16,4.38a8.92,8.92,0,0,1-1.5,1.44A8.62,8.62,0,0,0,399.12,39,6.76,6.76,0,0,1,398,40.16c-.61.53-1.27,1-1.91,1.52a1.38,1.38,0,0,1-1.4.29,4.08,4.08,0,0,0-1.84-.11,2.73,2.73,0,0,1-1.23-.28.7.7,0,0,1-.43-.77.75.75,0,0,1,.61-.63c.88-.22,1.76-.42,2.63-.67a2.21,2.21,0,0,0,.95-.45c1.18-1.18,2.34-2.4,3.48-3.62a4.34,4.34,0,0,0,.44-.89c.21-.42.4-.86.65-1.26a22.94,22.94,0,0,0,2-3.54,1.11,1.11,0,0,0-.94-1.58,2.7,2.7,0,0,0-.57,0Z"/><path class="cls-1" d="M369.22,28.39c-.73-.11-1.19.4-1.62.93-.19.24-.31.53-.49.78a.92.92,0,0,1-1.67-.15c-.28-.56-.54-1.12-.81-1.68a1.41,1.41,0,0,1,.31-1.88A4.65,4.65,0,0,0,366.1,24a1.23,1.23,0,0,0-1.24-1.62,4.15,4.15,0,0,1-2.18-.84c-.23-.17-.5-.35-.41-.69a.64.64,0,0,1,.73-.47,3.58,3.58,0,0,0,2.59-1,2.61,2.61,0,0,0,1.06-2.16c0-.62,0-1.24,0-1.85a18.31,18.31,0,0,1,.22-2.57,29.46,29.46,0,0,0,.35-3.85,4.64,4.64,0,0,0-.43-2.17,1.38,1.38,0,0,1,0-1.31,1.22,1.22,0,0,1,2.13-.28c.72.74,1.39,1.51,2.06,2.3a1.56,1.56,0,0,1,.27,1.81c-.65,1.29-.6,2.75-1.09,4.08a1.68,1.68,0,0,0,1.15,1.92,3.6,3.6,0,0,0,1,.17c.46,0,.92,0,1.36.07a1.09,1.09,0,0,1,.78,1.81,2.21,2.21,0,0,1-1.62,1.07A5.11,5.11,0,0,0,370,19.91a2.54,2.54,0,0,0-.8,1.85,2.37,2.37,0,0,1-.46,1.4,3.53,3.53,0,0,0-.52,1.25.82.82,0,0,0,1.22,1c.33-.14.62-.35.94-.52a2.27,2.27,0,0,1,2.74.1c.49.38,1,.69,1.53,1.06a1.71,1.71,0,0,1,.35,2.38,9,9,0,0,0-.77,1.85,3.54,3.54,0,0,1-.45.8,7.38,7.38,0,0,0-.59,1,2.92,2.92,0,0,1-1,1.37,1.15,1.15,0,0,0,.19,2.11l3.54,1.76q.57.28,1.14.6l1.14.6a4,4,0,0,1,.51.25l2.49,1.71a3.66,3.66,0,0,1,1.27,4.29,1.14,1.14,0,0,1-1.48.78,2.74,2.74,0,0,1-.77-.37,36.43,36.43,0,0,1-3.1-2.08,15,15,0,0,0-2.88-1.85,8.22,8.22,0,0,1-1.34-1c-.61-.46-1.23-.91-1.83-1.39-1.49-1.16-2.49-1.1-3.89-.08a4.26,4.26,0,0,1-1.18.65,6,6,0,0,0-.77.37c-.43.2-.87.38-1.3.59a3.27,3.27,0,0,0-.8.44,2.65,2.65,0,0,1-1.63.68,5.81,5.81,0,0,0-1.91.59,5.18,5.18,0,0,1-1.14.41,1.38,1.38,0,0,1-.82-.13c-.47-.25-.47-.51-.06-.87l.83-.69a1.88,1.88,0,0,1,1.18-.45,2.3,2.3,0,0,0,1.46-.53,1.27,1.27,0,0,1,.48-.32c1.52-.44,2.69-1.52,4.06-2.25a.92.92,0,0,0,.55-.93,1,1,0,0,0-.67-.85c-.49-.24-.95-.54-1.44-.78a3.49,3.49,0,0,0-.88-.29,1.63,1.63,0,0,1-1.18-1c-.18-.41,0-.71.45-.76a2.51,2.51,0,0,1,1.61.26,3.76,3.76,0,0,0,2.13.5,9.87,9.87,0,0,1,1.21.1,1.66,1.66,0,0,0,1.84-1.16,6,6,0,0,1,.92-1.93,1.62,1.62,0,0,0,.23-.67C370.53,28.78,370.2,28.39,369.22,28.39Z"/><path class="cls-1" d="M352.56,19c0-1.58,0-3.15,0-4.73a3,3,0,0,1,.23-1,2.47,2.47,0,0,0,.08-1.61,3.33,3.33,0,0,1-.13-1.13.87.87,0,0,1,1.44-.62c.27.24.56.46.82.71.58.56,1.15,1.15,1.73,1.72a1.6,1.6,0,0,1,.24,2.25,6.45,6.45,0,0,0-.87,2,2.78,2.78,0,0,0,.15,1.82,1.12,1.12,0,0,0,.9.74c.24,0,.48.07.71.13a1,1,0,0,1,.71.91,1,1,0,0,1-.54,1c-.19.1-.41.15-.6.24a2.84,2.84,0,0,0-1.72,1.81c-.24.88-.35,1.78-.51,2.67a1.41,1.41,0,0,0,.05.35.81.81,0,0,0,.63.79.77.77,0,0,0,.94-.36c.37-.88,1.18-1.42,1.62-2.24a1.86,1.86,0,0,1,1.06-1c.4-.14.7,0,.71.41a2.09,2.09,0,0,1-.23,1c-.58,1-1.19,2-1.86,3A23.22,23.22,0,0,1,356,30.61a3.53,3.53,0,0,0-.94,3c.14,1.43.25,2.86.37,4.29.07.73.12,1.48.24,2.21a4.14,4.14,0,0,0,.44,1.2.72.72,0,0,1,0,.91,1.62,1.62,0,0,0-.14,2.11,2.42,2.42,0,0,1,.25,1.17.8.8,0,0,1-.62.86,1.06,1.06,0,0,1-1.16-.37.88.88,0,0,1-.12-.26A4.46,4.46,0,0,0,353,43.87a2.63,2.63,0,0,1-.83-1.63,1,1,0,0,0-.46-.75,14.55,14.55,0,0,1-1.38-1.34.53.53,0,0,1-.1-.5c.07-.11.32-.13.5-.15a.37.37,0,0,1,.25.12A16.1,16.1,0,0,1,352.25,41a.74.74,0,0,0,.84.38.76.76,0,0,0,.47-.88c0-.28-.11-.56-.13-.85-.09-1-.16-2.09-.24-3.14a2.7,2.7,0,0,0-.08-.57.8.8,0,0,0-1-.51,4.24,4.24,0,0,0-1.72,1.36,1.71,1.71,0,0,0-.28.42,5,5,0,0,1-1.9,2,3.11,3.11,0,0,0-.65.56c-.55.51-.85.52-1.43.06a3.59,3.59,0,0,0-.79-.49,2.8,2.8,0,0,1-1.5-1.56c-.19-.39-.09-.67.3-.69,1-.07,1.6-.79,2.32-1.33s1.32-1,2-1.53a5.94,5.94,0,0,0,.67-.55,18.59,18.59,0,0,1,2.78-2.38,1.41,1.41,0,0,0,.56-1.25c0-1,0-2.07,0-3.1,0-.45.06-.91.08-1.36a2.21,2.21,0,0,0,0-.63c-.16-.7-.63-.95-1.21-.56A19.45,19.45,0,0,0,348.67,26a6.69,6.69,0,0,1-1.53.92,1,1,0,0,1-1,0,4.76,4.76,0,0,1-2.05-1.62,10.42,10.42,0,0,0-.93-1.08,3.09,3.09,0,0,1-.41-.67c-.21-.51.08-.87.63-.77a8.92,8.92,0,0,1,1.31.39,3.3,3.3,0,0,0,2.9-.26,7.54,7.54,0,0,1,1.05-.45c.9-.32,1.79-.65,2.69-1a1.94,1.94,0,0,0,1.3-2C352.59,19.28,352.57,19.13,352.56,19Z"/><path class="cls-1" d="M468.22,25.1c-.07,0-.16,0-.21,0a7.4,7.4,0,0,1-2.37.43,6.6,6.6,0,0,0-1.19.45c-.46.2-.91.42-1.37.61a.7.7,0,0,1-.42.06,2.7,2.7,0,0,0-1.75.2,2,2,0,0,1-.49.1,1,1,0,0,1-1-.66.85.85,0,0,1,.28-1c.38-.32.83-.57,1.21-.89a3.19,3.19,0,0,0,.76-.84.92.92,0,0,0-.57-1.41,2.14,2.14,0,0,0-.5-.06c-.62,0-1.25,0-1.87,0a2.09,2.09,0,0,0-1.36.34,1.61,1.61,0,0,1-1.23.22c-1-.13-2-.21-3-.26a3.5,3.5,0,0,0-1.66.4,17.29,17.29,0,0,1-2,.84,3.8,3.8,0,0,1-1.84.2,3.24,3.24,0,0,0-2.36.87c-.74.52-1.47,1.05-2.24,1.54a1.34,1.34,0,0,1-.82.2c-1.34-.18-2.26.61-3.23,1.31-.77.56-1.57,1.08-2.37,1.6a12.3,12.3,0,0,0-2.77,2.26,1.68,1.68,0,0,0-.4,1.6,2.2,2.2,0,0,1,.06,1c-.13.68-.64.84-1.16.4a2.89,2.89,0,0,1-1-1.43,2.37,2.37,0,0,0-.44-.81,3.51,3.51,0,0,1-.55-4c.14-.28.24-.58.39-.84a4.22,4.22,0,0,0,.52-1.93,4,4,0,0,1,.09-.77c.17-.67.69-.8,1.17-.33a1.94,1.94,0,0,1,.21.29c.17.26.34.53.49.8a1.33,1.33,0,0,0,2.19.53A7.33,7.33,0,0,1,437.82,25a22.83,22.83,0,0,1,3.65-1.07,1,1,0,0,0,.76-1.25,2.07,2.07,0,0,0-.36-.69,3.21,3.21,0,0,1-.77-3.06,2.44,2.44,0,0,0,.06-.93,15.92,15.92,0,0,0-.51-2.89c-.45-1.41-.79-2.86-1.2-4.28-.13-.43-.32-.84-.49-1.26,0,0-.06-.08-.08-.12-.17-.35-.35-.71-.07-1.07s.83-.21,1.18.16a14.45,14.45,0,0,1,1.37,1.65c.38.52.69,1.09,1,1.64a1.23,1.23,0,0,0,.23.28.89.89,0,0,0,.94.13.61.61,0,0,0,.19-.77c-.25-.7-.53-1.38-.79-2.08a2.91,2.91,0,0,1-.24-.74c-.05-.47.16-.66.59-.5a2.76,2.76,0,0,1,1.05.58,11.27,11.27,0,0,1,2.05,3,4.3,4.3,0,0,1,.21,2.2c0,.74-.08,1.48-.12,2.22a1.62,1.62,0,0,0,.93,1.5.58.58,0,0,0,.83-.13,1.54,1.54,0,0,0,.4-1.19c-.05-.84-.11-1.67-.17-2.5,0-.62-.06-1.25-.13-1.86a1.92,1.92,0,0,0-.25-.82c-.46-.75-1-1.48-1.47-2.21-.07-.1-.15-.19-.22-.28-.51-.73-.42-1.08.37-1.44s.81-.61.59-1.31c-.08-.27-.21-.53-.29-.81-.15-.48.07-.78.57-.7a1.78,1.78,0,0,1,1,.38c.78.75,1.51,1.54,2.23,2.34a1.51,1.51,0,0,1,.19,1.45,2.3,2.3,0,0,0,.52,2.14c.34.43.72.83,1.09,1.23a1.23,1.23,0,0,0,.28.23.87.87,0,0,0,1.42-.81,6.47,6.47,0,0,0-.2-1c-.1-.47-.21-1,.28-1.3a1.23,1.23,0,0,1,1.38.28c.22.19.41.41.62.6a1.27,1.27,0,0,0,2.25-.63l.24-1A1.72,1.72,0,0,0,457,6.08c-.47,0-1,.11-1.42.12a1.21,1.21,0,0,1-.62-.15.7.7,0,0,1,0-1.27c1.05-.34,2.1-.88,3.26-.57a3.8,3.8,0,0,1,1.24.52c.83.57,1.62,1.2,2.4,1.83a2.28,2.28,0,0,1,.7,2.6c-.47,1.2-.91,2.42-1.37,3.63a.35.35,0,0,1-.05.13,5.28,5.28,0,0,0-.92,2.75,2.23,2.23,0,0,1-.37.84c-.24.47-.53.92-.72,1.4a1.34,1.34,0,0,0,1.41,2,8.22,8.22,0,0,1,1.49,0,8.55,8.55,0,0,1,2.26.66A7.42,7.42,0,0,1,466.14,22a17.59,17.59,0,0,1,1.54,2,.47.47,0,0,0,.54.23Zm-23-2.68a6,6,0,0,0,1-.41,3.84,3.84,0,0,1,1.76-.53,11.86,11.86,0,0,0,1.35-.14,8.61,8.61,0,0,0,1.23-.34.62.62,0,0,0,.38-.77.66.66,0,0,0-.65-.57,2.15,2.15,0,0,0-.84.14,12.85,12.85,0,0,1-2.27.59,15,15,0,0,0-2.22.78.6.6,0,0,0-.39.75A.69.69,0,0,0,445.21,22.42Zm10.17-4a.87.87,0,0,0-.46-.77.93.93,0,0,0-.93.2c-.24.16-.47.34-.7.51-.48.37-.59.75-.32,1.16s1.22.8,1.57.53A1.81,1.81,0,0,0,455.38,18.42Z"/><path class="cls-1" d="M443.43,45.87a.76.76,0,0,1,1.09-.11,11.23,11.23,0,0,0,3.34,1.06,2.54,2.54,0,0,0,2.51-.9,4.06,4.06,0,0,0,1-2.23,21,21,0,0,1,.68-2.56c.07-.25.2-.49.26-.75a1.38,1.38,0,0,0-.37-1.45,1.4,1.4,0,0,0-1.56-.22,9.8,9.8,0,0,1-4.47.82c-.62,0-1.23.15-1.85.19a5.48,5.48,0,0,1-1.28-.08.69.69,0,0,1-.54-.68.68.68,0,0,1,.41-.7,5,5,0,0,1,.94-.34c.71-.19,1.43-.38,2.15-.55,1.19-.27,2.38-.53,3.58-.77a1.08,1.08,0,0,0,.83-1.65,2.46,2.46,0,0,0-.39-.51,2.25,2.25,0,0,1,.05-3,20.3,20.3,0,0,1,2.07-2.18,1.09,1.09,0,0,0,.32-.69c.07-.56-.27-.82-.8-.59s-1,.54-1.52.81l-1,.56-.92.55a5.37,5.37,0,0,1-.79.48,2.56,2.56,0,0,0-1,.73,1.46,1.46,0,0,1-2,.55,6.24,6.24,0,0,1-.94-.35,2.72,2.72,0,0,1-.76-.63c-.26-.3-.17-.58.17-.76.19-.1.41-.15.6-.24l2.46-1a.89.89,0,0,0,.25-.14,7.76,7.76,0,0,1,2.13-1.44c1.1-.56,2.23-1.08,3.32-1.67a5.09,5.09,0,0,1,4-.11,3.19,3.19,0,0,1,1.53,1,1.55,1.55,0,0,1-.1,2,2.23,2.23,0,0,0-.49.78,5.83,5.83,0,0,1-1.74,2.41c-.54.58-1.15,1.09-1.73,1.62-.9.82-.22,1.73.67,1.86a4.91,4.91,0,0,0,1.43-.06,5,5,0,0,1,2.75.21,3.22,3.22,0,0,1,1,.6.94.94,0,0,1-.43,1.67,4.67,4.67,0,0,1-1.12.09c-.38,0-.77-.07-1.15-.05a1,1,0,0,0-1,1,2.75,2.75,0,0,0,0,.86,15.92,15.92,0,0,1,0,3.65c0,.55-.05,1.11,0,1.66a4.82,4.82,0,0,1-.34,1.75c-.21.6-.35,1.23-.55,1.85a12.06,12.06,0,0,1-.5,1.25,10.16,10.16,0,0,1-.56,1.09,9.93,9.93,0,0,1-.65,1c-.47.6-1,.56-1.45-.09-.1-.16-.17-.34-.27-.5A3.9,3.9,0,0,0,448.17,49a6.32,6.32,0,0,1-3.73-2.15A9.13,9.13,0,0,0,443.43,45.87Z"/><path class="cls-1" d="M240.19,48.34c.17-1.4.33-2.8.5-4.2,0-.22,0-.43,0-.65.09-1.43.19-2.86.27-4.29,0-.6,0-1.2,0-1.79,0-1.73.11-3.45.15-5.17,0-.71-.23-1-.94-1a12.17,12.17,0,0,0-5.33.93,1.39,1.39,0,0,0-.93,1.32c0,1-.09,2.1-.14,3.15a2.83,2.83,0,0,1,0,.29,1,1,0,0,1-.65.78.77.77,0,0,1-.8-.51,12.5,12.5,0,0,1-.4-1.36,14.66,14.66,0,0,0-.45-1.51,1.28,1.28,0,0,0-1.93-.72l-.45.22a.8.8,0,0,1-.82,0,4.34,4.34,0,0,1-1.72-1.49.66.66,0,0,1,.6-1.08c.74,0,1.48,0,2.22.05a3,3,0,0,0,2.11-.77,1,1,0,0,0,.25-1.39,1.61,1.61,0,0,0-1-.78,6.53,6.53,0,0,1-2.15-1.28.91.91,0,0,1-.3-.46.4.4,0,0,1,.39-.55.26.26,0,0,1,.15,0,2.51,2.51,0,0,0,2.27-.49,3,3,0,0,1,1.54-.22,4,4,0,0,0,2.58-.69,1,1,0,0,1,.46-.18c1.52-.21,2.46-1.29,3.44-2.3a1.34,1.34,0,0,0,.29-.57,2.4,2.4,0,0,1,.82-1.31,4.58,4.58,0,0,0,.71-.81,1,1,0,0,0,.2-.94.65.65,0,0,0-.77-.45,1.84,1.84,0,0,0-1.06.56,3.3,3.3,0,0,1-1,.66,7.73,7.73,0,0,0-1.76,1.34l-2.17,1.65c-.51.39-1,.81-1.54,1.18-.78.55-1.16.41-1.67-.42s-.94-1.31-1.42-2a4.34,4.34,0,0,1-.52-.77.7.7,0,0,1,.67-1,1.36,1.36,0,0,1,1,.42,2,2,0,0,0,2.9.17,10.86,10.86,0,0,1,1.29-.6,4.63,4.63,0,0,0,.93-.5,2.85,2.85,0,0,1,1-.58,5.44,5.44,0,0,0,2.31-1.39,7.84,7.84,0,0,1,2.19-1.33,1.29,1.29,0,0,1,1.25,0,7.74,7.74,0,0,1,2.7,2.32c.46.7.45.94-.15,1.55L243.6,21.3a1.13,1.13,0,0,0,.28,2c.25.14.51.26.75.42a1.1,1.1,0,0,1,.56.87.69.69,0,0,1-.45.74,1.37,1.37,0,0,1-.35.08c-.93.14-1.21,1-.56,1.79a3.08,3.08,0,0,0,2.4,1.26,1.19,1.19,0,0,1,.75.19,16.89,16.89,0,0,1,1.49,1.44.73.73,0,0,1,.08.88.69.69,0,0,1-.8.34A1.4,1.4,0,0,1,247,31a3.74,3.74,0,0,0-2.84-.74c-.57,0-.85.4-.88,1.1s0,1.15,0,1.73c0,1.41-.18,2.83-.07,4.23.14,1.68-.1,3.35-.09,5,0,1.41-.07,2.82-.14,4.23s-.17,3-.29,4.51a6,6,0,0,1-.23,1.26c-.09.35-.24.68-.7.7s-.68-.28-.86-.63a1,1,0,0,1-.11-.27A13.71,13.71,0,0,1,240.19,48.34Zm1.38-21.07c0-.33-.08-.66-.15-1-.18-.88-.61-1.18-1.49-1a3.24,3.24,0,0,0-.89.41c-.31.17-.6.38-.91.53s-.89.34-1.3.57a3.6,3.6,0,0,1-1.41.49,3.2,3.2,0,0,0-1,.23,1.22,1.22,0,0,0-.82,1.36,1.19,1.19,0,0,0,1.1,1.21,4,4,0,0,0,1.33-.13c.67-.16,1.31-.43,2-.58s1.41-.21,2.11-.36A1.63,1.63,0,0,0,241.57,27.27Z"/><path class="cls-1" d="M231.93,17.22c-.61-.12-1.17-.2-1.73-.34a.91.91,0,0,1-.75-.77.87.87,0,0,1,.54-.93c.57-.3,1.16-.57,1.73-.86a9.17,9.17,0,0,0,.87-.48,3.38,3.38,0,0,1,2.75-.71,1.57,1.57,0,0,0,1.42-.32,5.08,5.08,0,0,0,1.59-1.73,3.58,3.58,0,0,1,.54-.65,3.72,3.72,0,0,0,.54-.66.91.91,0,0,0-.84-1.4,1.48,1.48,0,0,0-1.3.43,2.6,2.6,0,0,1-1.53.74,10,10,0,0,0-3.33,1.29,5.05,5.05,0,0,1-1.46.55,2.45,2.45,0,0,1-2.28-.56c-.55-.49-1.11-1-1.64-1.49a1.22,1.22,0,0,1-.3-.48.61.61,0,0,1,.62-.87,2.82,2.82,0,0,1,.77.13,2.46,2.46,0,0,0,1.69-.1,7.88,7.88,0,0,1,2.3-.49q1.35-.13,2.7-.36a3.82,3.82,0,0,0,1.08-.36,5.14,5.14,0,0,1,2.2-.54,2,2,0,0,0,1.21-.4c.51-.39,1-.75,1.56-1.14a1.58,1.58,0,0,1,1.93,0L245,6.28c.65.47.85,1,.37,1.66a16.65,16.65,0,0,1-2,2.52c-1.14,1-2.23,2-3.32,3.06a6.94,6.94,0,0,0-.79.93,2.41,2.41,0,0,1-1.11.88c-.87.31-1.73.67-2.61,1-.38.13-.78.19-1.17.3l-1.11.29Z"/><path class="cls-1" d="M224.25,17.77c-.13-.53-.26-1-.37-1.55a4.72,4.72,0,0,1-.19-1,.53.53,0,0,1,.81-.54,5,5,0,0,1,1.11.77,16.33,16.33,0,0,1,1.29,1.34,1.65,1.65,0,0,1,.08,2.12,3,3,0,0,0-.67,2,2.68,2.68,0,0,1-.45,1.49,7.87,7.87,0,0,0-.56,1.08c-.14.28-.22.58-.37.85a10.51,10.51,0,0,0-1,2.37,10.51,10.51,0,0,1-1.14,2.14,19.5,19.5,0,0,1-2.29,2.84c-.78.87-1.42,1.86-2.14,2.78-.52.66-1.07,1.29-1.61,1.93l-.2.21c-.58.55-1,.65-1.46.4a1.64,1.64,0,0,1-.83-1.62,5.77,5.77,0,0,1,1.59-2.91c.46-.49,1-.9,1.45-1.39.64-.71,1.26-1.44,1.83-2.2s1.23-1.77,1.84-2.65a.94.94,0,0,0,.12-.18l1.26-2.57a5.4,5.4,0,0,1,.47-.8,4,4,0,0,0,.76-2.06,13.23,13.23,0,0,1,.3-1.39C224,18.75,224.12,18.27,224.25,17.77Z"/><path class="cls-1" d="M206.79,39.07a11.55,11.55,0,0,1-3.32-.82,4.66,4.66,0,0,0-2.73-.38,2.58,2.58,0,0,1-1.14,0,8.24,8.24,0,0,0-3.13,0c-1.42.2-2.84.42-4.26.61a6.2,6.2,0,0,1-1.22.05,11,11,0,0,0-3.12.36c-.67.17-1.37.23-2.05.37a9.67,9.67,0,0,0-2.25.72,7,7,0,0,1-1.65.46,9.77,9.77,0,0,0-3.55,1.49,2.34,2.34,0,0,1-1.05.41,5.85,5.85,0,0,0-1.26.24,2.77,2.77,0,0,1-2.44-.5c-.42-.27-.88-.49-1.28-.79a12.74,12.74,0,0,1-1.64-1.38,1,1,0,0,1,.34-1.6,1.77,1.77,0,0,1,1.6,0,4.19,4.19,0,0,0,2.75.13,4.56,4.56,0,0,0,1.12-.46,3.29,3.29,0,0,1,1.9-.52,7.15,7.15,0,0,0,3.44-.6,8.76,8.76,0,0,1,1.17-.33c.94-.27,1.16-.84.66-1.68-.17-.26-.33-.53-.48-.8a3.28,3.28,0,0,1-.38-2.76c.12-.38.12-.81.26-1.18.23-.65.52-1.28.79-1.92.06-.13.19-.23.22-.37a7.46,7.46,0,0,1,1.85-3,1.46,1.46,0,0,0,.29-.78c0-.56-.26-.79-.81-.71a3.85,3.85,0,0,0-1.77.72,6.61,6.61,0,0,1-1.93.92,1,1,0,0,1-1.05-.46c-.76-1.25-1.95-2.19-2.56-3.55-.11-.23-.29-.43-.41-.67s-.19-.51.06-.64a.66.66,0,0,1,.57.14,3.82,3.82,0,0,0,2.85,1,5.7,5.7,0,0,0,1-.17,22.25,22.25,0,0,0,5.51-1.75,1.53,1.53,0,0,1,.41-.14,9.51,9.51,0,0,0,4-2,3.4,3.4,0,0,1,2.95-.42c.79.2,1.59.38,2.38.57a1.69,1.69,0,0,1,1.19,1.62,1.35,1.35,0,0,1-1.16,1.35,5.07,5.07,0,0,0-1.81.83c-.63.39-1.21.86-1.81,1.29a3.62,3.62,0,0,1-.54.36,6.3,6.3,0,0,0-1.93,1.59,1.65,1.65,0,0,1-1,.6,4.31,4.31,0,0,0-1,.45c-.08,0-.14.13-.23.17-1.55.71-2.38,2.1-3.29,3.42a.92.92,0,0,0-.14,1.13,1.1,1.1,0,0,0,1.24.3,2.18,2.18,0,0,0,1.46-1.15,6.41,6.41,0,0,1,1.23-1.38c.82-.77,1.68-1.49,2.49-2.28a2.17,2.17,0,0,1,1.85-.73c1.05.12,2.1.19,3.14.34a1.81,1.81,0,0,1,.95.46,18.06,18.06,0,0,1,1.48,1.55,1.61,1.61,0,0,1,.21,1.93,12.56,12.56,0,0,0-.5,1.5c-.22.66-.47,1.3-.66,2a12.09,12.09,0,0,0-.44,1.87c-.08.56.19.78.75.8a2.56,2.56,0,0,0,.79-.06,7.53,7.53,0,0,1,3.34,0,24.82,24.82,0,0,1,3.73,1,3.47,3.47,0,0,1,1.1.66,1.74,1.74,0,0,1,.61,1.47,1.11,1.11,0,0,1-.93,1.12C207.25,39,207,39,206.79,39.07ZM195.6,27.76c-.07-.94-.59-1.44-1.48-1.33a2.37,2.37,0,0,0-1,.31c-1,.61-1.93,1.24-2.85,1.92a6.21,6.21,0,0,1-1.61.9,1.85,1.85,0,0,0-1.37,1.58c-.07.68-.29,1.34-.43,2a4.15,4.15,0,0,0-.09.78,1.09,1.09,0,0,0,1.58,1.12,5,5,0,0,0,1-.64c.59-.4,1.19-.8,1.76-1.23.93-.7,1.85-1.42,2.76-2.15a2.25,2.25,0,0,0,.43-.57,7.42,7.42,0,0,0,.62-1C195.23,28.88,195.4,28.31,195.6,27.76Z"/><path class="cls-1" d="M194.24,10.49a7.37,7.37,0,0,1-.4.88,8.44,8.44,0,0,1-2.26,2.39,1,1,0,0,1-1.31,0c-.35-.2-.73-.35-1.08-.56a5.63,5.63,0,0,1-1-.67.68.68,0,0,1,0-1.07,1.73,1.73,0,0,1,.42-.39A1.52,1.52,0,0,0,188.84,9c-.71-.87-1.41-1.75-2.09-2.64a2.51,2.51,0,0,1-.44-.88.69.69,0,0,1,.65-.92,1.85,1.85,0,0,1,1.32.21,4.13,4.13,0,0,1,.63.47L193.21,9a3.2,3.2,0,0,1,.6.62A6.11,6.11,0,0,1,194.24,10.49Z"/><path class="cls-1" d="M297.87,23.42a2.24,2.24,0,0,1,1.71.31,2.19,2.19,0,0,0,2.25,0,5.47,5.47,0,0,1,1-.35,8.29,8.29,0,0,0,3.08-1.65,4.88,4.88,0,0,1,.62-.48,1.8,1.8,0,0,0,.8-1.46c0-.62,0-1.25,0-1.87,0-.95-.46-1.27-1.41-1.14a4.36,4.36,0,0,1-.71.11.81.81,0,0,1-.84-.55.77.77,0,0,1,.32-.88c.32-.28.62-.59.94-.87a2.82,2.82,0,0,0,.77-1.2,6,6,0,0,1,.55-1c.06-.1.16-.18.22-.29.6-1.14,1.23-2.26,1.78-3.43a4.42,4.42,0,0,0,.26-1.32,1,1,0,0,1,1.66-.68c.5.54.93,1.15,1.38,1.74a7.78,7.78,0,0,0,.58.8,1.1,1.1,0,0,1,.05,1.79c-1,1-1.94,2.06-2.89,3.11a1.53,1.53,0,0,0-.15,2.25,2.09,2.09,0,0,1,.32,1.71c-.17.92,0,1.21,1,1.41s1,.61.58,1.34c-.31.51-.72.95-1.08,1.43a11.76,11.76,0,0,0-.86,1.23,1.1,1.1,0,0,0,.17,1.5,1.41,1.41,0,0,0,1.61.13,2.85,2.85,0,0,0,.62-.58c.85-1,1.68-2.09,2.54-3.11a1.61,1.61,0,0,0,.46-.86c.22-1.35,1.41-1.41,2.21-.76a3.17,3.17,0,0,0,1.13.57,3.34,3.34,0,0,1,1.3.73,1.65,1.65,0,0,1,.54,1.49c-.06.69-.36,1-1.06,1h-.65a1.5,1.5,0,0,1-1.43-.77,4.59,4.59,0,0,0-.86-1c-.5-.44-1-.3-1,.34A3,3,0,0,1,314,24.62a1.63,1.63,0,0,0-.46.55,3.09,3.09,0,0,1-1.39,1.4,1.3,1.3,0,0,0-.45.35,20.59,20.59,0,0,1-2.32,2.44,2.35,2.35,0,0,0-.64,2.29,9.08,9.08,0,0,1,.06,2.15,9.39,9.39,0,0,0,.23,3,15.74,15.74,0,0,1,.38,2.05,1.44,1.44,0,0,1,0,.62c-.18.59-.67.69-1.08.2a11.65,11.65,0,0,1-.75-1c-.31-.45-.63-.9-.9-1.37a2.89,2.89,0,0,1-.31-.94,8.49,8.49,0,0,1,0-1c0-.52-.19-.81-.53-.92a1.23,1.23,0,0,0-1.36.39c-.12.17-.22.37-.35.54a1,1,0,0,1-1.13.45c-.41-.1-.5-.48-.56-.84,0-.21,0-.43-.06-.64,0-.57-.07-1.15-.13-1.72a2.36,2.36,0,0,1,.55-1.8c1.07-1.34,2.16-2.68,3.19-4.06a2.1,2.1,0,0,0,.36-1.13c0-.68-.43-1-1.05-.68a2.88,2.88,0,0,0-1,.7,2.45,2.45,0,0,1-1.39.81,5.57,5.57,0,0,0-1.17.52.9.9,0,0,1-1.24-.08,10.48,10.48,0,0,1-1.78-1.55A3.81,3.81,0,0,1,297.87,23.42Z"/><path class="cls-1" d="M325.09,45.64a5.55,5.55,0,0,0-.22-1.94c-.3-1.37-.61-2.75-.85-4.14-.29-1.74-.53-3.49-.77-5.24,0-.26,0-.53,0-.79a6.48,6.48,0,0,0-.2-1.41A3.39,3.39,0,0,1,323,30a2.81,2.81,0,0,0,.09-1,1.15,1.15,0,0,0-1.71-1c-.41.19-.8.44-1.2.66a4.19,4.19,0,0,1-.49.29,7.56,7.56,0,0,0-2.37,1.32c-.52.39-1,.79-1.53,1.19-.72.56-1,.6-1.73.11a8.76,8.76,0,0,1-1.37-1.13,1.16,1.16,0,0,1-.26-.71c0-.59.28-.91.84-.76a2.51,2.51,0,0,0,1.84-.35c.9-.44,1.81-.85,2.72-1.28a1.68,1.68,0,0,0,.42-.27,1.66,1.66,0,0,1,1.35-.54.37.37,0,0,0,.15,0c1-.46,1.94-.91,2.88-1.42a.88.88,0,0,0,.32-.67,4,4,0,0,0-.1-1.14,4.3,4.3,0,0,1-.09-1.92,1.72,1.72,0,0,0,0-.64,25.22,25.22,0,0,1,.15-4.43c0-.78-.06-1.57-.08-2.36a7.69,7.69,0,0,1,0-1.86A17.5,17.5,0,0,0,323.07,8c0-.31,0-.62,0-.93,0-.62.5-.93,1-.62a3.75,3.75,0,0,1,1,1c.32.38.56.83.85,1.23a2.48,2.48,0,0,1,.24,2.54,15.63,15.63,0,0,0-.84,4.27,2.81,2.81,0,0,0,0,.29q-.06,3.63-.09,7.26a4.11,4.11,0,0,0,.1,1,.78.78,0,0,0,.95.68,3.09,3.09,0,0,0,2-1A7.93,7.93,0,0,1,329,23a1.34,1.34,0,0,1,1.65-.24,4.55,4.55,0,0,0,2.52.37,3.33,3.33,0,0,1,1.25.22.74.74,0,0,1,.21,1.29,2.5,2.5,0,0,1-1,.57,10.8,10.8,0,0,1-2.18.37,8.81,8.81,0,0,0-3.82.82,7,7,0,0,1-1.29.45,1.4,1.4,0,0,0-1.12,1.65c.1.88.25,1.75.36,2.63a10.26,10.26,0,0,1,.13,1.56,27.47,27.47,0,0,0,.37,4.15c0,.26.06.52.07.78,0,1.56,0,3.12.07,4.67a8.82,8.82,0,0,0,.39,1.89,3.86,3.86,0,0,1,.13,2.18,7,7,0,0,1-.46,1,.64.64,0,0,1-1.23-.25A13.73,13.73,0,0,1,325.09,45.64Z"/><path class="cls-1" d="M320.32,17.44a4.48,4.48,0,0,1-.84-.45,5.19,5.19,0,0,1-1.36-1.65,4.64,4.64,0,0,0-.52-.67.82.82,0,0,1-.17-.93.85.85,0,0,1,.83-.43,1.35,1.35,0,0,1,1.12.38c.5.51,1,1,1.48,1.55a2.72,2.72,0,0,1,.45.72C321.69,16.82,321.32,17.36,320.32,17.44Z"/></g><path class="cls-1" d="M524.47,46.8h-3.73V44.58H494.17v2.11h-3.64V10.32h33.94Zm-3.73-5.54V13.6H494.17V41.26Zm-1.34-16H495.54V22.63h10.18V21.2h-8.48V15H517.7V21.2h-8.42v1.43H519.4Zm-1.21,14.66H496.76V26.63h21.43Zm-3.56-2.51V29.18H500.37v8.19ZM514,18.94v-1.7H500.89v1.7ZM512.39,36h-9.8V30.49h9.8Zm-3.19-2V32.52h-3.44V34Z"/><path class="cls-1" d="M568.33,32.23h-37V29.47h16.56v-1.9H534.63V24.93h13.28V23.11H535.27V20.6h12.64v-2H531.27V15.94h16.64V14.16H535.27V11.48h12.64V9.6h3.73v1.88h13.12v4.46h3.53v2.67h-3.53v4.5H551.64v1.82h13.5v2.64h-13.5v1.9h16.69Zm-3.86,14.51h-3.83V45.68H539.13v1.06h-3.86V34h29.2Zm-3.83-8.23V36.6H539.13v1.91Zm0,4.5V41.06H539.13V43ZM561,15.94V14.16h-9.39v1.78Zm0,4.66v-2h-9.39v2Z"/><path class="cls-1" d="M588.58,40.93a51,51,0,0,1-12.69,6.24l-2.17-3.11a47.48,47.48,0,0,0,11.58-5.39ZM610.85,38H573.92V34.53h2.86l-.43-22.24a40.76,40.76,0,0,0,8.14-2.78l1.91,3.15a45.79,45.79,0,0,1-6.28,2.3l0,3.86H585v3.44h-4.75l0,4.29h4.74v3.38h-4.7l.08,4.6h23.63l.18-4.6h-4.41V26.51h4.45l.13-4.29h-4.58v-3.4h4.66l.08-4.21h-4.82V11.09h8.68l-.54,23.44h3ZM591.33,23.73a31.63,31.63,0,0,1-3.15,9.39l-2.92-1.91A31.72,31.72,0,0,0,588,23.07Zm6.84-8.35h-6.84l-.41,3h7.25q0,3.56-.23,7.84t-.85,5.23a3.57,3.57,0,0,1-1.56,1.36,9.45,9.45,0,0,1-3.72.27l-1.16-3.48a10.76,10.76,0,0,0,1.74.14,2.56,2.56,0,0,0,1.31-.2,1,1,0,0,0,.38-.44,24.28,24.28,0,0,0,.29-2.75c.13-1.66.19-3.23.19-4.69h-7.68l1.53-12h3.65l-.29,2.4h6.4ZM611.06,44l-2.36,3.11a64.6,64.6,0,0,0-12.19-5.39l2.28-3.15A77.53,77.53,0,0,1,611.06,44Z"/><path class="cls-1" d="M653.9,17l-1.49,3.35a72.83,72.83,0,0,1-10.53-3.48v1.58H628V16.83a70.81,70.81,0,0,1-10.4,3.65l-1.86-3.07q12.53-3.24,18.5-8.27l4.15,1a5,5,0,0,1-.77.8Q643.54,14.69,653.9,17ZM650,31.17h-30.3v-11H650ZM648.2,46.61h-3.73V45.1h-19v1.51h-3.88V33H648.2ZM633,28.21v-5h-9.56v5Zm-1.87-2.09-2.67,1.69a30.11,30.11,0,0,0-3.52-2.5l2.63-1.79A26.09,26.09,0,0,1,631.1,26.12Zm13.37,11.54V35.92h-19v1.74Zm0,4.5V40.29h-19v1.87Zm-5.55-26.62c-2.28-1.27-3.67-2-4.17-2.36a22.73,22.73,0,0,1-4,2.36Zm7.37,12.67v-5H636.7v5Zm-1.61-3a27.56,27.56,0,0,1-3.57,2.47l-2.63-1.78c1.66-1.05,2.82-1.82,3.48-2.3Z"/><path class="cls-1" d="M695.41,33.76H673v8.52a55.68,55.68,0,0,0,7.27-2.4v3.89a82.62,82.62,0,0,1-10.84,3.15l-.89-3.06a2.61,2.61,0,0,0,.85-1.7v-8.4h-4.33a35.48,35.48,0,0,1-3.34,13l-3.19-2.39q3.11-5.79,3.11-17.16V10.32h31.84V20h-28v3.88h7V21.33h3.61v2.59h8.14V21.33h3.61v2.59H694V27h-6.15v3.56h7.56Zm-22.92-3.19V27h-7a28.47,28.47,0,0,1-.08,3.56Zm17.18-13.86v-3H665.48v3Zm-5.43,13.86V27H676.1v3.56ZM696.1,43.94,694,47.13Q682.93,43.59,678.44,36l3.38-1.35A19.55,19.55,0,0,0,685.77,39a15.63,15.63,0,0,0,4.79-4.12L694,36.73a26.35,26.35,0,0,1-4.83,4.45A31.8,31.8,0,0,0,696.1,43.94Z"/><path class="cls-1" d="M717.77,16.19l-2,3a19.51,19.51,0,0,0-2.18-2.28v2.76h-7.86V18a28.68,28.68,0,0,1-3.93,2.88l-1.06-3.77A28.26,28.26,0,0,0,709.19,9l3.44,1.22a3.33,3.33,0,0,1-.62.93A40.7,40.7,0,0,1,717.77,16.19ZM717.48,44l-3.35,1.74a18.69,18.69,0,0,0-1-2.67,64.21,64.21,0,0,1-9.8,3.48l-1-3.21a1.8,1.8,0,0,0,.79-1.49V21.53h13V35.38h-9.37v6.44a36.32,36.32,0,0,0,4.87-1.94,10.34,10.34,0,0,0-1.23-2.3L713.61,36A39.77,39.77,0,0,1,717.48,44Zm-4.89-17.14V24.73h-5.88v2.15Zm0,5.31V29.6h-5.88v2.59Zm.65-15.63a38.54,38.54,0,0,0-3.32-2.76,28.89,28.89,0,0,1-2.59,2.76Zm24.62,4.89h-2.39v9.43H723.81v2.88h13.11V44.87H723.81v1.82h-3.73V21.45h-1.83V13.93h7.59a26.87,26.87,0,0,0-1.7-3.73L728,9.14a30.53,30.53,0,0,1,1.95,4.79h7.94Zm-3.69-1V17.2H722v3.24Zm-2.43,7.13V23.73h-7.93v3.84Zm1.54,14V37.16h-9.47v4.42Z"/><line class="cls-2" x1="476.07" y1="4.74" x2="476.07" y2="51.15"/><path class="cls-3" d="M21.49,70.38H15.17v-.94a1.75,1.75,0,0,0-1.5-1.88c-.49-.1-1-.1-1.49-.17a3.58,3.58,0,0,1-1.25-.29A6.3,6.3,0,0,0,8,66.44a5.92,5.92,0,0,1-2.53-.67,3.75,3.75,0,0,0-2.31-.38,6.12,6.12,0,0,1-2.62-.26A5.6,5.6,0,0,1,0,64.87a2.94,2.94,0,0,1,1.89-.73c.09,0,.18,0,.28.06a1,1,0,0,0,1.32-1.1,5.88,5.88,0,0,0-.28-1.54,1.17,1.17,0,0,1,.4-1.35A6.72,6.72,0,0,1,5,59.46a1.67,1.67,0,0,1,.7-.12,2.78,2.78,0,0,0,2.06-.66,2.07,2.07,0,0,1,1.44-.36,3.66,3.66,0,0,0,2.26-.73A20.46,20.46,0,0,1,14,56.32c.39-.18.76-.39,1.15-.57a6.21,6.21,0,0,1,1.06-.4,1.87,1.87,0,0,0,1.05-.56,1.67,1.67,0,0,1,2.22-.14,2.93,2.93,0,0,0,2,.71,1.79,1.79,0,0,1,1.13.38,3.92,3.92,0,0,0,2.32.84c.88.09,1.77.13,2.65.15a4.37,4.37,0,0,1,2.12.57,5.9,5.9,0,0,0,1.25.52,2.35,2.35,0,0,0,2.36-.46A1.62,1.62,0,0,1,35.1,57a4.14,4.14,0,0,0,3.27-.16,2.8,2.8,0,0,1,1.19-.21c1.22,0,2.44.05,3.66.09a2.66,2.66,0,0,1,.56.12,12.18,12.18,0,0,0,3.56.36,2.05,2.05,0,0,0,1.26-.46.86.86,0,0,0,0-1.46L48,54.73a10.49,10.49,0,0,1,1-.25c.69-.06,1.39-.13,2.08-.14s1.29.06,1.93.08,1,0,1.49,0a2.24,2.24,0,0,1,1.42.41,3.42,3.42,0,0,0,2.84.62c1.49-.24,3-.35,4.48-.62a45,45,0,0,1,5.56-.6q.68,0,1.35-.12a1.94,1.94,0,0,0,.69-.17,17.58,17.58,0,0,0,4.59-3.17c2-2.14,3.89-4.36,5.82-6.56.55-.63.61-.61,1.46-.37a13.46,13.46,0,0,0,2.6.44c1,.08,2.06,0,3.1,0A2.14,2.14,0,0,1,90,44.9a2.3,2.3,0,0,0,1.57.6,2.24,2.24,0,0,1,1.27.44c1,.68,2,1.35,3,2a3.94,3.94,0,0,0,2.16.42,6.41,6.41,0,0,1,2.9.69,8.09,8.09,0,0,0,1.45.35,5.63,5.63,0,0,1,1.18.45,8.09,8.09,0,0,1,2.42,2.1,8.9,8.9,0,0,0,3.38,2.49,2,2,0,0,1,.6.38,2.28,2.28,0,0,0,1.55.66,2.93,2.93,0,0,1,1.8.62,3.65,3.65,0,0,0,1.95.64,23.47,23.47,0,0,1,2.34.32,1.56,1.56,0,0,1,.79.44A.91.91,0,0,1,118,59a7.61,7.61,0,0,1-1,.28,1.94,1.94,0,0,0-.49.11c-.83.46-1.65.93-2.47,1.4-.13.07-.21.23-.34.27A20,20,0,0,0,111,62.43c-1,.48-2,1-3,1.46a3.58,3.58,0,0,1-1.16.32,8.72,8.72,0,0,0-3,.76,6.28,6.28,0,0,1-1.88.43,2.15,2.15,0,0,0-1.66,1,6.4,6.4,0,0,1-3,2.35,2.43,2.43,0,0,1-2.14,0,10.38,10.38,0,0,0-3.52-.93,49.46,49.46,0,0,1-4.95-1.18,4,4,0,0,0-.92-.13c-1.48,0-3,0-4.43-.07A4,4,0,0,1,79.68,66a7.22,7.22,0,0,0-2.92-.62c-1.57-.08-3.15-.23-4.72-.37a2.55,2.55,0,0,1-.75-.21,8.54,8.54,0,0,0-3-.51c-1.24,0-2.49,0-3.74-.06-.81,0-1.6-.23-2.41-.3a13,13,0,0,0-3.93-.15,2.06,2.06,0,0,1-.84-.1,2.81,2.81,0,0,0-1.41,0c-.72.18-1.45.32-2.18.44a8.54,8.54,0,0,1-1.43.13c-3.43,0-6.86,0-10.29.08a11.89,11.89,0,0,0-2.81.52,13.74,13.74,0,0,1-3.82.56,3.86,3.86,0,0,0-2.19.54,3.44,3.44,0,0,1-1.42.45,2.39,2.39,0,0,0-1.47.8,5.46,5.46,0,0,1-4.57,2,18.35,18.35,0,0,0-3.14.15A1.18,1.18,0,0,0,21.49,70.38Z"/><path class="cls-4" d="M26.28,44.25h2A3,3,0,0,0,30,43.88a3.34,3.34,0,0,1,2-.53,2.71,2.71,0,0,0,1.93-.62,7.41,7.41,0,0,1,.88-.49,6.26,6.26,0,0,0,1.11-.77c.58-.6,1.09-1.27,1.64-1.9A2.65,2.65,0,0,0,38.17,38,4.92,4.92,0,0,0,38.25,36a1,1,0,0,0-1.08-.86c-.32,0-.63,0-.94,0A1.27,1.27,0,0,1,35,33.5c.18-.72.1-.92-.54-1.3a8.86,8.86,0,0,0-1-.5,3,3,0,0,1-1.25-.82,1.35,1.35,0,0,0-1-.45l-1.44-.05a2,2,0,0,1-1.55-.62,1.58,1.58,0,0,0-1.28-.53c-.24,0-.48,0-.72,0a2.06,2.06,0,0,1-1.54-.49,2.19,2.19,0,0,0-1.87-.49c-.43.07-.86.05-1.29.13a1.41,1.41,0,0,0-.77.32,2.73,2.73,0,0,1-2,.82,6.22,6.22,0,0,1-1.49-.08.76.76,0,0,1-.56-1.2A8.53,8.53,0,0,1,20.1,24.4a1.25,1.25,0,0,0,.37-.22,3.65,3.65,0,0,1,2-1.09.94.94,0,0,0,.72-1,7.79,7.79,0,0,0,0-1.08A1.15,1.15,0,0,1,24,19.85a5.58,5.58,0,0,1,.94-.34c1.16-.29,2.33-.53,3.48-.84a6.39,6.39,0,0,1,3.47,0c1.28.36,2.6.62,3.91.87a5.43,5.43,0,0,1,3,1.25.48.48,0,0,0,.11.09,22.16,22.16,0,0,1,2.79,1.42,1.69,1.69,0,0,1,.48.3c.67.68,1.31,1.39,2,2.06a10.64,10.64,0,0,1,1.74,2.16,5.28,5.28,0,0,1,.39.69,1.66,1.66,0,0,0,1,1,1,1,0,0,1,.53.61,22.5,22.5,0,0,1,.41,6,5.24,5.24,0,0,0,.55,3.21,1.75,1.75,0,0,1,.16,1.31,8.87,8.87,0,0,1-1.19,3c-.14.22-.22.48-.35.71s-.45.73-.7,1.07a19.73,19.73,0,0,1-1.3,1.71C44.23,47.43,43,48.71,41.8,50a12.86,12.86,0,0,1-1.59,1.22.92.92,0,0,1-.39.18,6.46,6.46,0,0,0-2.14.77,5.28,5.28,0,0,1-1,.3,7.75,7.75,0,0,0-1,.22,10.92,10.92,0,0,1-2.88.53c-.43,0-.85.18-1.27.21-1.53.13-3,.78-4.51.77a6.22,6.22,0,0,1-3.78-1.32A23.58,23.58,0,0,0,21,51.44a2.65,2.65,0,0,1-.5-.27,3,3,0,0,0-1.5-.92.5.5,0,0,1-.3-.8A1.58,1.58,0,0,0,18.85,48a1,1,0,0,1,.27-.69,8.41,8.41,0,0,1,2.36-1.73,2.41,2.41,0,0,0,.8-.6,1.9,1.9,0,0,1,1.63-.74c.79,0,1.58,0,2.37,0Z"/><path class="cls-5" d="M64.38,18a5.93,5.93,0,0,0,.11,1.13,11.56,11.56,0,0,1,.18,3.93,2.64,2.64,0,0,1-1,2.08,2,2,0,0,0-.41.66c-.24.46-.47.93-.7,1.4a1.7,1.7,0,0,0-.22.45,3.91,3.91,0,0,1-1.11,1.72c-.55.59-1,1.28-1.5,1.91a4,4,0,0,1-1,.94,3,3,0,0,0-1.19,1.29,1.84,1.84,0,0,1-.68.8c-.85.5-1.73.93-2.6,1.36a4.61,4.61,0,0,1-.83.22,2.51,2.51,0,0,0-.69.19,3.94,3.94,0,0,1-2.41.41,1,1,0,0,1-1.07-1.07c0-.53,0-1.06-.05-1.58,0-.77-.08-1.53-.16-2.29,0-.23-.09-.55-.25-.64-.44-.27-.43-.71-.55-1.11s-.27-.85-.44-1.27a.54.54,0,0,1,0-.66,4.25,4.25,0,0,1,.6-.6c1-.74,2.08-1.45,3.1-2.2A2.89,2.89,0,0,0,53,22.88c0-.71.19-1.42.22-2.13a3.49,3.49,0,0,0-1.71-3.05c-.37-.26-.7-.56-1-.85A4.94,4.94,0,0,0,50,16.5C49,15.9,48,15.28,47,14.72a3.59,3.59,0,0,0-1.23-.31c-.4-.05-.82,0-1.22,0a2.49,2.49,0,0,1-1.68-.54,1.93,1.93,0,0,0-1.39-.47,3.89,3.89,0,0,1-2-.49,3.64,3.64,0,0,0-4.16.32,2.7,2.7,0,0,1-2.79.32A1,1,0,0,1,32,12.07,5.17,5.17,0,0,1,33.7,9.81a11.17,11.17,0,0,0,1.82-1.62,2.65,2.65,0,0,1,1.79-.8c.8-.12,1-.42.93-1.2,0-.21-.11-.41-.15-.63a1.55,1.55,0,0,1,1.35-1.92C41,3.43,42.51,3.21,44.05,3a3.83,3.83,0,0,1,1.12,0,12,12,0,0,0,4,.33,8.86,8.86,0,0,1,2.47.34.66.66,0,0,1,.38.19,2.71,2.71,0,0,0,1.71.82.65.65,0,0,1,.33.11,27.58,27.58,0,0,1,2.59,1.78,22.88,22.88,0,0,0,2.13,1.57,4.18,4.18,0,0,1,1,1A9,9,0,0,0,61.43,11a3.4,3.4,0,0,1,1.22,2.59,3.7,3.7,0,0,0,1.06,2.37A2.28,2.28,0,0,1,64.38,18Z"/><path class="cls-4" d="M65.57,19.57a1.42,1.42,0,0,1,.56-.19,7.69,7.69,0,0,1,4.55,1.49.76.76,0,0,0,.31.18,11,11,0,0,1,2.78,1.28,1.14,1.14,0,0,1,.31.16l2.57,2.16a.79.79,0,0,1,.2.21A31.23,31.23,0,0,0,79,27.7a1.07,1.07,0,0,1,.16.32,17,17,0,0,0,1.52,3.08A3.3,3.3,0,0,1,81,32.55a6.29,6.29,0,0,0,.19,1.56,9.6,9.6,0,0,1,.1,3.85c-.1.73-.19,1.46-.32,2.19a2.3,2.3,0,0,1-.24.74c-.34.63-.72,1.25-1.08,1.86l-.14.25a18.71,18.71,0,0,1-3.45,4.9A14.77,14.77,0,0,1,73.74,50a7.77,7.77,0,0,1-3.09,1.29c-.83.19-1.65.46-2.5.63a63.51,63.51,0,0,1-6.77,1.51,20.3,20.3,0,0,1-3,0,3.84,3.84,0,0,1-2.49-1.29,2.41,2.41,0,0,0-1.55-.81,1.15,1.15,0,0,1-.65-.28,4,4,0,0,1-1.48-1.71,3.8,3.8,0,0,0-.38-.68.9.9,0,0,1,.25-1.38c.77-.57,1.56-1.1,2.34-1.67a5,5,0,0,0,.86-.74,1.33,1.33,0,0,1,1.06-.48c1.75,0,3.5,0,5.25.06a2.35,2.35,0,0,0,1.61-.49,2.12,2.12,0,0,1,1.67-.52,2.15,2.15,0,0,0,1.66-.49,21.7,21.7,0,0,0,1.89-1.3,6.07,6.07,0,0,0,2.07-2.5,3.15,3.15,0,0,1,.31-.64,2.72,2.72,0,0,0-.13-3.28c-.25-.33-.46-.68-.69-1a7.57,7.57,0,0,0-3.41-2.77,1.53,1.53,0,0,1-.56-.31,8.37,8.37,0,0,0-2.33-1.39c-.61-.3-.7-.64-.35-1.21.13-.21.3-.38.42-.59a3.28,3.28,0,0,0,.49-.87,18.56,18.56,0,0,0,.78-3C65.15,22.61,65.37,21.14,65.57,19.57Z"/><path class="cls-4" d="M67.27,40.85c-1.17.54-2.21,1.4-3.65,1.41-1.12,0-2.24.19-3.36.26a1,1,0,0,1-1.09-.82,1,1,0,0,1,.64-1.14,12.68,12.68,0,0,1,1.34-.5c.39-.13.78-.26,1.17-.36a3,3,0,0,1,1.4-.14,9.67,9.67,0,0,0,1.43,0,7.59,7.59,0,0,1,1.07.07A1.15,1.15,0,0,1,67.27,40.85Z"/></svg>