<svg id="圖層_1" data-name="圖層 1" xmlns="http://www.w3.org/2000/svg" viewBox="0 0 1090.87 256.65"><defs><style>.cls-1{font-size:103.18px;}.cls-1,.cls-3{font-family:MicrosoftJhengHeiBold, Microsoft JhengHei;}.cls-1,.cls-3,.cls-4{font-weight:700;}.cls-2{fill:#e1002c;}.cls-3{font-size:77px;letter-spacing:0.1em;}.cls-4{font-size:58.5px;font-family:MyriadPro-Semibold, Myriad Pro;}.cls-5{fill:none;stroke:#000;stroke-miterlimit:10;stroke-width:4px;}</style></defs><title>logo</title><text class="cls-1" transform="translate(567.28 179.56)">醫學圖書館</text><path class="cls-2" d="M51.11,152v42H35.32V152.1H16.08V137.66h19.2V115.39H51v22.13H69V152Z"/><path class="cls-2" d="M80.26,196.56l-.18-.53c.45-.32.89-.66,1.35-.95,5.4-3.36,11.09-6.32,16.15-10.13a73.72,73.72,0,0,0,26.23-36c3.86-11.52,4.51-23.33,3.07-35.34-2.15-18-9.66-33.24-23.13-45.49C96.3,61.35,87.81,56.07,79.14,51.06a3.7,3.7,0,0,1-2.09-3.74c.09-12.34,0-24.68,0-37,0-.78-.07-1.56-.12-2.49-5.9,1-10.14,4-12.39,9.14-4.11,9.43-3.67,18.59,3,26.86,2.18,2.71,4.75,5.09,6.93,7.39a27.33,27.33,0,0,0-.79,4.63q-.06,68.91,0,137.81v2.91l-4.35.28c0,4.33,0,8.44,0,12.55a2.9,2.9,0,0,0,3,3,3,3,0,0,0,3-3,21.3,21.3,0,0,0,0-2.26v-151c0-2.71.21-2.88,2.91-2.15v154.2c0,.41,0,.82,0,1.23-.24,4-2.56,6.59-5.92,6.55s-5.91-2.76-6-6.74c-.05-2.53,0-5.07,0-7.61v-4.9H0c.42,1.28.72,2.31,1.09,3.3,5.94,15.61,15.64,28.2,29.94,37,12.68,7.83,26.64,10.79,41.41,10.72,11.18-.05,22-1.85,32.18-6.54,18.25-8.4,30.14-22.56,37-41.23.37-1,.66-2.06,1.12-3.48Zm0-142.12A85.9,85.9,0,0,1,100.67,72c11.26,13.21,17.7,28.43,18.66,45.79,2,35.76-18.89,63.44-39.09,75.09ZM73.61,208.65c-.08.67-.76,1.27-1.16,1.9-.45-.58-1.27-1.14-1.29-1.74-.14-3.06-.11-6.13,0-9.2,0-.42.85-1.21,1.14-1.14.53.13,1.27.73,1.33,1.2a39.51,39.51,0,0,1,.06,4.49A37.29,37.29,0,0,1,73.61,208.65ZM75.17,47.76c-10.37-9.4-10.84-25.19,0-37.48Zm62.84,153a58.44,58.44,0,0,1-33.21,29.4c-23.4,8.53-46.95,8.22-70-1.3-13.1-5.4-23.12-14.51-29.26-27.53-.4-.83-.66-1.73-1.12-3H6.9c18.44,0,36.89,0,55.33,0,2,0,2.6.58,2.5,2.54-.16,2.88-.06,5.76,0,8.64,0,4.75,3.35,8.22,7.87,8.23s7.5-3.13,7.52-8.13c0-3.16,0-6.31,0-9.46,0-1.11.17-1.8,1.55-1.79q28.18,0,56.36,0a7.42,7.42,0,0,1,.92.18C138.59,199.36,138.36,200.1,138,200.78Z"/><path d="M460.42,120.82c-1.1,1.44-2.23,2.85-3.28,4.32-1.26,1.77-3.16,2-5.05,2.1-1.22,0-1.76-.95-1.24-2.07a17.83,17.83,0,0,1,2.23-3.77c2.4-2.94,5-5.74,7.39-8.68a5.73,5.73,0,0,0,1.29-2.86c.32-2.92.28-5.91,2.07-8.45A12.73,12.73,0,0,1,466,98.93c1.35-1.13,2.27-.88,2.63.82a32.64,32.64,0,0,1,.69,6c0,1.39.4,2,1.87,2,2.88,0,5.76.15,8.64.22a8.3,8.3,0,0,1,8.34,8.43,32.7,32.7,0,0,1-.51,6,5.67,5.67,0,0,1-9.42,3.19,15.32,15.32,0,0,1-3.18-4.21,4,4,0,0,1,0-2.89c.57-1.61,1.61-1.81,3-.78.69.51,1.21,1.26,1.93,1.69.55.33,1.58.67,1.87.41a2.92,2.92,0,0,0,.91-2.11,4.7,4.7,0,0,0-4.79-3.77,51.12,51.12,0,0,0-7.91,1.44c-.45.1-1,1.05-1,1.64-.36,5.51-.66,11-.85,16.54a2.18,2.18,0,0,0,1.13,1.71,8.73,8.73,0,0,0,3.41.42c2.31-.17,3.18.41,3.81,2.65,1.18,4.21-.22,7.84-2.4,11.31-2.54,4.08-6.05,7.19-9.77,10.15q-5.16,4.13-10,8.63c-1.39,1.29-2.51,1.66-4.35.95-4-1.53-4.34-2-1.31-5,3.24-3.26,6.86-6.12,10.25-9.22,2.85-2.61,5.74-5.19,8.35-8,3.24-3.51,2.84-5.34-1.71-6.9-3.6-1.23-4.83-3.48-4.7-7,.14-4,0-8.09,0-12.13Z"/><path d="M427.2,118.77h-4.41c-1.5,0-3.3,0-3.78-1.57a5.34,5.34,0,0,1,.81-3.69,8.74,8.74,0,0,1,7-4.45,33.55,33.55,0,0,1,12.71,1.37c3.77,1.13,5.46,3.71,5.83,7.56.61,6.26-2.09,11.19-6,15.66-3,3.46-4.06,3.56-8.13,1.39-.7-.38-2.18-.71-2.35-.45a4.82,4.82,0,0,0-.93,3.09,14.83,14.83,0,0,0,1.78,4.2,17.84,17.84,0,0,1,1.66,13c-1,4.31,0,8.33,2.05,12.2a27.61,27.61,0,0,1,2.38,5.9c.59,2.28,0,2.89-2.3,3.06-4.85.36-8.66-1.59-8.88-7.69-.29-8-.88-15.92-1.67-23.85-.26-2.62-1.58-5.12-2.36-7.69-.48-1.58-.93-3.18-1.25-4.79a7.23,7.23,0,0,1,1.42-6.58c1.38-1.56,2.51-1.74,4.4-.87a36.49,36.49,0,0,0,5.07,2.08,5.24,5.24,0,0,0,5.59-1.93,3.31,3.31,0,0,0-1.25-5.56,8.44,8.44,0,0,0-2.83-.62c-1.53-.1-3.07,0-4.6,0Z"/><path d="M500.44,160.31c.23-3.76.46-7.46.68-11.14,2.79,0,4.37,1.42,5,4.08a10.63,10.63,0,0,0,1.6,4c3.22,4.16,2.29,9.33-2.6,11.45a130.67,130.67,0,0,1-14.27,5.19,19.57,19.57,0,0,1-13-.2c-4.43-1.72-8.29-4.08-9.24-9.27a8.59,8.59,0,0,1,.09-2.72c.48-3.25,1.44-4.3,4.9-1.91,1.17.81,1.91,2.22,3,3.2a4.64,4.64,0,0,0,2.42,1.25c3.48.28,7,.4,10.46.48a3.32,3.32,0,0,0,1.83-.66C494.06,162.18,496.93,160.61,500.44,160.31Z"/><path d="M188.29,161.91c-2.3,3.19-4.27,6.07-6.39,8.82-4.73,6.14-4.76,6-12.47,6a7.63,7.63,0,0,1-5.87-2.29c-1.24-1.25-2.69-2.29-4.27-3.61,1.65-1.29,3.12-2.47,4.63-3.58a1.12,1.12,0,0,1,1-.05c1.77,1.13,3.33.3,4.53-.79a70.55,70.55,0,0,0,7.08-7.18c3.08-3.73,5.95-7.64,8.7-11.62.76-1.09.77-2.69,1.12-4a36.76,36.76,0,0,0-3.78.62c-3.47.93-6.81,2.45-10.57,1.88a14.37,14.37,0,0,1-7.94-3.9,1.43,1.43,0,0,1,.93-2.66c2.92-.3,5.87-.4,8.79-.74,2-.24,4-.81,6.1-1.12,4.1-.61,8.21-1.24,12.34-1.66,1.77-.18,3.14-.79,3.84-2.36,1.06-2.39,1.91-4.86,2.91-7.45-1.8-.46-3.62-.88-5.42-1.4A16.6,16.6,0,0,1,190,123.4a9.46,9.46,0,0,1-1.88-2,8.79,8.79,0,0,1,2.33-1.46,27.54,27.54,0,0,1,3.66-.26c4.68-.49,9.49-.5,14-1.65,5.12-1.29,7.72-4,7.91-9a31.26,31.26,0,0,1,1.57-7.33,3,3,0,0,1,1.88-1.66,10.43,10.43,0,0,1,3.82-.22,3.15,3.15,0,0,1,3,2.8,16.05,16.05,0,0,1-1.23,9.17,6.19,6.19,0,0,1-4.23,3.55c-1,.24-1.19.67-1,1.68.74,3.57-.87,6.34-4.32,7.73s-7.06,1.41-10.69,1.37H203c.19,2.5,4.11,3.94,1.52,6.92l.43.47c1.81-.44,3.81-.52,5.4-1.37,4.78-2.57,9.69-2.14,14.68-1.16a4.36,4.36,0,0,1,3.3,3.37c.39,1.25-.62,2.43-2.35,2.64-2.07.26-4.19.14-6.22.55a56.82,56.82,0,0,0-5.83,1.93,15.09,15.09,0,0,1-3.26.86c-1.82.17-3.68,0-5.51.18-3.22.32-5.6,1.84-8,4.28-3.15,3.25-3.95,7.37-5.75,11.12-.59,1.24,0,2,1.2,2A23.72,23.72,0,0,0,198,157c4.22-1.21,8.31-3,12.59-3.83s8.07,1,11.81,2.74a2.79,2.79,0,0,1,1.11,2.05c.23,3.28-1.59,5.69-3.73,7.89-.76.78-1.75,1.36-2.47,2.18a2.38,2.38,0,0,0-.5,1.78c.09.39.84.81,1.35.9a3.42,3.42,0,0,1,3.19,3.57c.07,2.06-.68,3.18-3,3.39a45.59,45.59,0,0,1-7.48-.13c-2.75-.22-5.48-.64-8.21-1a1.89,1.89,0,0,1-1.22-.64c-1.68-2.42-.83-6.24,1.67-8s5.16-3.53,7.6-5.46c.81-.64,1.18-1.83,1.75-2.76-1.16-.11-2.41-.54-3.47-.27-3.24.84-6.43,1.52-10,.4v6.61c0,1.11,0,2.21,0,3.32,0,2.32-1.07,3.28-3.45,3.16-4.13-.22-6.66-2.9-7-7.5C188.37,164.39,188.36,163.36,188.29,161.91Z"/><path d="M200.76,114c-1-.37-2.93-.63-4.32-1.6a63.71,63.71,0,0,1-7.67-6.43,8.34,8.34,0,0,1-1.71-3.79,3.84,3.84,0,0,1,1.53-4.22c1.43-1.1,2.8-.86,4.26,0a35.88,35.88,0,0,1,9.73,8,2.69,2.69,0,0,0,2.51,1,18.82,18.82,0,0,1,4.13.75,23.6,23.6,0,0,1-1.84,3.44C205.94,113,203.84,113.81,200.76,114Z"/><path d="M279.84,162.14c5,2.29,10.34,5.27,16.75,3.93,3.32-.7,4.23-1.85,4.42-5.16a2.87,2.87,0,0,1,2.79-3,3.29,3.29,0,0,1,3.87,2.33c2.12,6.32-2.42,13.73-9.11,14.58-8.83,1.12-17-.45-24.49-5.67a17.92,17.92,0,0,0-6.41-2.52c-4.42-.94-5.75-2.25-5.92-6.75a12.74,12.74,0,0,0-.13-2.56,3.19,3.19,0,0,0-1.12-1.76c-1.15-.78-1.22-1.6-.19-2.31,1.55-1.08,3.23-2,4.88-2.92a2.25,2.25,0,0,1,3.19.84c1.42,1.93,2.79,3.9,4.29,5.76,2.09,2.6,3.87,2.57,6,.08,3-3.51,4.64-7.52,4-12.18-.16-1.18-1-2.25-1.5-3.4a4.31,4.31,0,0,1-.6-2.33c.12-.44,1.28-.79,2-.84,3.12-.23,5.71,2.28,6,5.93A16.17,16.17,0,0,1,284.25,157C282.7,158.64,281.3,160.43,279.84,162.14Z"/><path d="M251.87,116.85c2.18-.71,4.35-1.5,6.57-2.11,1.6-.43,2.77-1,2.78-2.94,0-.6.55-1.67.92-1.7a9.65,9.65,0,0,1,2.91.52,12.88,12.88,0,0,0,2.15.71c2.06.13,4.16-.06,6.19.2a3.45,3.45,0,0,1,3.2,2.89,5.43,5.43,0,0,1-1.32,3.54c-.51.61-1.85.7-2.83.74-1.46,0-2.26.43-2.19,2.1s-.77,3.66,0,4.57,2.92.63,4.48.84c2.88.39,4,1.31,4.26,3.55a2.73,2.73,0,0,1-3,3.33c-4.42,0-8.83,0-13.24-.17a21.61,21.61,0,0,1-6-1.34c-.79-.28-1.89-1.56-1.76-2.16a4,4,0,0,1,2.12-2.22,33.43,33.43,0,0,1,5.05-1.63c1.05-.29,1.58-.68,1.23-1.92-.45-1.57-.2-3.72-1.17-4.64s-3-.36-4.6-.52c-1.89-.2-3.78-.47-5.66-.71Z"/><path d="M294.7,124.84c2.31.18,4.38.24,6.41.54a11.46,11.46,0,0,1,3.42,1.17c1.21.62,1.3,1.6.2,2.47-3.51,2.82-7.42,4.63-12,3.91a31.1,31.1,0,0,1-6-1.78,4.47,4.47,0,0,1-2.17-1.61,4.07,4.07,0,0,1-.76-2.91c.24-.68,1.58-1.27,2.49-1.36,2.91-.31,2.8-.23,3-3.22.11-1.86-.37-3-2.24-3.56a5.51,5.51,0,0,1-1.87-1.14c-2.54-2.06-2.07-4.71,1-5.93a5.8,5.8,0,0,0,1.73-1.24c1.59-1.51,3.19-1.82,4.72-.31s3.08,1.55,4.85,1.55c4.36,0,5.63,2.27,5.89,6.12.08,1.34-.43,2.11-1.91,2a24.36,24.36,0,0,1-2.57,0c-2.17-.37-3.16.58-3.41,2.65A22.79,22.79,0,0,1,294.7,124.84Z"/><path d="M255.07,175.1a4.25,4.25,0,0,1-4.52-3.23,8.47,8.47,0,0,0-1.08-2.68,5.24,5.24,0,0,0-2.38-1.66c-1.33-.41-2.61-1-2.65-2.39a5,5,0,0,1,1.11-3.41c1.64-1.59,4.08-2.81,6.63-1.14,1.88,1.23,4,2.26,5.53,3.83a11.43,11.43,0,0,1,2.66,4.88c.93,3.38-.39,5.08-3.84,5.62Z"/><path d="M253.09,106.42A25.55,25.55,0,0,1,264,100.35a45.36,45.36,0,0,1,6.5-1c2.68-.33,4.87,1,7,2.36a1.76,1.76,0,0,1,.42,1.47c-.16,1.15-.66,2.25-.74,3.39-.09,1.39-.83,1.8-1.93,1.46-5.39-1.67-10.93-.77-16.41-1.07-1.82-.1-3.65,0-5.47,0Z"/><path d="M314.51,144.33a18,18,0,0,1-1.13,3.24c-1.19,2.09-3,2.67-4.9,1.17a91.51,91.51,0,0,1-7.24-7,1.29,1.29,0,0,1,.08-1.24c1-1.1,1.9-2.47,3.15-3,1.06-.47,2.58-.09,3.85.15C312.09,138.36,314.27,140.84,314.51,144.33Z"/><path d="M290.07,99.89c1.64.2,3.3.29,4.91.62,2.06.42,2.61,1.29,2.64,3.69,0,2-.89,3.51-2.72,3.81a14.94,14.94,0,0,1-4.17,0c-.44-.06-1-.84-1.12-1.38-.29-1.27-1-1.53-2.13-1.34-1,.15-2,.12-2.92.27-1.62.27-2.31-.69-2.51-2a2.18,2.18,0,0,1,1.83-2.73C285.92,100.44,288,100.19,290.07,99.89Z"/><path d="M270.48,146.42c1.88,0,3.53,0,5.17,0a2.19,2.19,0,0,0,2.48-1.68c.12-.4.87-1,1.15-.87a1.75,1.75,0,0,1,1,1.19,21.54,21.54,0,0,1-.06,4.75,4.44,4.44,0,0,1-1.41,2.45c-1.33,1.17-5.59.95-7.15-.29C269.88,150.54,270.13,148.59,270.48,146.42Z"/><path d="M372.19,149.08c1.7.41,3.41.77,5.09,1.24,4.65,1.27,6.57,3.44,6.59,8.23,0,5.51-.34,11-.58,16.54-.07,1.72-.39,3.43-.39,5.14a1.9,1.9,0,0,1-2.11,2.18c-3,0-5.78-.56-7.83-2.91a2.25,2.25,0,0,0-2.63-.86,23.85,23.85,0,0,1-6.18.61c-2.44-.1-3.73-1.57-4.06-4.22a20.2,20.2,0,0,1,11.3.14c.64.2,1.27.49,1.92.63a2.85,2.85,0,0,0,3.5-1.65,9.14,9.14,0,0,0,.71-2.46c.6-4.63,1-9.28-.15-13.89-.6-2.51-2-3.49-4.57-3.45v6.37a4.6,4.6,0,0,1,0,1.82c-.45,1-1,2.4-1.79,2.6a3.1,3.1,0,0,1-2.76-1.37,42.56,42.56,0,0,1-1.05-6.42,18.63,18.63,0,0,0-.49-1.92l-1,.12a29.21,29.21,0,0,1-.05,3.86c-.1.73-.51,1.79-1.05,2a3.14,3.14,0,0,1-2.68-.16,9.77,9.77,0,0,1-2.11-3.11c-.56-1.09-4.13-2.3-5.08-1.56a1.26,1.26,0,0,0-.35.79c-.23,2.19-.76,4.43-.5,6.57.15,1.19,1.45,2.47,2.56,3.25a3.44,3.44,0,0,1,1.8,3.44c-.15,1.64.06,3.32-.09,5A2,2,0,0,1,357,177c-3.61.72-6.62-1.06-7.34-4.67-.81-4.07-1.16-8.24-1.78-12.36s3.39-6.22,6.46-6.79c1.55-.3,3.11-.57,4.63-1s1.18-1.45.9-2.54c-.32-1.28-1.19-1.09-2-.81-3.88,1.33-7.72,2.75-11.61,4-4.17,1.37-8.37,2.08-12.41-.4a10.57,10.57,0,0,1-1.85-1.87,10.4,10.4,0,0,1,2.54-1.14c5.64-.84,11.31-1.42,16.91-2.43a34.14,34.14,0,0,0,7.43-2.59c4.75-2.06,9.73-2.48,14.78-2.34,4,.11,8.07.49,12.11.71,2.08.12,4.26-.24,6.2.3a56.91,56.91,0,0,1,8.63,3.41c1.25.57,2.23,1.65,1.55,3.28a3,3,0,0,1-3.76,1.82,4.55,4.55,0,0,1-1.86-.74c-3-2.41-6.6-3-10.19-3.16-4.2-.16-8.42.28-12.64.51a6.37,6.37,0,0,0-1.52.48Zm-3.78-.67-.9-.85a8.15,8.15,0,0,0-1.52,1.53c-.1.18.53.81.83,1.23Z"/><path d="M379.94,118.63c2.33,0,4.23-.08,6.11,0,4.44.22,5.92,2.34,4.27,6.43a71.68,71.68,0,0,1-3.64,6.88l1.82.82v5.78a6.94,6.94,0,0,1-5.25-1.37c-1.53-1.16-2.84-1-4.26.24a10.29,10.29,0,0,1-10.72,2.42c-.06,0-.13,0-.17-.06-.79-.83-1.58-1.67-2.36-2.51a10.73,10.73,0,0,1,3-.84c2.35,0,4.68.27,6.52-2L372.13,131a25.09,25.09,0,0,1,3.54-.61c2.33-.07,4.66,0,7,0a2.77,2.77,0,0,0,1.08-.09c1.77-.77,4-5.79,3.14-7.54a3.51,3.51,0,0,0-2.37-1.82,28.18,28.18,0,0,0-5.59.73c-1.69.29-3.36.69-5,1l-.3-.66c2.07-2.22,4.16-4.42,6.21-6.65,1.06-1.14,2.43-2.07,2.35-4,0-.45.74-.9,1.08-1.4a29.64,29.64,0,0,0,2.82-4.23c.66-1.41-.21-2.22-1.75-1.88-2.78.61-4.88,2-5.32,5a8.23,8.23,0,0,1-.35,1.24c-.4,1.38-.47,3.09-2.35,3.34a5.15,5.15,0,0,1-5-2.16,10.77,10.77,0,0,1-1.59-8.47c.49-2.31,2.59-3.51,4.68-4.3.34-.13,1.44.8,1.62,1.4a17,17,0,0,1,.21,3.29c.13,1.43.89,1.82,2.12,1.08a16.49,16.49,0,0,0,1.92-1.43c3.22-2.69,9.37-3.12,12.92-.9,2.64,1.66,2.58,3.38.15,5.28-4.29,3.35-8.44,6.88-12.65,10.34A8.45,8.45,0,0,0,379.94,118.63Z"/><path d="M362.6,134.36c-2.42,2.44-4.49,4.58-6.63,6.65a2.63,2.63,0,0,1-1.39.33q-5.77.53-11.54,1c-4.19.35-9-3.67-9.11-7.85-.06-2.86.35-5.73.52-8.59a4.64,4.64,0,0,1,2.49-3.65c1.84-1.21,2.84-.76,3,1.44s.14,4.66.19,7c0,.9,0,1.8,0,2.7,2.64.06,7.1-3,8.65-6-1.51-.12-2.88-.21-4.24-.33-1.09-.09-2.43,0-2.51-1.5a2.49,2.49,0,0,1,2.27-2.86c1.95-.25,3.93-.25,5.86-.56,2.4-.39,4.76-1,7.15-1.45a17.71,17.71,0,0,1,4.35-.3c.69.06,1.31.87,2,1.35a7.39,7.39,0,0,1-1.5,1.64c-2.73,1.61-5.61,3-8.28,4.71a20.82,20.82,0,0,0-3.58,3.39c-.59.62-.69,1.64.37,1.61a18.6,18.6,0,0,0,5.29-.87c.9-.3,1.63-1.31,0-2.08-.42-.2-.94-.87-.87-1.2a1.79,1.79,0,0,1,1.19-.94,3.27,3.27,0,0,1,3.94,4C359.58,133.9,360.59,134.25,362.6,134.36Z"/><path d="M355.49,104.07c2.68.22,5.37.4,8,.69,1.18.13,2.35.49,2.27,2.09-.1,2.36-.47,2.78-2.57,2.92a3.67,3.67,0,0,1-1.1,0c-5.47-1.48-10.93-.29-16.4,0a37.81,37.81,0,0,1-4.76.06c-1.24-.1-2.44-.85-2.23-2.17a3,3,0,0,1,2-1.92c4.86-.81,9.76-1.39,14.65-2Z"/><path d="M358.12,116.65a35.82,35.82,0,0,0-3.86,1,15,15,0,0,1-10.25,0c-1.46-.49-2.63-1.44-2.3-3.06a3.44,3.44,0,0,1,1.82-2.15,2.56,2.56,0,0,1,3.38,1.42c.47.92,1,1,1.94.7,2.71-.75,5.43-1.5,8.19-2a7.28,7.28,0,0,1,3.59.19c.84.28,1.46,1.25,2.17,1.92a19.21,19.21,0,0,1-2.63,2.25c-.49.3-1.32,0-2,0Z"/><path d="M369,171.43a42.32,42.32,0,0,1-6.08-1c-2.12-.64-3.44-2.88-2.87-4.1.48-1,4-1.74,5.25-.69,1.9,1.58,4,1.56,6.19,1.53a2.11,2.11,0,0,1,1.4.32,4.12,4.12,0,0,1,1.29,2c0,.36-.9,1.13-1.5,1.28a23,23,0,0,1-3.63.37Z"/><path d="M368.41,148.41l-1.59,1.91c-.3-.42-.93-1-.83-1.23a8.15,8.15,0,0,1,1.52-1.53Z"/><text class="cls-3" transform="translate(159.17 68.54)">王主教若瑟醫療財團法人</text><text class="cls-4" transform="translate(157.17 243.49) scale(1 0.9)">St. Joseph’s Hospital Medical Library</text><line class="cls-5" x1="540.68" y1="93.41" x2="540.68" y2="185.48"/></svg>